<?xml version="1.0" encoding="utf-8"?>
<!-- Generator: Adobe Illustrator 23.0.5, SVG Export Plug-In . SVG Version: 6.00 Build 0)  -->
<svg version="1.1" id="svg" xmlns="http://www.w3.org/2000/svg" xmlns:xlink="http://www.w3.org/1999/xlink" x="0px" y="0px"
	 viewBox="0 0 400 170.8" style="enable-background:new 0 0 400 170.8;" xml:space="preserve">
<style type="text/css">
	.st0{fill-rule:evenodd;clip-rule:evenodd;fill:#ED1C24;}
	.st1{fill-rule:evenodd;clip-rule:evenodd;}
</style>
<path class="st0" d="M122.2,115.8c-0.2-0.4-7.8-11.6-16.7-25c-9-13.4-20.6-30.7-25.8-38.4c-5.2-7.7-11-16.4-12.9-19.2
	c-1.9-2.8-3.9-5.8-4.5-6.7c-0.6-0.9-3.9-5.7-7.3-10.8c-3.4-5.1-6.3-9.3-6.3-9.4c-0.1-0.1-0.3,1-0.4,2.4c-0.1,1.4-0.2,23.8-0.2,49.6
	l0.1,47l1.2,2.7c1.5,3.3,2.9,4.8,6.1,6.7l2.4,1.4l32.3,0.2C116.6,116.5,122.6,116.4,122.2,115.8z M85.9,98.6
	c-6.6,8.1-19.7,5.8-23.1-4.2c-3.7-11,7.8-21.6,18.2-16.6C89.2,81.6,91.5,91.7,85.9,98.6z"/>
<path class="st1" d="M153.2,62.9l-2,0.5V50.5h-10.9l0.2,17.7c0.2,17.3,0.2,17.8,1.4,20c9.3,17.5,34.5,11.6,34.4-8
	C176.3,68.1,165,59.6,153.2,62.9z M158.6,87.4c-7.5,0.2-9.8-9.8-3-13.3c2.1-1.1,3.1-1.2,5.2-0.4C168.1,76.6,166.3,87.2,158.6,87.4z"
	/>
<path class="st1" d="M200.7,61.3c-1.2,0.6-3,1.9-4,2.9c-2.1,2.2-2.8,2.1-2.8-0.2v-1.6H188H182v17.8v17.8h6.2h6.2l0-9.1
	c0-13.2,2-17.7,8.2-19l1.8-0.4v-4.6C204.5,59.9,204.2,59.6,200.7,61.3L200.7,61.3z"/>
<path class="st1" d="M241.5,84.6c-5.2,3.7-14.3,6.1-18.6,4.9l-1.6-0.4l2.2-1.4c2.8-1.8,9.3-5.5,14.7-8.5c5.1-2.8,5.3-3.4,3.1-8
	c-3.4-6.9-12.3-10.5-20.8-8.6c-13.4,3.1-18.6,19.1-9.9,30.5c4.8,6.2,19,7.3,29.8,2.2l3.4-1.6v-5.1C243.7,83,243.7,83,241.5,84.6z
	 M217.7,77.3c0-5.2,5.2-8.5,10.1-6.3c3.4,1.6,3.3,1.8-3.2,5.6C217.8,80.6,217.7,80.6,217.7,77.3z"/>
<path class="st1" d="M269.7,62.4c-1,0.2-3,1.2-4.5,2.1c-3.3,2.1-3.2,2.1-3.2-0.2v-1.9h-5.9h-5.9v17.8v17.8h5.9h5.9l0-8.5
	c0-12.7,1-15.3,6.1-15.4c5-0.1,5.8,1.9,5.8,14.4v9.5h6.2h6.2V87.5C286.3,66,281.9,59.3,269.7,62.4L269.7,62.4z"/>
<path class="st1" d="M305.3,62.9c-8.4,2.6-12.7,8.4-12.7,17.3c0,11.6,7.1,18.3,19.3,18.4c5.5,0,5.3,0.3,5.3-6.8v-6.2l-1.5,0.8
	c-5.2,2.7-11.5-0.5-11.5-5.7c0-5.8,6.8-9.2,11.8-6l1.2,0.8v-6.2c0-5.1-0.1-6.2-0.9-6.5C315.1,62.3,306.9,62.4,305.3,62.9L305.3,62.9
	z"/>
<path class="st1" d="M342,62.6c-2.5-0.1-5.2,0-5.9,0.3c-20.4,6.7-15,37.1,6.4,35.6C365.2,96.9,364.8,63.4,342,62.6z M341.7,87.3
	c-4.5,0-7.2-2.6-7.2-6.7c0-5.8,6.2-9.1,10.8-5.8C350.7,78.7,348.2,87.3,341.7,87.3z"/>
<path class="st1" d="M6.9,149.7v9.5h1.9h1.9l0.2-7.2l0.2-7.2l1.5,6.1c0.8,3.4,1.5,6.6,1.5,7.2c0,0.9,0.3,1.1,2,0.9l2-0.2l1.4-6.2
	c2-8.7,2.1-8.7,2.1-0.6l0,7.2l1.7-0.2l1.7-0.2l0.1-9.3l0.1-9.3h-2.8h-2.8l-1.5,5.9c-0.8,3.3-1.6,5.9-1.8,5.9c-0.2,0-1.1-2.7-1.9-5.9
	l-1.6-5.9H9.8H6.9V149.7L6.9,149.7z"/>
<polygon class="st1" points="66.3,149.7 66.3,159.2 68,159.2 69.6,159.2 69.6,149.7 69.6,140.3 68,140.3 66.3,140.3 66.3,149.7 "/>
<path class="st1" d="M94.8,144.8c-0.6-3.3-2.4-4.3-8.5-4.5l-5.4-0.2v19h3.3v-7h2.7C92.4,152.1,95.6,149.2,94.8,144.8z M86.8,148.9
	h-2.6v-5.4h2.7c1.7,0,3,0.3,3.5,0.8C92.5,146.5,90.6,148.9,86.8,148.9z"/>
<path class="st1" d="M182,141.9c0,1.4,0.2,1.6,1.6,1.6c1.4,0,1.6-0.2,1.6-1.6c0-1.4-0.2-1.6-1.6-1.6
	C182.2,140.3,182,140.4,182,141.9L182,141.9z"/>
<path class="st1" d="M242.5,155.5c-1.2-0.9-1.2-1.1-0.5-2.7c0.8-2,0.8-2-1.2-2.5c-1.2-0.3-1.5-0.2-1.5,0.5c0,1.3-0.8,1-1.9-0.5
	c-0.9-1.4-0.9-1.5,0.5-2.9c3.7-3.8-0.9-8.7-6.1-6.5c-2.3,1-3,4.1-1.4,6.2c0.7,0.9,0.6,1.2-1.2,2.7c-5.8,5,2.2,12.5,8.7,8.2
	c0.9-0.6,1.5-0.7,1.8-0.4c0.9,1.5,2.4,1.6,3.3,0.3C243.7,156.5,243.7,156.4,242.5,155.5z M235.6,155.4c-3.5,1.8-6.5-1.1-4-3.8
	c1.2-1.4,1.5-1.3,3.4,1.1C236.6,154.7,236.6,154.8,235.6,155.4z M235.8,145.7c-1.2,1.4-1.7,1.3-2.5,0c-1.2-2.2,1.1-3.8,2.7-1.8
	C236.6,144.5,236.6,144.8,235.8,145.7z"/>
<polygon class="st1" points="253.9,149.7 253.9,159.2 255.5,159.2 257.2,159.2 257.2,155.1 257.2,151.1 261.2,151.1 265.3,151.1 
	265.3,149.4 265.3,147.8 261.2,147.8 257.2,147.8 257.2,145.7 257.2,143.5 261.8,143.5 266.3,143.5 266.3,141.9 266.3,140.3 
	260.1,140.3 253.9,140.3 253.9,149.7 "/>
<path class="st1" d="M289.1,145.3l-1.7,0.8v-5.9h-3.8v18.9h1.6c1,0,1.6-0.3,1.6-0.8c0-0.7,0.2-0.7,1.9,0c4.7,2,7.6-0.4,7.6-6.3
	C296.3,146,293.3,143.2,289.1,145.3z M292.3,155.7c-1.9,2.3-4.9,0.1-5-3.7c-0.1-4.3,3.7-6.3,5.4-3
	C293.5,150.5,293.3,154.5,292.3,155.7z"/>
<path class="st1" d="M310.1,141.9c0,1.4,0.2,1.6,1.6,1.6c1.4,0,1.6-0.2,1.6-1.6c0-1.4-0.2-1.6-1.6-1.6
	C310.3,140.3,310.1,140.4,310.1,141.9L310.1,141.9z"/>
<path class="st1" d="M355,141.9c0,1.4,0.2,1.6,1.6,1.6c1.4,0,1.6-0.2,1.6-1.6c0-1.4-0.2-1.6-1.6-1.6
	C355.2,140.3,355,140.4,355,141.9L355,141.9z"/>
<path class="st1" d="M44.9,141.7c-0.7,0.5-1.2,1.4-1.2,2.1c0,0.8-0.3,1.3-0.8,1.3c-0.5,0-0.8,0.5-0.8,1.4c0,0.8,0.3,1.4,0.8,1.4
	c0.7,0,0.8,0.9,0.8,4.9c0,5.4,0.9,6.8,4.2,6.4c2.1-0.2,2.6-2.6,0.5-2.6c-1.4,0-1.4,0-1.4-4.3c0-4.3,0-4.3,1.4-4.3
	c1.1,0,1.4-0.3,1.4-1.4c0-1.1-0.3-1.4-1.4-1.4c-1.2,0-1.4-0.2-1.4-2.2C46.9,140.6,46.7,140.4,44.9,141.7L44.9,141.7z"/>
<path class="st1" d="M347.6,141.7c-0.7,0.5-1.2,1.4-1.2,2.1c0,0.8-0.3,1.3-0.8,1.3c-0.5,0-0.8,0.5-0.8,1.4c0,0.8,0.3,1.4,0.8,1.4
	c0.6,0,0.8,1,0.9,5c0.2,5.6,1.2,7,4.4,6.2c2-0.5,2-2.5,0.1-2.5c-1.3,0-1.4-0.1-1.4-4.3c0-4.3,0-4.3,1.4-4.3c1.1,0,1.4-0.3,1.4-1.4
	c0-1.1-0.3-1.4-1.4-1.4c-1.2,0-1.4-0.2-1.4-2.2C349.6,140.6,349.4,140.4,347.6,141.7L347.6,141.7z"/>
<path class="st1" d="M36,155.7c-1.8,1.6-3.7,0.8-4.5-1.8c-0.4-1.2-0.3-1.2,4.3-1.2h4.7l-0.4-2.3c-0.7-4.2-5.1-6.9-8.8-5.3
	c-3.6,1.5-4.6,9.3-1.6,12.3c2.6,2.6,10.1,1.5,10.1-1.5C39.9,155.1,36.9,155,36,155.7z M32.1,148.3c1.2-1.3,3.2-1.3,4,0.1
	c1,1.9,0.6,2.2-2.1,2.2C31,150.5,30.6,150,32.1,148.3z"/>
<path class="st1" d="M63.3,158.2c-0.2-0.5-0.5-3.3-0.7-6.2c-0.3-6.9-3-9.1-8.6-6.9c-1,0.4-2.3,2-2.3,2.9c0,0.8,2.9,0.9,3.5,0.1
	c0.9-1.3,3.8-0.9,3.8,0.6c0,0.9-0.6,1.2-3,1.8c-4.8,1.1-6.4,4.6-3.5,7.4c1.5,1.5,3.4,1.7,5.7,0.5c1.4-0.7,1.6-0.7,1.6,0
	c0,0.6,0.6,0.8,2,0.8C63.5,159.2,63.7,159,63.3,158.2z M55.6,156.1c-1.6-1-1.1-2.6,1-3.3c2.7-0.9,2.7-0.9,2.7,0.9
	C59.3,155.7,57.2,157.1,55.6,156.1z"/>
<path class="st1" d="M102.1,145.8c-1,1-1.2,1.1-1.2,0.3c0-0.7-0.4-0.9-1.6-0.9h-1.6v7v7h1.9h1.9v-4.4c0-5.2,0.5-6.5,2.7-6.5
	c1.3,0,1.6-0.3,1.8-1.5C106.4,144.4,104.2,143.8,102.1,145.8L102.1,145.8z"/>
<path class="st1" d="M111.2,145.5c-5.1,2.6-4.8,10.8,0.4,13c2.8,1.2,5.4,0.6,7.6-1.7C124.5,151.1,118,142,111.2,145.5z M116.1,155.9
	c-2.8,1.5-5.2-0.6-5-4.5c0.1-3.6,3.1-5.5,5.2-3.3C118.2,150,118,154.9,116.1,155.9z"/>
<path class="st1" d="M127.2,145.1c-4.2,1.7-5.4,8.7-2,12c2.4,2.4,7.1,2.6,9.1,0.2c1.4-1.7,1.7-3,0.5-3c-0.4,0-1.1-0.1-1.5-0.3
	c-0.4-0.2-1,0.3-1.3,0.9c-0.7,1.6-3.3,2-4.3,0.6c-1.1-1.4-1-6.4,0.1-7.4c1.3-1.3,4-0.9,4,0.5c0,0.5,0.5,0.6,1.8,0.4
	c2.3-0.4,2.3-0.4,1-2.2C133.1,144.8,129.8,144,127.2,145.1L127.2,145.1z"/>
<path class="st1" d="M145.8,155.7c-1.3,1.1-3,0.9-4-0.4c-1.6-2.3-1.2-2.6,3.8-2.6h4.7l-0.4-2.3c-0.7-4.4-5.4-7-9.1-5
	c-4.4,2.5-4.3,10.6,0.1,12.9c3,1.5,8.7,0,8.7-2.4C149.6,155.1,146.6,155,145.8,155.7z M141.8,148.5c0.9-1.3,2.9-1.6,3.9-0.6
	c1.6,1.6,0.8,2.6-2,2.6C140.7,150.5,140.5,150.3,141.8,148.5z"/>
<path class="st1" d="M154.4,145.2c-4.9,1.8-2.6,7.2,3.5,8.3c2.3,0.4,2.8,1.1,1.9,2.2c-1,1.2-3.6,1-4.5-0.3c-0.7-0.9-1.1-1-2.6-0.7
	l-1.8,0.5l1.7,1.8c3.5,3.9,11,2.1,11-2.7c0-2.2-1.2-3.1-6.1-4.5c-1.3-0.4-2.2-1-2.2-1.4c0-1.1,3.2-1.3,4.2-0.3
	c0.7,0.7,3.6,0.7,3.6,0C163.1,145.4,158.2,143.8,154.4,145.2L154.4,145.2z"/>
<path class="st1" d="M168,146.1c-2.9,2.9-1.4,5.9,3.3,7.1c3.5,0.9,3.7,1,3.7,1.8c0,1.7-3.9,1.9-5,0.3c-0.8-1.2-3.6-1-3.6,0.3
	c0,3.3,8.1,4.7,10.8,1.8c2.7-2.9,1-5.8-4.1-7.3c-2-0.6-3.2-1.3-3.2-1.8c0-1.1,3.2-1.3,4.2-0.3c0.8,0.8,3.7,0.6,3.7-0.2
	C177.7,144.7,170.7,143.4,168,146.1L168,146.1z"/>
<path class="st1" d="M193.5,145.7c-1.5,1-1.8,1-1.8,0.3c0-0.6-0.5-0.9-1.4-0.9h-1.4v7v7h1.6h1.6v-5.1c0-5.5,0.8-7.1,3.3-6.7
	c1.6,0.2,2,1.6,2,7.3l0.1,4.5h1.6h1.6v-6C200.9,145,198.5,142.5,193.5,145.7L193.5,145.7z"/>
<path class="st1" d="M215,145.1c-0.9,0-1.6,0.2-1.6,0.5c0,0.3-0.7,0.2-1.5-0.3c-2-1-3.3-1-5.4,0.3c-4.6,2.8-3.3,12.4,1.7,13.3
	c1.3,0.2,2.3,0.1,3.2-0.5c1.8-1.2,1.9-1.1,1.9,0.6c0,2.4-3.4,4-5.2,2.3c-1.2-1.1-4-1.2-4-0.1c0,2.3,5.6,4,9.3,2.8
	c2.7-0.9,3.1-2.3,3.1-11.2v-7.8H215z M207.4,153.8c-1.1-3.9,1.5-7.8,4.1-6.1c1,0.6,1.8,2.6,1.8,4.2
	C213.4,156.8,208.7,158.3,207.4,153.8z"/>
<path class="st1" d="M280.6,158.2c-0.2-0.5-0.5-3-0.5-5.5c-0.2-7.9-2.7-10-8.7-7.4c-1.4,0.6-2.4,1.8-2.4,2.7c0,0.7,2.6,0.6,3.3,0
	c1.3-1.2,4-0.8,4,0.6c0,0.8-0.6,1.2-3,1.8c-3.5,0.8-4.9,2.2-4.9,4.8c0,3.2,4.2,5.2,6.8,3.2c1.4-1,1.9-1,1.9,0c0,0.6,0.6,0.8,2,0.8
	C280.8,159.2,281,159,280.6,158.2z M274.2,156.5c-2.7,0-3.2-2.4-0.7-3.5c2.6-1.1,3.1-1,3.1,0.7C276.6,155.5,275.7,156.5,274.2,156.5
	z"/>
<path class="st1" d="M303.8,145.8c-1,1-1.2,1.1-1.2,0.3c0-0.7-0.4-0.9-1.6-0.9h-1.6v7v7h1.9h1.9v-4.4c0-5.2,0.5-6.5,2.7-6.5
	c1.3,0,1.6-0.3,1.8-1.5C308.1,144.4,305.8,143.8,303.8,145.8L303.8,145.8z"/>
<path class="st1" d="M320.4,145c-4.5,1.6-5.7,9-2,12.5c2.7,2.6,8.1,1.7,9.8-1.5c0.8-1.6,0.8-1.7-0.2-1.7c-0.6,0-1.4-0.1-1.8-0.3
	c-0.5-0.2-1,0.2-1.4,1.1c-1.5,3.3-5,1.2-5-3c0-4.4,3.8-7.3,4.7-3.7c0.3,1,2.8,1.1,3.8,0.2C330.2,147,323.4,143.9,320.4,145
	L320.4,145z"/>
<path class="st1" d="M342.5,157.4c-0.3-1-0.5-3.7-0.5-6.1c0-2.4-0.2-4.6-0.4-5c-1.1-1.7-5.9-2.3-8.3-1c-1.2,0.7-2.4,2.3-2,2.7
	c0.9,0.7,3,0.7,3.3,0c0.5-1.2,3.8-0.8,4,0.4c0.2,1,0,1.1-3.6,2c-4.4,1.1-5.8,4.6-3.1,7.3c1.5,1.5,3.4,1.7,5.7,0.5
	c1.4-0.7,1.6-0.7,1.9,0C340.2,160.2,343.1,159.3,342.5,157.4z M335.1,156.1c-1.6-1-1.1-2.6,1-3.3c2.7-0.9,2.7-0.9,2.7,0.9
	C338.8,155.7,336.6,157.1,335.1,156.1z"/>
<path class="st1" d="M366.5,145.7c-1.5,1-1.8,1-1.8,0.3c0-0.6-0.5-0.9-1.4-0.9H362v7v7h1.6h1.6v-5.1c0-5.5,0.8-7.1,3.3-6.7
	c1.6,0.2,2,1.6,2,7.3l0.1,4.5h1.6h1.6v-6C373.9,145,371.5,142.5,366.5,145.7L366.5,145.7z"/>
<path class="st1" d="M388,145.1c-0.9,0-1.6,0.2-1.6,0.5c0,0.3-0.7,0.2-1.5-0.3c-2-1-3.3-1-5.3,0.3c-4.6,2.8-3.4,12.4,1.7,13.3
	c1.3,0.2,2.3,0.1,3.2-0.5c1.8-1.2,1.9-1.1,1.9,0.6c0,2.4-3.4,4-5.2,2.3c-1.2-1.1-4-1.2-4-0.1c0,2.3,5.6,4,9.3,2.8
	c2.7-0.9,3.1-2.3,3.1-11.2v-7.8H388z M380.4,153.8c-1.1-3.9,1.5-7.8,4.1-6.1c1,0.6,1.8,2.6,1.8,4.2
	C386.3,156.8,381.7,158.3,380.4,153.8z"/>
<polygon class="st1" points="182,152.1 182,159.2 183.6,159.2 185.3,159.2 185.3,152.1 185.3,145.1 183.6,145.1 182,145.1 
	182,152.1 "/>
<polygon class="st1" points="310.1,152.1 310.1,159.2 311.8,159.2 313.4,159.2 313.4,152.1 313.4,145.1 311.8,145.1 310.1,145.1 
	310.1,152.1 "/>
<polygon class="st1" points="355,152.1 355,159.2 356.6,159.2 358.2,159.2 358.2,152.1 358.2,145.1 356.6,145.1 355,145.1 
	355,152.1 "/>
</svg>
