<svg id="svg" version="1.1" xmlns="http://www.w3.org/2000/svg" xmlns:xlink="http://www.w3.org/1999/xlink" width="400" height="129.2929292929293" viewBox="0, 0, 400,129.2929292929293"><g id="svgg"><path id="path0" d="M50.333 8.833 C 50.333 9.167,50.250 9.333,50.083 9.333 C 49.898 9.333,49.833 9.528,49.833 10.083 C 49.833 10.620,49.766 10.833,49.597 10.833 C 49.466 10.833,49.310 11.058,49.250 11.333 C 49.190 11.608,49.071 11.833,48.987 11.833 C 48.902 11.833,48.831 11.927,48.828 12.042 C 48.825 12.156,48.677 12.550,48.500 12.917 C 48.323 13.283,48.175 13.720,48.172 13.887 C 48.169 14.054,48.054 14.303,47.917 14.440 C 47.779 14.578,47.667 14.873,47.667 15.095 C 47.667 15.318,47.593 15.500,47.502 15.500 C 47.411 15.500,47.288 15.806,47.228 16.181 C 47.168 16.555,47.018 16.901,46.893 16.949 C 46.769 16.997,46.667 17.245,46.667 17.500 C 46.667 17.759,46.556 18.007,46.417 18.060 C 46.252 18.124,46.167 18.385,46.167 18.828 C 46.167 19.314,46.098 19.500,45.917 19.500 C 45.752 19.500,45.667 19.665,45.667 19.982 C 45.667 20.257,45.559 20.506,45.417 20.560 C 45.252 20.624,45.167 20.885,45.167 21.328 C 45.167 21.814,45.098 22.000,44.917 22.000 C 44.752 22.000,44.667 22.165,44.667 22.482 C 44.667 22.757,44.559 23.006,44.417 23.060 C 44.279 23.113,44.167 23.338,44.167 23.560 C 44.167 23.783,44.054 24.008,43.917 24.060 C 43.752 24.124,43.667 24.385,43.667 24.828 C 43.667 25.314,43.598 25.500,43.417 25.500 C 43.252 25.500,43.167 25.665,43.167 25.982 C 43.167 26.257,43.059 26.506,42.917 26.560 C 42.752 26.624,42.667 26.885,42.667 27.328 C 42.667 27.814,42.598 28.000,42.417 28.000 C 42.252 28.000,42.167 28.165,42.167 28.482 C 42.167 28.757,42.059 29.006,41.917 29.060 C 41.752 29.124,41.667 29.385,41.667 29.828 C 41.667 30.314,41.598 30.500,41.417 30.500 C 41.252 30.500,41.167 30.665,41.167 30.982 C 41.167 31.257,41.059 31.506,40.917 31.560 C 40.752 31.624,40.667 31.885,40.667 32.328 C 40.667 32.814,40.598 33.000,40.417 33.000 C 40.252 33.000,40.167 33.165,40.167 33.482 C 40.167 33.757,40.059 34.006,39.917 34.060 C 39.771 34.116,39.667 34.366,39.667 34.661 C 39.667 34.999,39.584 35.167,39.417 35.167 C 39.231 35.167,39.167 35.361,39.167 35.917 C 39.167 36.472,39.102 36.667,38.917 36.667 C 38.750 36.667,38.667 36.833,38.667 37.167 C 38.667 37.500,38.583 37.667,38.417 37.667 C 38.231 37.667,38.167 37.861,38.167 38.417 C 38.167 38.972,38.102 39.167,37.917 39.167 C 37.750 39.167,37.667 39.333,37.667 39.667 C 37.667 40.000,37.583 40.167,37.417 40.167 C 37.231 40.167,37.167 40.361,37.167 40.917 C 37.167 41.472,37.102 41.667,36.917 41.667 C 36.750 41.667,36.667 41.833,36.667 42.167 C 36.667 42.500,36.583 42.667,36.417 42.667 C 36.252 42.667,36.167 42.831,36.167 43.149 C 36.167 43.424,36.059 43.672,35.917 43.727 C 35.752 43.790,35.667 44.051,35.667 44.495 C 35.667 44.981,35.598 45.167,35.417 45.167 C 35.252 45.167,35.167 45.331,35.167 45.649 C 35.167 45.924,35.059 46.172,34.917 46.227 C 34.752 46.290,34.667 46.551,34.667 46.995 C 34.667 47.481,34.598 47.667,34.417 47.667 C 34.252 47.667,34.167 47.831,34.167 48.149 C 34.167 48.424,34.059 48.672,33.917 48.727 C 33.752 48.790,33.667 49.051,33.667 49.495 C 33.667 49.981,33.598 50.167,33.417 50.167 C 33.252 50.167,33.167 50.331,33.167 50.649 C 33.167 50.914,33.064 51.171,32.938 51.219 C 32.812 51.267,32.656 51.586,32.592 51.927 C 32.528 52.269,32.369 52.655,32.238 52.786 C 32.107 52.917,32.000 53.206,32.000 53.429 C 32.000 53.651,31.926 53.833,31.837 53.833 C 31.747 53.833,31.623 54.040,31.561 54.292 C 31.499 54.544,31.383 54.794,31.302 54.847 C 31.221 54.900,31.109 55.238,31.052 55.597 C 30.996 55.956,30.848 56.310,30.725 56.383 C 30.601 56.457,30.500 56.694,30.500 56.911 C 30.500 57.128,30.420 57.332,30.323 57.365 C 30.225 57.397,30.103 57.741,30.051 58.129 C 29.992 58.568,29.870 58.833,29.728 58.833 C 29.588 58.833,29.500 59.019,29.500 59.316 C 29.500 59.590,29.393 59.839,29.250 59.894 C 29.085 59.957,29.000 60.218,29.000 60.661 C 29.000 61.148,28.931 61.333,28.750 61.333 C 28.585 61.333,28.500 61.498,28.500 61.816 C 28.500 62.090,28.393 62.339,28.250 62.394 C 28.085 62.457,28.000 62.718,28.000 63.161 C 28.000 63.648,27.931 63.833,27.750 63.833 C 27.585 63.833,27.500 63.998,27.500 64.316 C 27.500 64.590,27.393 64.839,27.250 64.894 C 27.112 64.946,27.000 65.147,27.000 65.340 C 27.000 65.533,26.887 65.803,26.750 65.940 C 26.612 66.078,26.500 66.448,26.500 66.762 C 26.500 67.159,26.424 67.333,26.250 67.333 C 26.083 67.333,26.000 67.501,26.000 67.839 C 26.000 68.134,25.896 68.384,25.750 68.440 C 25.589 68.502,25.500 68.760,25.500 69.167 C 25.500 69.574,25.411 69.832,25.250 69.894 C 25.113 69.946,25.000 70.182,25.000 70.417 C 25.000 70.652,24.887 70.887,24.750 70.940 C 24.589 71.002,24.500 71.260,24.500 71.667 C 24.500 72.074,24.411 72.332,24.250 72.394 C 24.104 72.450,24.000 72.699,24.000 72.995 C 24.000 73.333,23.917 73.500,23.750 73.500 C 23.565 73.500,23.500 73.694,23.500 74.250 C 23.500 74.806,23.435 75.000,23.250 75.000 C 23.083 75.000,23.000 75.167,23.000 75.500 C 23.000 75.833,22.917 76.000,22.750 76.000 C 22.585 76.000,22.500 76.165,22.500 76.482 C 22.500 76.757,22.393 77.006,22.250 77.060 C 22.085 77.124,22.000 77.385,22.000 77.828 C 22.000 78.314,21.931 78.500,21.750 78.500 C 21.585 78.500,21.500 78.665,21.500 78.982 C 21.500 79.257,21.393 79.506,21.250 79.560 C 21.085 79.624,21.000 79.885,21.000 80.328 C 21.000 80.814,20.931 81.000,20.750 81.000 C 20.583 81.000,20.500 81.167,20.500 81.500 C 20.500 81.833,20.417 82.000,20.250 82.000 C 20.065 82.000,20.000 82.194,20.000 82.750 C 20.000 83.306,19.935 83.500,19.750 83.500 C 19.583 83.500,19.500 83.667,19.500 84.000 C 19.500 84.333,19.417 84.500,19.250 84.500 C 19.085 84.500,19.000 84.665,19.000 84.982 C 19.000 85.257,18.893 85.506,18.750 85.560 C 18.585 85.624,18.500 85.885,18.500 86.328 C 18.500 86.814,18.431 87.000,18.250 87.000 C 18.083 87.000,18.000 87.167,18.000 87.505 C 18.000 87.801,17.896 88.050,17.750 88.106 C 17.589 88.168,17.500 88.426,17.500 88.833 C 17.500 89.240,17.411 89.498,17.250 89.560 C 17.104 89.616,17.000 89.866,17.000 90.161 C 17.000 90.499,16.917 90.667,16.750 90.667 C 16.569 90.667,16.500 90.852,16.500 91.339 C 16.500 91.763,16.413 92.044,16.265 92.101 C 16.136 92.150,15.980 92.391,15.918 92.635 C 15.857 92.880,15.735 93.124,15.648 93.178 C 15.560 93.233,15.442 93.571,15.385 93.930 C 15.329 94.289,15.182 94.643,15.058 94.717 C 14.934 94.790,14.833 95.002,14.833 95.187 C 14.833 95.372,14.721 95.636,14.583 95.774 C 14.446 95.911,14.333 96.168,14.333 96.345 C 14.333 96.522,14.262 96.667,14.174 96.667 C 13.957 96.667,13.773 97.735,13.901 98.249 L 14.006 98.667 26.637 98.667 C 40.307 98.667,39.667 98.712,39.667 97.734 C 39.667 97.415,39.767 97.164,39.917 97.106 C 40.054 97.054,40.167 96.829,40.167 96.606 C 40.167 96.384,40.279 96.159,40.417 96.106 C 40.580 96.044,40.667 95.784,40.667 95.356 C 40.667 94.929,40.753 94.669,40.917 94.606 C 41.063 94.550,41.167 94.301,41.167 94.005 C 41.167 93.667,41.249 93.500,41.417 93.500 C 41.581 93.500,41.667 93.335,41.667 93.018 C 41.667 92.743,41.774 92.494,41.917 92.440 C 42.082 92.376,42.167 92.115,42.167 91.672 C 42.167 91.186,42.236 91.000,42.417 91.000 C 42.581 91.000,42.667 90.835,42.667 90.518 C 42.667 90.243,42.774 89.994,42.917 89.940 C 43.082 89.876,43.167 89.615,43.167 89.172 C 43.167 88.686,43.236 88.500,43.417 88.500 C 43.583 88.500,43.667 88.333,43.667 88.000 C 43.667 87.667,43.750 87.500,43.917 87.500 C 44.102 87.500,44.167 87.306,44.167 86.750 C 44.167 86.194,44.231 86.000,44.417 86.000 C 44.583 86.000,44.667 85.833,44.667 85.500 C 44.667 85.167,44.750 85.000,44.917 85.000 C 45.102 85.000,45.167 84.806,45.167 84.250 C 45.167 83.694,45.231 83.500,45.417 83.500 C 45.583 83.500,45.667 83.333,45.667 83.000 C 45.667 82.667,45.750 82.500,45.917 82.500 C 46.081 82.500,46.167 82.335,46.167 82.018 C 46.167 81.743,46.274 81.494,46.417 81.440 C 46.582 81.376,46.667 81.115,46.667 80.672 C 46.667 80.186,46.736 80.000,46.917 80.000 C 47.084 80.000,47.167 79.833,47.167 79.495 C 47.167 79.199,47.271 78.950,47.417 78.894 C 47.580 78.831,47.667 78.572,47.667 78.149 C 47.667 77.683,47.737 77.500,47.917 77.500 C 48.084 77.500,48.167 77.333,48.167 76.995 C 48.167 76.699,48.271 76.450,48.417 76.394 C 48.580 76.331,48.667 76.071,48.667 75.644 C 48.667 75.216,48.753 74.956,48.917 74.894 C 49.059 74.839,49.167 74.590,49.167 74.316 C 49.167 73.998,49.252 73.833,49.417 73.833 C 49.602 73.833,49.667 73.639,49.667 73.083 C 49.667 72.528,49.731 72.333,49.917 72.333 C 50.083 72.333,50.167 72.167,50.167 71.833 C 50.167 71.500,50.250 71.333,50.417 71.333 C 50.554 71.333,50.667 71.189,50.667 71.012 C 50.667 70.835,50.777 70.580,50.912 70.445 C 51.047 70.310,51.206 69.897,51.265 69.527 C 51.324 69.157,51.476 68.814,51.603 68.766 C 51.730 68.717,51.833 68.494,51.833 68.269 C 51.833 68.045,51.910 67.836,52.004 67.804 C 52.098 67.773,52.222 67.448,52.279 67.082 C 52.337 66.716,52.485 66.357,52.609 66.283 C 52.732 66.210,52.833 65.974,52.833 65.760 C 52.833 65.545,52.946 65.326,53.083 65.273 C 53.248 65.210,53.333 64.949,53.333 64.505 C 53.333 64.019,53.402 63.833,53.583 63.833 C 53.748 63.833,53.833 63.669,53.833 63.351 C 53.833 63.076,53.941 62.828,54.083 62.773 C 54.221 62.720,54.333 62.496,54.333 62.276 C 54.333 62.055,54.446 61.781,54.583 61.667 C 54.721 61.553,54.833 61.214,54.833 60.914 C 54.833 60.583,54.932 60.331,55.083 60.273 C 55.227 60.218,55.333 59.969,55.333 59.690 C 55.333 59.410,55.440 59.161,55.583 59.106 C 55.738 59.047,55.833 58.793,55.833 58.440 C 55.833 58.086,55.928 57.832,56.083 57.773 C 56.227 57.718,56.333 57.469,56.333 57.190 C 56.333 56.910,56.440 56.661,56.583 56.606 C 56.748 56.543,56.833 56.282,56.833 55.839 C 56.833 55.352,56.902 55.167,57.083 55.167 C 57.250 55.167,57.333 55.000,57.333 54.667 C 57.333 54.333,57.417 54.167,57.583 54.167 C 57.769 54.167,57.833 53.972,57.833 53.417 C 57.833 52.861,57.898 52.667,58.083 52.667 C 58.250 52.667,58.333 52.500,58.333 52.167 C 58.333 51.833,58.417 51.667,58.583 51.667 C 58.748 51.667,58.833 51.502,58.833 51.184 C 58.833 50.910,58.941 50.661,59.083 50.606 C 59.248 50.543,59.333 50.282,59.333 49.839 C 59.333 49.352,59.402 49.167,59.583 49.167 C 59.748 49.167,59.833 49.002,59.833 48.684 C 59.833 48.410,59.941 48.161,60.083 48.106 C 60.248 48.043,60.333 47.782,60.333 47.339 C 60.333 46.852,60.402 46.667,60.583 46.667 C 60.750 46.667,60.833 46.500,60.833 46.167 C 60.833 45.833,60.917 45.667,61.083 45.667 C 61.269 45.667,61.333 45.472,61.333 44.917 C 61.333 44.361,61.398 44.167,61.583 44.167 C 61.748 44.167,61.833 44.002,61.833 43.684 C 61.833 43.410,61.941 43.161,62.083 43.106 C 62.248 43.043,62.333 42.782,62.333 42.339 C 62.333 41.852,62.402 41.667,62.583 41.667 C 62.748 41.667,62.833 41.502,62.833 41.184 C 62.833 40.910,62.941 40.661,63.083 40.606 C 63.229 40.550,63.333 40.301,63.333 40.005 C 63.333 39.667,63.416 39.500,63.583 39.500 C 63.764 39.500,63.833 39.314,63.833 38.828 C 63.833 38.385,63.918 38.124,64.083 38.060 C 64.226 38.006,64.333 37.757,64.333 37.482 C 64.333 37.165,64.419 37.000,64.583 37.000 C 64.769 37.000,64.833 36.806,64.833 36.250 C 64.833 35.694,64.898 35.500,65.083 35.500 C 65.250 35.500,65.333 35.333,65.333 35.000 C 65.333 34.667,65.417 34.500,65.583 34.500 C 65.769 34.500,65.833 34.306,65.833 33.750 C 65.833 33.194,65.898 33.000,66.083 33.000 C 66.250 33.000,66.333 32.833,66.333 32.500 C 66.333 32.167,66.417 32.000,66.583 32.000 C 66.769 32.000,66.833 31.806,66.833 31.250 C 66.833 30.689,66.897 30.500,67.087 30.500 C 67.237 30.500,67.383 30.293,67.442 30.000 C 67.497 29.725,67.599 29.500,67.669 29.500 C 67.740 29.500,67.849 29.295,67.912 29.043 C 67.975 28.792,68.098 28.542,68.186 28.488 C 68.273 28.434,68.391 28.096,68.448 27.737 C 68.504 27.377,68.652 27.023,68.775 26.950 C 68.899 26.877,69.002 26.652,69.005 26.450 C 69.008 26.248,69.121 25.938,69.255 25.760 C 69.390 25.582,69.500 25.234,69.500 24.986 C 69.500 24.738,69.612 24.492,69.750 24.440 C 69.887 24.387,70.000 24.186,70.000 23.993 C 70.000 23.801,70.112 23.530,70.250 23.393 C 70.387 23.255,70.500 22.894,70.500 22.589 C 70.500 22.251,70.597 21.998,70.750 21.940 C 70.887 21.887,71.000 21.652,71.000 21.417 C 71.000 21.182,71.112 20.946,71.250 20.894 C 71.389 20.840,71.500 20.592,71.500 20.333 C 71.500 20.074,71.611 19.827,71.750 19.773 C 71.915 19.710,72.000 19.449,72.000 19.005 C 72.000 18.519,72.069 18.333,72.250 18.333 C 72.415 18.333,72.500 18.169,72.500 17.851 C 72.500 17.576,72.607 17.328,72.750 17.273 C 72.915 17.210,73.000 16.949,73.000 16.505 C 73.000 16.019,73.069 15.833,73.250 15.833 C 73.417 15.833,73.500 15.667,73.500 15.333 C 73.500 15.000,73.583 14.833,73.750 14.833 C 73.935 14.833,74.000 14.639,74.000 14.083 C 74.000 13.528,74.065 13.333,74.250 13.333 C 74.417 13.333,74.500 13.167,74.500 12.833 C 74.500 12.500,74.583 12.333,74.750 12.333 C 74.935 12.333,75.000 12.139,75.000 11.583 C 75.000 11.028,75.065 10.833,75.250 10.833 C 75.417 10.833,75.500 10.667,75.500 10.333 C 75.500 10.000,75.583 9.833,75.750 9.833 C 75.935 9.833,76.000 9.639,76.000 9.083 L 76.000 8.333 63.167 8.333 L 50.333 8.333 50.333 8.833 " stroke="none" fill="#fcb424" fill-rule="evenodd"></path><path id="path1" d="M80.611 10.944 C 80.550 11.006,80.500 11.223,80.500 11.427 C 80.500 11.631,80.387 11.841,80.250 11.894 C 80.112 11.946,80.000 12.147,80.000 12.340 C 80.000 12.533,79.887 12.803,79.750 12.940 C 79.612 13.078,79.500 13.440,79.500 13.744 C 79.500 14.082,79.403 14.335,79.250 14.394 C 79.112 14.446,79.000 14.682,79.000 14.917 C 79.000 15.152,78.887 15.387,78.750 15.440 C 78.589 15.502,78.500 15.760,78.500 16.167 C 78.500 16.574,78.411 16.832,78.250 16.894 C 78.104 16.950,78.000 17.199,78.000 17.495 C 78.000 17.833,77.917 18.000,77.750 18.000 C 77.585 18.000,77.500 18.165,77.500 18.482 C 77.500 18.757,77.393 19.006,77.250 19.060 C 77.085 19.124,77.000 19.385,77.000 19.828 C 77.000 20.314,76.931 20.500,76.750 20.500 C 76.585 20.500,76.500 20.665,76.500 20.982 C 76.500 21.257,76.393 21.506,76.250 21.560 C 76.085 21.624,76.000 21.885,76.000 22.328 C 76.000 22.814,75.931 23.000,75.750 23.000 C 75.583 23.000,75.500 23.167,75.500 23.500 C 75.500 23.833,75.417 24.000,75.250 24.000 C 75.065 24.000,75.000 24.194,75.000 24.750 C 75.000 25.306,74.935 25.500,74.750 25.500 C 74.583 25.500,74.500 25.667,74.500 26.000 C 74.500 26.333,74.417 26.500,74.250 26.500 C 74.065 26.500,74.000 26.694,74.000 27.250 C 74.000 27.806,73.935 28.000,73.750 28.000 C 73.583 28.000,73.500 28.167,73.500 28.500 C 73.500 28.833,73.417 29.000,73.250 29.000 C 73.085 29.000,73.000 29.165,73.000 29.482 C 73.000 29.757,72.893 30.006,72.750 30.060 C 72.585 30.124,72.500 30.385,72.500 30.828 C 72.500 31.314,72.431 31.500,72.250 31.500 C 72.083 31.500,72.000 31.667,72.000 32.005 C 72.000 32.301,71.896 32.550,71.750 32.606 C 71.589 32.668,71.500 32.926,71.500 33.333 C 71.500 33.740,71.411 33.998,71.250 34.060 C 71.104 34.116,71.000 34.366,71.000 34.661 C 71.000 34.999,70.917 35.167,70.750 35.167 C 70.565 35.167,70.500 35.361,70.500 35.917 C 70.500 36.472,70.435 36.667,70.250 36.667 C 70.083 36.667,70.000 36.833,70.000 37.167 C 70.000 37.500,69.917 37.667,69.750 37.667 C 69.583 37.667,69.500 37.833,69.500 38.167 C 69.500 38.500,69.417 38.667,69.250 38.667 C 69.065 38.667,69.000 38.861,69.000 39.417 C 69.000 39.972,68.935 40.167,68.750 40.167 C 68.550 40.167,68.500 40.417,68.500 41.417 C 68.500 42.417,68.550 42.667,68.750 42.667 C 68.935 42.667,69.000 42.861,69.000 43.417 C 69.000 43.972,69.065 44.167,69.250 44.167 C 69.417 44.167,69.500 44.333,69.500 44.667 C 69.500 45.000,69.583 45.167,69.750 45.167 C 69.931 45.167,70.000 45.352,70.000 45.839 C 70.000 46.282,70.085 46.543,70.250 46.606 C 70.393 46.661,70.500 46.910,70.500 47.184 C 70.500 47.502,70.585 47.667,70.750 47.667 C 70.931 47.667,71.000 47.852,71.000 48.339 C 71.000 48.782,71.085 49.043,71.250 49.106 C 71.393 49.161,71.500 49.410,71.500 49.684 C 71.500 50.002,71.585 50.167,71.750 50.167 C 71.917 50.167,72.000 50.333,72.000 50.667 C 72.000 51.000,72.083 51.167,72.250 51.167 C 72.435 51.167,72.500 51.361,72.500 51.917 C 72.500 52.472,72.565 52.667,72.750 52.667 C 72.917 52.667,73.000 52.833,73.000 53.167 C 73.000 53.500,73.083 53.667,73.250 53.667 C 73.431 53.667,73.500 53.852,73.500 54.339 C 73.500 54.782,73.585 55.043,73.750 55.106 C 73.893 55.161,74.000 55.410,74.000 55.684 C 74.000 56.002,74.085 56.167,74.250 56.167 C 74.435 56.167,74.500 56.361,74.500 56.917 C 74.500 57.472,74.565 57.667,74.750 57.667 C 74.917 57.667,75.000 57.834,75.000 58.172 C 75.000 58.467,75.104 58.717,75.250 58.773 C 75.411 58.835,75.500 59.093,75.500 59.500 C 75.500 59.907,75.589 60.165,75.750 60.227 C 75.887 60.280,76.000 60.515,76.000 60.750 C 76.000 60.985,76.112 61.220,76.250 61.273 C 76.393 61.328,76.500 61.576,76.500 61.851 C 76.500 62.169,76.585 62.333,76.750 62.333 C 76.931 62.333,77.000 62.519,77.000 63.005 C 77.000 63.449,77.085 63.710,77.250 63.773 C 77.393 63.828,77.500 64.076,77.500 64.351 C 77.500 64.669,77.585 64.833,77.750 64.833 C 77.924 64.833,78.000 65.008,78.000 65.405 C 78.000 65.719,78.112 66.089,78.250 66.226 C 78.387 66.364,78.500 66.669,78.500 66.905 C 78.500 67.175,78.593 67.333,78.750 67.333 C 78.924 67.333,79.000 67.508,79.000 67.905 C 79.000 68.219,79.112 68.589,79.250 68.726 C 79.387 68.864,79.500 69.134,79.500 69.327 C 79.500 69.519,79.612 69.720,79.750 69.773 C 79.893 69.828,80.000 70.076,80.000 70.351 C 80.000 70.669,80.085 70.833,80.250 70.833 C 80.431 70.833,80.500 71.019,80.500 71.505 C 80.500 71.949,80.585 72.210,80.750 72.273 C 80.893 72.328,81.000 72.576,81.000 72.851 C 81.000 73.169,81.085 73.333,81.250 73.333 C 81.424 73.333,81.500 73.508,81.500 73.905 C 81.500 74.219,81.612 74.589,81.750 74.726 C 81.887 74.864,82.000 75.122,82.000 75.301 C 82.000 75.480,82.107 75.714,82.237 75.823 C 82.367 75.931,82.523 76.309,82.583 76.663 C 82.643 77.017,82.798 77.348,82.929 77.398 C 83.062 77.450,83.167 77.711,83.167 77.995 C 83.167 78.333,83.249 78.500,83.417 78.500 C 83.598 78.500,83.667 78.686,83.667 79.172 C 83.667 79.615,83.752 79.876,83.917 79.940 C 84.059 79.994,84.167 80.243,84.167 80.518 C 84.167 80.835,84.252 81.000,84.417 81.000 C 84.583 81.000,84.667 81.167,84.667 81.500 C 84.667 81.833,84.750 82.000,84.917 82.000 C 85.102 82.000,85.167 82.194,85.167 82.750 C 85.167 83.306,85.231 83.500,85.417 83.500 C 85.583 83.500,85.667 83.667,85.667 84.000 C 85.667 84.333,85.750 84.500,85.917 84.500 C 86.102 84.500,86.167 84.694,86.167 85.250 C 86.167 85.806,86.231 86.000,86.417 86.000 C 86.583 86.000,86.667 86.167,86.667 86.500 C 86.667 86.833,86.750 87.000,86.917 87.000 C 87.102 87.000,87.167 87.194,87.167 87.750 C 87.167 88.306,87.231 88.500,87.417 88.500 C 87.583 88.500,87.667 88.667,87.667 89.000 C 87.667 89.333,87.750 89.500,87.917 89.500 C 88.102 89.500,88.167 89.694,88.167 90.250 C 88.167 90.806,88.231 91.000,88.417 91.000 C 88.583 91.000,88.667 91.167,88.667 91.500 C 88.667 91.833,88.750 92.000,88.917 92.000 C 89.081 92.000,89.167 92.165,89.167 92.482 C 89.167 92.757,89.274 93.006,89.417 93.060 C 89.580 93.123,89.667 93.383,89.667 93.810 C 89.667 94.238,89.753 94.498,89.917 94.560 C 90.054 94.613,90.167 94.848,90.167 95.083 C 90.167 95.318,90.279 95.554,90.417 95.606 C 90.578 95.668,90.667 95.926,90.667 96.333 C 90.667 96.740,90.755 96.998,90.917 97.060 C 91.063 97.116,91.167 97.366,91.167 97.661 C 91.167 97.999,91.249 98.167,91.417 98.167 C 91.554 98.167,91.667 98.279,91.667 98.417 C 91.667 98.637,93.259 98.667,104.997 98.667 L 118.327 98.667 118.432 98.249 C 118.561 97.735,118.377 96.667,118.159 96.667 C 118.072 96.667,118.000 96.522,118.000 96.345 C 118.000 96.168,117.897 95.920,117.770 95.794 C 117.644 95.667,117.487 95.250,117.422 94.865 C 117.349 94.430,117.215 94.167,117.069 94.167 C 116.918 94.167,116.833 93.986,116.833 93.667 C 116.833 93.333,116.750 93.167,116.583 93.167 C 116.417 93.167,116.333 93.000,116.333 92.667 C 116.333 92.333,116.250 92.167,116.083 92.167 C 115.898 92.167,115.833 91.972,115.833 91.417 C 115.833 90.861,115.769 90.667,115.583 90.667 C 115.419 90.667,115.333 90.502,115.333 90.184 C 115.333 89.910,115.226 89.661,115.083 89.606 C 114.937 89.550,114.833 89.301,114.833 89.005 C 114.833 88.667,114.751 88.500,114.583 88.500 C 114.404 88.500,114.333 88.317,114.333 87.851 C 114.333 87.428,114.246 87.169,114.083 87.106 C 113.946 87.054,113.833 86.818,113.833 86.583 C 113.833 86.348,113.721 86.113,113.583 86.060 C 113.441 86.006,113.333 85.757,113.333 85.482 C 113.333 85.165,113.248 85.000,113.083 85.000 C 112.902 85.000,112.833 84.814,112.833 84.328 C 112.833 83.885,112.748 83.624,112.583 83.560 C 112.441 83.506,112.333 83.257,112.333 82.982 C 112.333 82.665,112.248 82.500,112.083 82.500 C 111.917 82.500,111.833 82.333,111.833 82.000 C 111.833 81.667,111.750 81.500,111.583 81.500 C 111.402 81.500,111.333 81.314,111.333 80.828 C 111.333 80.385,111.248 80.124,111.083 80.060 C 110.941 80.006,110.833 79.757,110.833 79.482 C 110.833 79.165,110.748 79.000,110.583 79.000 C 110.417 79.000,110.333 78.833,110.333 78.500 C 110.333 78.167,110.250 78.000,110.083 78.000 C 109.898 78.000,109.833 77.806,109.833 77.250 C 109.833 76.694,109.769 76.500,109.583 76.500 C 109.417 76.500,109.333 76.333,109.333 76.000 C 109.333 75.667,109.250 75.500,109.083 75.500 C 108.917 75.500,108.833 75.333,108.833 75.000 C 108.833 74.667,108.750 74.500,108.583 74.500 C 108.398 74.500,108.333 74.306,108.333 73.750 C 108.333 73.194,108.269 73.000,108.083 73.000 C 107.916 73.000,107.833 72.833,107.833 72.495 C 107.833 72.199,107.729 71.950,107.583 71.894 C 107.428 71.834,107.333 71.581,107.333 71.227 C 107.333 70.873,107.238 70.620,107.083 70.560 C 106.940 70.505,106.833 70.256,106.833 69.977 C 106.833 69.697,106.727 69.449,106.583 69.394 C 106.446 69.341,106.333 69.116,106.333 68.894 C 106.333 68.671,106.221 68.446,106.083 68.394 C 105.932 68.335,105.833 68.083,105.833 67.753 C 105.833 67.453,105.721 67.114,105.583 67.000 C 105.446 66.886,105.333 66.612,105.333 66.391 C 105.333 66.170,105.221 65.946,105.083 65.894 C 104.941 65.839,104.833 65.590,104.833 65.316 C 104.833 64.998,104.748 64.833,104.583 64.833 C 104.410 64.833,104.333 64.659,104.333 64.262 C 104.333 63.948,104.221 63.578,104.083 63.440 C 103.946 63.303,103.833 63.033,103.833 62.840 C 103.833 62.647,103.721 62.446,103.583 62.394 C 103.441 62.339,103.333 62.090,103.333 61.816 C 103.333 61.519,103.246 61.333,103.105 61.333 C 102.963 61.333,102.842 61.068,102.783 60.629 C 102.731 60.241,102.608 59.897,102.511 59.865 C 102.413 59.832,102.333 59.622,102.333 59.398 C 102.333 59.173,102.221 58.946,102.083 58.894 C 101.946 58.841,101.833 58.622,101.833 58.407 C 101.833 58.192,101.732 57.957,101.609 57.883 C 101.485 57.810,101.338 57.456,101.281 57.097 C 101.225 56.738,101.107 56.399,101.019 56.345 C 100.931 56.291,100.808 56.041,100.745 55.790 C 100.682 55.539,100.526 55.333,100.399 55.333 C 100.251 55.333,100.167 55.149,100.167 54.828 C 100.167 54.533,100.063 54.283,99.917 54.227 C 99.755 54.165,99.667 53.907,99.667 53.500 C 99.667 53.093,99.578 52.835,99.417 52.773 C 99.271 52.717,99.167 52.467,99.167 52.172 C 99.167 51.834,99.084 51.667,98.917 51.667 C 98.750 51.667,98.667 51.500,98.667 51.167 C 98.667 50.833,98.583 50.667,98.417 50.667 C 98.231 50.667,98.167 50.472,98.167 49.917 C 98.167 49.361,98.102 49.167,97.917 49.167 C 97.750 49.167,97.667 49.000,97.667 48.667 C 97.667 48.333,97.583 48.167,97.417 48.167 C 97.236 48.167,97.167 47.981,97.167 47.495 C 97.167 47.051,97.082 46.790,96.917 46.727 C 96.774 46.672,96.667 46.424,96.667 46.149 C 96.667 45.831,96.581 45.667,96.417 45.667 C 96.250 45.667,96.167 45.500,96.167 45.167 C 96.167 44.833,96.083 44.667,95.917 44.667 C 95.736 44.667,95.667 44.481,95.667 43.995 C 95.667 43.551,95.582 43.290,95.417 43.227 C 95.274 43.172,95.167 42.924,95.167 42.649 C 95.167 42.331,95.081 42.167,94.917 42.167 C 94.750 42.167,94.667 42.000,94.667 41.667 C 94.667 41.333,94.583 41.167,94.417 41.167 C 94.236 41.167,94.167 40.981,94.167 40.495 C 94.167 40.051,94.082 39.790,93.917 39.727 C 93.774 39.672,93.667 39.424,93.667 39.149 C 93.667 38.831,93.581 38.667,93.417 38.667 C 93.250 38.667,93.167 38.500,93.167 38.167 C 93.167 37.833,93.083 37.667,92.917 37.667 C 92.736 37.667,92.667 37.481,92.667 36.995 C 92.667 36.551,92.582 36.290,92.417 36.227 C 92.277 36.173,92.167 35.926,92.167 35.667 C 92.167 35.408,92.056 35.160,91.917 35.106 C 91.779 35.054,91.667 34.818,91.667 34.583 C 91.667 34.348,91.554 34.113,91.417 34.060 C 91.255 33.998,91.167 33.740,91.167 33.333 C 91.167 32.926,91.078 32.668,90.917 32.606 C 90.779 32.554,90.667 32.318,90.667 32.083 C 90.667 31.848,90.554 31.613,90.417 31.560 C 90.274 31.506,90.167 31.257,90.167 30.982 C 90.167 30.665,90.081 30.500,89.917 30.500 C 89.736 30.500,89.667 30.314,89.667 29.828 C 89.667 29.385,89.582 29.124,89.417 29.060 C 89.274 29.006,89.167 28.757,89.167 28.482 C 89.167 28.165,89.081 28.000,88.917 28.000 C 88.750 28.000,88.667 27.833,88.667 27.500 C 88.667 27.167,88.583 27.000,88.417 27.000 C 88.236 27.000,88.167 26.814,88.167 26.328 C 88.167 25.885,88.082 25.624,87.917 25.560 C 87.774 25.506,87.667 25.257,87.667 24.982 C 87.667 24.685,87.579 24.500,87.439 24.500 C 87.297 24.500,87.175 24.234,87.116 23.795 C 87.064 23.408,86.942 23.064,86.844 23.031 C 86.747 22.999,86.667 22.789,86.667 22.564 C 86.667 22.340,86.554 22.113,86.417 22.060 C 86.279 22.008,86.167 21.789,86.167 21.574 C 86.167 21.359,86.066 21.123,85.942 21.050 C 85.818 20.977,85.671 20.623,85.615 20.263 C 85.558 19.904,85.440 19.566,85.352 19.512 C 85.265 19.458,85.142 19.208,85.078 18.957 C 85.015 18.705,84.897 18.500,84.815 18.500 C 84.734 18.500,84.667 18.322,84.667 18.104 C 84.667 17.886,84.560 17.619,84.430 17.511 C 84.299 17.403,84.144 17.024,84.084 16.670 C 84.024 16.316,83.868 15.985,83.738 15.935 C 83.607 15.885,83.500 15.652,83.500 15.417 C 83.500 15.182,83.387 14.946,83.250 14.894 C 83.107 14.839,83.000 14.590,83.000 14.316 C 83.000 13.998,82.915 13.833,82.750 13.833 C 82.569 13.833,82.500 13.648,82.500 13.161 C 82.500 12.718,82.415 12.457,82.250 12.394 C 82.107 12.339,82.000 12.090,82.000 11.816 C 82.000 11.498,81.915 11.333,81.750 11.333 C 81.612 11.333,81.500 11.221,81.500 11.083 C 81.500 10.831,80.829 10.726,80.611 10.944 M156.625 34.112 C 156.465 34.155,156.333 34.261,156.333 34.346 C 156.333 34.430,155.918 34.500,155.411 34.500 C 154.746 34.500,154.463 34.569,154.394 34.750 C 154.335 34.903,154.082 35.000,153.744 35.000 C 153.440 35.000,153.091 35.100,152.969 35.222 C 152.847 35.344,152.454 35.491,152.095 35.549 C 151.737 35.607,151.399 35.727,151.345 35.814 C 151.291 35.902,151.041 36.025,150.790 36.088 C 150.539 36.151,150.333 36.307,150.333 36.435 C 150.333 36.581,150.149 36.667,149.833 36.667 C 149.500 36.667,149.333 36.750,149.333 36.917 C 149.333 37.083,149.167 37.167,148.833 37.167 C 148.500 37.167,148.333 37.250,148.333 37.417 C 148.333 37.556,148.185 37.667,148.000 37.667 C 147.815 37.667,147.667 37.778,147.667 37.917 C 147.667 38.072,147.509 38.167,147.250 38.167 C 146.991 38.167,146.833 38.261,146.833 38.417 C 146.833 38.556,146.685 38.667,146.500 38.667 C 146.315 38.667,146.167 38.778,146.167 38.917 C 146.167 39.054,146.054 39.167,145.917 39.167 C 145.779 39.167,145.667 39.279,145.667 39.417 C 145.667 39.554,145.554 39.667,145.417 39.667 C 145.279 39.667,145.167 39.779,145.167 39.917 C 145.167 40.054,145.054 40.167,144.917 40.167 C 144.779 40.167,144.667 40.279,144.667 40.417 C 144.667 40.554,144.554 40.667,144.417 40.667 C 144.279 40.667,144.167 40.779,144.167 40.917 C 144.167 41.054,144.054 41.167,143.917 41.167 C 143.779 41.167,143.667 41.279,143.667 41.417 C 143.667 41.554,143.554 41.667,143.417 41.667 C 143.279 41.667,143.167 41.779,143.167 41.917 C 143.167 42.054,143.054 42.167,142.917 42.167 C 142.779 42.167,142.667 42.279,142.667 42.417 C 142.667 42.554,142.554 42.667,142.417 42.667 C 142.202 42.667,142.167 42.157,142.167 39.083 L 142.167 35.500 132.583 35.500 L 123.000 35.500 123.000 67.083 L 123.000 98.667 132.833 98.667 L 142.667 98.667 142.667 80.518 C 142.667 64.539,142.697 62.358,142.917 62.273 C 143.113 62.198,143.167 61.856,143.167 60.672 C 143.167 59.445,143.213 59.167,143.417 59.167 C 143.602 59.167,143.667 58.972,143.667 58.417 C 143.667 57.861,143.731 57.667,143.917 57.667 C 144.098 57.667,144.167 57.481,144.167 56.995 C 144.167 56.551,144.252 56.290,144.417 56.227 C 144.554 56.174,144.667 56.027,144.667 55.899 C 144.667 55.771,144.779 55.667,144.917 55.667 C 145.083 55.667,145.167 55.500,145.167 55.167 C 145.167 54.833,145.250 54.667,145.417 54.667 C 145.554 54.667,145.667 54.554,145.667 54.417 C 145.667 54.279,145.779 54.167,145.917 54.167 C 146.054 54.167,146.167 54.054,146.167 53.917 C 146.167 53.779,146.279 53.667,146.417 53.667 C 146.554 53.667,146.667 53.554,146.667 53.417 C 146.667 53.279,146.779 53.167,146.917 53.167 C 147.054 53.167,147.167 53.054,147.167 52.917 C 147.167 52.779,147.279 52.667,147.417 52.667 C 147.554 52.667,147.667 52.554,147.667 52.417 C 147.667 52.279,147.779 52.167,147.917 52.167 C 148.054 52.167,148.167 52.054,148.167 51.917 C 148.167 51.750,148.333 51.667,148.667 51.667 C 149.000 51.667,149.167 51.583,149.167 51.417 C 149.167 51.250,149.333 51.167,149.667 51.167 C 150.000 51.167,150.167 51.083,150.167 50.917 C 150.167 50.749,150.334 50.667,150.672 50.667 C 150.967 50.667,151.217 50.563,151.273 50.417 C 151.345 50.228,151.650 50.167,152.518 50.167 C 153.428 50.167,153.667 50.115,153.667 49.917 C 153.667 49.710,153.981 49.667,155.500 49.667 C 157.019 49.667,157.333 49.710,157.333 49.917 C 157.333 50.111,157.556 50.167,158.333 50.167 C 159.111 50.167,159.333 50.222,159.333 50.417 C 159.333 50.583,159.500 50.667,159.833 50.667 C 160.167 50.667,160.333 50.750,160.333 50.917 C 160.333 51.054,160.438 51.167,160.566 51.167 C 160.693 51.167,160.841 51.279,160.894 51.417 C 160.946 51.554,161.179 51.667,161.411 51.667 C 161.675 51.667,161.833 51.760,161.833 51.917 C 161.833 52.054,161.946 52.167,162.083 52.167 C 162.221 52.167,162.333 52.311,162.333 52.488 C 162.333 52.665,162.446 52.922,162.583 53.060 C 162.721 53.197,162.833 53.390,162.833 53.488 C 162.833 53.586,162.936 53.667,163.061 53.667 C 163.203 53.667,163.325 53.932,163.384 54.371 C 163.436 54.759,163.558 55.103,163.656 55.135 C 163.753 55.168,163.833 55.484,163.833 55.839 C 163.833 56.222,163.929 56.538,164.070 56.617 C 164.251 56.719,164.319 57.270,164.361 58.965 C 164.400 60.501,164.480 61.219,164.624 61.307 C 164.788 61.408,164.841 65.402,164.874 80.009 L 164.917 98.583 174.656 98.626 C 182.337 98.660,184.423 98.625,184.528 98.460 C 184.799 98.033,184.695 53.767,184.422 53.407 C 184.286 53.227,184.174 52.714,184.170 52.250 C 184.159 50.983,183.986 50.167,183.728 50.167 C 183.560 50.167,183.500 49.902,183.500 49.167 C 183.500 48.389,183.444 48.167,183.250 48.167 C 183.065 48.167,183.000 47.972,183.000 47.417 C 183.000 46.861,182.935 46.667,182.750 46.667 C 182.569 46.667,182.500 46.481,182.500 45.995 C 182.500 45.551,182.415 45.290,182.250 45.227 C 182.107 45.172,182.000 44.924,182.000 44.649 C 182.000 44.331,181.915 44.167,181.750 44.167 C 181.583 44.167,181.500 44.000,181.500 43.667 C 181.500 43.333,181.417 43.167,181.250 43.167 C 181.112 43.167,181.000 43.054,181.000 42.917 C 181.000 42.779,180.887 42.667,180.750 42.667 C 180.583 42.667,180.500 42.500,180.500 42.167 C 180.500 41.833,180.417 41.667,180.250 41.667 C 180.112 41.667,180.000 41.554,180.000 41.417 C 180.000 41.279,179.887 41.167,179.750 41.167 C 179.583 41.167,179.500 41.000,179.500 40.667 C 179.500 40.333,179.417 40.167,179.250 40.167 C 179.112 40.167,179.000 40.054,179.000 39.917 C 179.000 39.779,178.887 39.667,178.750 39.667 C 178.612 39.667,178.500 39.554,178.500 39.417 C 178.500 39.279,178.387 39.167,178.250 39.167 C 178.112 39.167,178.000 39.054,178.000 38.917 C 178.000 38.779,177.887 38.667,177.750 38.667 C 177.612 38.667,177.500 38.554,177.500 38.417 C 177.500 38.250,177.333 38.167,177.000 38.167 C 176.667 38.167,176.500 38.083,176.500 37.917 C 176.500 37.779,176.387 37.667,176.250 37.667 C 176.112 37.667,176.000 37.554,176.000 37.417 C 176.000 37.250,175.833 37.167,175.500 37.167 C 175.167 37.167,175.000 37.083,175.000 36.917 C 175.000 36.779,174.887 36.667,174.750 36.667 C 174.612 36.667,174.500 36.597,174.500 36.512 C 174.500 36.326,172.799 35.500,172.415 35.500 C 172.265 35.500,172.030 35.387,171.893 35.250 C 171.755 35.112,171.418 35.000,171.143 35.000 C 170.868 35.000,170.530 34.887,170.393 34.750 C 170.233 34.590,169.822 34.500,169.252 34.500 C 168.687 34.500,168.336 34.424,168.292 34.292 C 168.223 34.085,157.342 33.917,156.625 34.112 M215.560 34.250 C 215.488 34.438,215.184 34.500,214.327 34.500 C 213.539 34.500,213.114 34.577,212.940 34.750 C 212.792 34.898,212.385 35.000,211.940 35.000 C 211.528 35.000,211.091 35.100,210.969 35.222 C 210.847 35.344,210.454 35.491,210.095 35.549 C 209.737 35.607,209.400 35.723,209.347 35.807 C 209.294 35.891,208.931 36.012,208.542 36.078 C 208.099 36.152,207.833 36.284,207.833 36.431 C 207.833 36.582,207.653 36.667,207.333 36.667 C 207.000 36.667,206.833 36.750,206.833 36.917 C 206.833 37.083,206.667 37.167,206.333 37.167 C 206.000 37.167,205.833 37.250,205.833 37.417 C 205.833 37.583,205.667 37.667,205.333 37.667 C 205.000 37.667,204.833 37.750,204.833 37.917 C 204.833 38.083,204.667 38.167,204.333 38.167 C 204.000 38.167,203.833 38.250,203.833 38.417 C 203.833 38.554,203.721 38.667,203.583 38.667 C 203.446 38.667,203.333 38.779,203.333 38.917 C 203.333 39.083,203.167 39.167,202.833 39.167 C 202.500 39.167,202.333 39.250,202.333 39.417 C 202.333 39.554,202.221 39.667,202.083 39.667 C 201.946 39.667,201.833 39.779,201.833 39.917 C 201.833 40.054,201.721 40.167,201.583 40.167 C 201.446 40.167,201.333 40.279,201.333 40.417 C 201.333 40.554,201.221 40.667,201.083 40.667 C 200.946 40.667,200.833 40.779,200.833 40.917 C 200.833 41.054,200.721 41.167,200.583 41.167 C 200.446 41.167,200.333 41.279,200.333 41.417 C 200.333 41.554,200.221 41.667,200.083 41.667 C 199.946 41.667,199.833 41.779,199.833 41.917 C 199.833 42.054,199.747 42.167,199.642 42.167 C 199.346 42.167,197.848 43.802,197.736 44.247 C 197.681 44.464,197.531 44.683,197.402 44.733 C 197.272 44.782,197.167 45.013,197.167 45.245 C 197.167 45.509,197.073 45.667,196.917 45.667 C 196.750 45.667,196.667 45.833,196.667 46.167 C 196.667 46.500,196.583 46.667,196.417 46.667 C 196.252 46.667,196.167 46.831,196.167 47.149 C 196.167 47.424,196.059 47.672,195.917 47.727 C 195.753 47.790,195.667 48.049,195.667 48.474 C 195.667 48.850,195.561 49.214,195.417 49.333 C 195.205 49.509,195.167 50.270,195.167 54.276 C 195.167 58.331,195.203 59.024,195.417 59.106 C 195.587 59.172,195.667 59.438,195.667 59.940 C 195.667 60.441,195.747 60.708,195.917 60.773 C 196.054 60.826,196.167 61.047,196.167 61.265 C 196.167 61.743,197.149 63.671,197.452 63.787 C 197.570 63.832,197.667 64.011,197.667 64.184 C 197.667 64.513,199.355 66.333,199.659 66.333 C 199.755 66.333,199.833 66.446,199.833 66.583 C 199.833 66.721,199.946 66.833,200.083 66.833 C 200.221 66.833,200.333 66.946,200.333 67.083 C 200.333 67.221,200.446 67.333,200.583 67.333 C 200.721 67.333,200.833 67.446,200.833 67.583 C 200.833 67.750,201.000 67.833,201.333 67.833 C 201.667 67.833,201.833 67.917,201.833 68.083 C 201.833 68.221,201.946 68.333,202.083 68.333 C 202.221 68.333,202.333 68.446,202.333 68.583 C 202.333 68.750,202.500 68.833,202.833 68.833 C 203.167 68.833,203.333 68.917,203.333 69.083 C 203.333 69.250,203.500 69.333,203.833 69.333 C 204.167 69.333,204.333 69.417,204.333 69.583 C 204.333 69.750,204.500 69.833,204.833 69.833 C 205.167 69.833,205.333 69.917,205.333 70.083 C 205.333 70.248,205.498 70.333,205.816 70.333 C 206.090 70.333,206.339 70.441,206.394 70.583 C 206.457 70.748,206.718 70.833,207.161 70.833 C 207.648 70.833,207.833 70.902,207.833 71.083 C 207.833 71.268,208.026 71.333,208.566 71.333 C 209.063 71.333,209.328 71.414,209.394 71.583 C 209.463 71.764,209.746 71.833,210.411 71.833 C 211.120 71.833,211.333 71.891,211.333 72.083 C 211.333 72.280,211.565 72.333,212.417 72.333 C 213.269 72.333,213.500 72.387,213.500 72.583 C 213.500 72.783,213.750 72.833,214.750 72.833 C 215.750 72.833,216.000 72.883,216.000 73.083 C 216.000 73.278,216.222 73.333,217.000 73.333 C 217.778 73.333,218.000 73.389,218.000 73.583 C 218.000 73.783,218.250 73.833,219.250 73.833 C 220.199 73.833,220.500 73.888,220.500 74.063 C 220.500 74.299,221.192 74.500,222.007 74.500 C 222.263 74.500,222.498 74.576,222.529 74.670 C 222.560 74.763,222.997 74.887,223.501 74.945 C 224.005 75.003,224.465 75.125,224.524 75.215 C 224.583 75.305,225.033 75.416,225.524 75.462 C 226.023 75.509,226.475 75.645,226.550 75.773 C 226.623 75.898,226.835 76.000,227.020 76.000 C 227.206 76.000,227.470 76.113,227.607 76.250 C 227.745 76.388,228.002 76.500,228.179 76.500 C 228.355 76.500,228.500 76.577,228.500 76.672 C 228.500 76.766,228.631 76.893,228.792 76.954 C 229.173 77.098,230.000 77.923,230.000 78.159 C 230.000 78.261,230.112 78.387,230.250 78.440 C 230.446 78.515,230.500 78.854,230.500 80.018 C 230.500 81.224,230.453 81.500,230.250 81.500 C 230.112 81.500,230.000 81.612,230.000 81.750 C 230.000 81.887,229.925 82.000,229.833 82.000 C 229.742 82.000,229.667 82.112,229.667 82.250 C 229.667 82.387,229.589 82.500,229.494 82.500 C 229.400 82.500,229.102 82.725,228.833 83.000 C 228.565 83.275,228.200 83.500,228.023 83.500 C 227.847 83.500,227.659 83.612,227.606 83.750 C 227.554 83.887,227.318 84.000,227.083 84.000 C 226.848 84.000,226.613 84.112,226.560 84.250 C 226.488 84.439,226.182 84.500,225.310 84.500 C 224.438 84.500,224.133 84.561,224.060 84.750 C 223.917 85.122,218.583 85.122,218.440 84.750 C 218.363 84.550,217.995 84.500,216.589 84.500 C 215.139 84.500,214.833 84.456,214.833 84.250 C 214.833 84.056,214.613 84.000,213.851 84.000 C 213.132 84.000,212.843 83.933,212.773 83.750 C 212.704 83.569,212.421 83.500,211.755 83.500 C 211.047 83.500,210.833 83.442,210.833 83.250 C 210.833 83.066,210.641 83.000,210.101 83.000 C 209.604 83.000,209.338 82.920,209.273 82.750 C 209.210 82.587,208.951 82.500,208.523 82.500 C 208.095 82.500,207.836 82.413,207.773 82.250 C 207.710 82.085,207.449 82.000,207.005 82.000 C 206.519 82.000,206.333 81.931,206.333 81.750 C 206.333 81.585,206.169 81.500,205.851 81.500 C 205.576 81.500,205.328 81.393,205.273 81.250 C 205.220 81.112,204.985 81.000,204.750 81.000 C 204.515 81.000,204.280 80.887,204.227 80.750 C 204.172 80.607,203.924 80.500,203.649 80.500 C 203.331 80.500,203.167 80.415,203.167 80.250 C 203.167 80.094,203.009 80.000,202.745 80.000 C 202.513 80.000,202.280 79.887,202.227 79.750 C 202.174 79.612,201.949 79.500,201.727 79.500 C 201.505 79.500,201.280 79.387,201.227 79.250 C 201.172 79.107,200.924 79.000,200.649 79.000 C 200.331 79.000,200.167 78.915,200.167 78.750 C 200.167 78.612,200.054 78.500,199.917 78.500 C 199.779 78.500,199.667 78.387,199.667 78.250 C 199.667 78.056,199.444 78.000,198.667 78.000 L 197.667 78.000 197.667 78.500 C 197.667 78.833,197.583 79.000,197.417 79.000 C 197.252 79.000,197.167 79.165,197.167 79.486 C 197.167 79.753,197.090 79.998,196.996 80.029 C 196.902 80.060,196.778 80.385,196.721 80.751 C 196.663 81.117,196.515 81.477,196.391 81.550 C 196.263 81.626,196.167 81.966,196.167 82.342 C 196.167 82.816,196.097 83.000,195.917 83.000 C 195.752 83.000,195.667 83.165,195.667 83.482 C 195.667 83.757,195.559 84.006,195.417 84.060 C 195.253 84.123,195.167 84.383,195.167 84.810 C 195.167 85.238,195.080 85.498,194.917 85.560 C 194.779 85.613,194.667 85.837,194.667 86.058 C 194.667 86.279,194.554 86.553,194.417 86.667 C 194.279 86.781,194.167 87.119,194.167 87.419 C 194.167 87.750,194.068 88.002,193.917 88.060 C 193.753 88.123,193.667 88.383,193.667 88.810 C 193.667 89.238,193.580 89.498,193.417 89.560 C 193.271 89.616,193.167 89.866,193.167 90.161 C 193.167 90.508,193.085 90.667,192.907 90.667 C 192.381 90.667,192.668 91.907,193.208 91.969 C 193.471 92.000,193.667 92.124,193.667 92.261 C 193.667 92.392,193.779 92.500,193.917 92.500 C 194.054 92.500,194.167 92.612,194.167 92.750 C 194.167 92.888,194.305 93.000,194.474 93.000 C 194.644 93.000,194.955 93.150,195.167 93.333 C 195.378 93.517,195.682 93.667,195.841 93.667 C 196.001 93.667,196.174 93.779,196.227 93.917 C 196.280 94.054,196.438 94.167,196.578 94.167 C 196.718 94.167,196.833 94.234,196.833 94.315 C 196.833 94.397,197.030 94.513,197.270 94.573 C 197.510 94.634,197.816 94.792,197.949 94.925 C 198.082 95.058,198.412 95.167,198.684 95.167 C 198.969 95.167,199.218 95.272,199.273 95.417 C 199.328 95.559,199.576 95.667,199.851 95.667 C 200.169 95.667,200.333 95.752,200.333 95.917 C 200.333 96.102,200.528 96.167,201.083 96.167 C 201.639 96.167,201.833 96.231,201.833 96.417 C 201.833 96.602,202.028 96.667,202.583 96.667 C 203.139 96.667,203.333 96.731,203.333 96.917 C 203.333 97.102,203.528 97.167,204.083 97.167 C 204.639 97.167,204.833 97.231,204.833 97.417 C 204.833 97.611,205.056 97.667,205.833 97.667 C 206.611 97.667,206.833 97.722,206.833 97.917 C 206.833 98.111,207.054 98.167,207.816 98.167 C 208.535 98.167,208.823 98.234,208.894 98.417 C 208.968 98.611,209.299 98.667,210.391 98.667 C 211.433 98.667,211.846 98.731,212.000 98.917 C 212.168 99.120,212.703 99.167,214.836 99.167 C 217.019 99.167,217.481 99.209,217.560 99.417 C 217.641 99.628,218.209 99.667,221.250 99.667 C 224.291 99.667,224.859 99.628,224.940 99.417 C 225.018 99.212,225.437 99.167,227.268 99.167 C 229.141 99.167,229.500 99.126,229.500 98.917 C 229.500 98.714,229.769 98.667,230.922 98.667 C 232.032 98.667,232.365 98.612,232.440 98.417 C 232.505 98.247,232.771 98.167,233.268 98.167 C 233.808 98.167,234.000 98.101,234.000 97.917 C 234.000 97.731,234.195 97.667,234.755 97.667 C 235.273 97.667,235.541 97.588,235.606 97.417 C 235.668 97.255,235.926 97.167,236.333 97.167 C 236.740 97.167,236.998 97.078,237.060 96.917 C 237.113 96.779,237.348 96.667,237.583 96.667 C 237.818 96.667,238.054 96.554,238.106 96.417 C 238.159 96.279,238.384 96.167,238.606 96.167 C 238.829 96.167,239.054 96.054,239.106 95.917 C 239.159 95.779,239.342 95.667,239.512 95.667 C 239.682 95.667,240.052 95.442,240.333 95.167 C 240.615 94.892,240.965 94.667,241.111 94.667 C 241.258 94.667,241.747 94.292,242.198 93.833 C 242.649 93.375,243.164 93.000,243.343 93.000 C 243.521 93.000,243.667 92.888,243.667 92.750 C 243.667 92.612,243.779 92.500,243.917 92.500 C 244.054 92.500,244.167 92.388,244.167 92.250 C 244.167 92.112,244.279 92.000,244.417 92.000 C 244.554 92.000,244.667 91.888,244.667 91.750 C 244.667 91.612,244.779 91.500,244.917 91.500 C 245.083 91.500,245.167 91.333,245.167 91.000 C 245.167 90.667,245.250 90.500,245.417 90.500 C 245.554 90.500,245.667 90.388,245.667 90.250 C 245.667 90.112,245.779 90.000,245.917 90.000 C 246.083 90.000,246.167 89.833,246.167 89.500 C 246.167 89.167,246.250 89.000,246.417 89.000 C 246.554 89.000,246.667 88.888,246.667 88.750 C 246.667 88.612,246.779 88.500,246.917 88.500 C 247.102 88.500,247.167 88.306,247.167 87.750 C 247.167 87.194,247.231 87.000,247.417 87.000 C 247.583 87.000,247.667 86.833,247.667 86.500 C 247.667 86.167,247.750 86.000,247.917 86.000 C 248.117 86.000,248.167 85.750,248.167 84.750 C 248.167 83.750,248.217 83.500,248.417 83.500 C 248.632 83.500,248.667 82.944,248.667 79.500 C 248.667 76.056,248.632 75.500,248.417 75.500 C 248.222 75.500,248.167 75.278,248.167 74.500 C 248.167 73.722,248.111 73.500,247.917 73.500 C 247.732 73.500,247.667 73.308,247.667 72.768 C 247.667 72.271,247.586 72.005,247.417 71.940 C 247.279 71.887,247.167 71.662,247.167 71.440 C 247.167 71.217,247.054 70.992,246.917 70.940 C 246.779 70.887,246.667 70.662,246.667 70.440 C 246.667 70.217,246.554 69.992,246.417 69.940 C 246.279 69.887,246.167 69.729,246.167 69.589 C 246.167 69.448,246.054 69.333,245.917 69.333 C 245.771 69.333,245.664 69.177,245.660 68.958 C 245.656 68.752,245.431 68.399,245.160 68.174 C 244.888 67.950,244.667 67.668,244.667 67.549 C 244.667 67.431,244.554 67.333,244.417 67.333 C 244.279 67.333,244.167 67.221,244.167 67.083 C 244.167 66.946,244.062 66.833,243.934 66.833 C 243.807 66.833,243.659 66.721,243.606 66.583 C 243.554 66.446,243.321 66.333,243.089 66.333 C 242.825 66.333,242.667 66.240,242.667 66.083 C 242.667 65.946,242.554 65.833,242.417 65.833 C 242.279 65.833,242.167 65.721,242.167 65.583 C 242.167 65.446,242.062 65.333,241.934 65.333 C 241.807 65.333,241.659 65.221,241.606 65.083 C 241.554 64.946,241.321 64.833,241.089 64.833 C 240.825 64.833,240.667 64.740,240.667 64.583 C 240.667 64.417,240.500 64.333,240.167 64.333 C 239.833 64.333,239.667 64.250,239.667 64.083 C 239.667 63.917,239.500 63.833,239.167 63.833 C 238.833 63.833,238.667 63.750,238.667 63.583 C 238.667 63.419,238.502 63.333,238.184 63.333 C 237.910 63.333,237.661 63.226,237.606 63.083 C 237.544 62.920,237.284 62.833,236.856 62.833 C 236.429 62.833,236.169 62.747,236.106 62.583 C 236.043 62.418,235.781 62.333,235.333 62.333 C 234.885 62.333,234.624 62.249,234.560 62.083 C 234.495 61.914,234.229 61.833,233.732 61.833 C 233.192 61.833,233.000 61.768,233.000 61.583 C 233.000 61.389,232.778 61.333,232.000 61.333 C 231.222 61.333,231.000 61.278,231.000 61.083 C 231.000 60.889,230.778 60.833,230.000 60.833 C 229.222 60.833,229.000 60.778,229.000 60.583 C 229.000 60.383,228.750 60.333,227.750 60.333 C 226.750 60.333,226.500 60.283,226.500 60.083 C 226.500 59.889,226.278 59.833,225.500 59.833 C 224.722 59.833,224.500 59.778,224.500 59.583 C 224.500 59.389,224.280 59.333,223.518 59.333 C 222.799 59.333,222.510 59.266,222.440 59.083 C 222.367 58.894,222.060 58.833,221.172 58.833 C 220.241 58.833,220.000 58.782,220.000 58.583 C 220.000 58.394,219.796 58.333,219.167 58.333 C 218.537 58.333,218.333 58.272,218.333 58.083 C 218.333 57.898,218.139 57.833,217.583 57.833 C 217.028 57.833,216.833 57.769,216.833 57.583 C 216.833 57.417,216.667 57.333,216.333 57.333 C 216.000 57.333,215.833 57.250,215.833 57.083 C 215.833 56.917,215.667 56.833,215.333 56.833 C 215.000 56.833,214.833 56.750,214.833 56.583 C 214.833 56.446,214.721 56.333,214.583 56.333 C 214.446 56.333,214.333 56.221,214.333 56.083 C 214.333 55.946,214.221 55.833,214.083 55.833 C 213.946 55.833,213.833 55.721,213.833 55.583 C 213.833 55.446,213.721 55.333,213.583 55.333 C 213.379 55.333,213.333 55.046,213.333 53.750 C 213.333 52.454,213.379 52.167,213.583 52.167 C 213.750 52.167,213.833 52.000,213.833 51.667 C 213.833 51.333,213.917 51.167,214.083 51.167 C 214.221 51.167,214.333 51.054,214.333 50.917 C 214.333 50.779,214.446 50.667,214.583 50.667 C 214.721 50.667,214.833 50.554,214.833 50.417 C 214.833 50.250,215.000 50.167,215.333 50.167 C 215.667 50.167,215.833 50.083,215.833 49.917 C 215.833 49.779,215.946 49.667,216.083 49.667 C 216.221 49.667,216.333 49.554,216.333 49.417 C 216.333 49.231,216.528 49.167,217.083 49.167 C 217.639 49.167,217.833 49.102,217.833 48.917 C 217.833 48.712,218.120 48.667,219.417 48.667 C 220.713 48.667,221.000 48.621,221.000 48.417 C 221.000 48.217,221.250 48.167,222.250 48.167 C 223.250 48.167,223.500 48.217,223.500 48.417 C 223.500 48.623,223.804 48.667,225.232 48.667 C 226.618 48.667,226.984 48.717,227.060 48.917 C 227.133 49.106,227.440 49.167,228.328 49.167 C 229.259 49.167,229.500 49.218,229.500 49.417 C 229.500 49.601,229.692 49.667,230.232 49.667 C 230.729 49.667,230.995 49.747,231.060 49.917 C 231.124 50.082,231.385 50.167,231.833 50.167 C 232.281 50.167,232.543 50.251,232.606 50.417 C 232.661 50.559,232.910 50.667,233.184 50.667 C 233.502 50.667,233.667 50.752,233.667 50.917 C 233.667 51.083,233.833 51.167,234.167 51.167 C 234.500 51.167,234.667 51.250,234.667 51.417 C 234.667 51.583,234.833 51.667,235.167 51.667 C 235.500 51.667,235.667 51.750,235.667 51.917 C 235.667 52.083,235.833 52.167,236.167 52.167 C 236.500 52.167,236.667 52.250,236.667 52.417 C 236.667 52.583,236.833 52.667,237.167 52.667 C 237.500 52.667,237.667 52.750,237.667 52.917 C 237.667 53.083,237.833 53.167,238.167 53.167 C 238.500 53.167,238.667 53.250,238.667 53.417 C 238.667 53.554,238.779 53.667,238.917 53.667 C 239.054 53.667,239.167 53.779,239.167 53.917 C 239.167 54.083,239.333 54.167,239.667 54.167 C 240.000 54.167,240.167 54.250,240.167 54.417 C 240.167 54.554,240.271 54.667,240.399 54.667 C 240.527 54.667,240.674 54.779,240.727 54.917 C 240.790 55.082,241.051 55.167,241.495 55.167 C 241.981 55.167,242.167 55.098,242.167 54.917 C 242.167 54.779,242.279 54.667,242.417 54.667 C 242.602 54.667,242.667 54.472,242.667 53.917 C 242.667 53.361,242.731 53.167,242.917 53.167 C 243.083 53.167,243.167 53.000,243.167 52.667 C 243.167 52.333,243.250 52.167,243.417 52.167 C 243.602 52.167,243.667 51.972,243.667 51.417 C 243.667 50.861,243.731 50.667,243.917 50.667 C 244.083 50.667,244.167 50.500,244.167 50.167 C 244.167 49.833,244.250 49.667,244.417 49.667 C 244.602 49.667,244.667 49.472,244.667 48.917 C 244.667 48.361,244.731 48.167,244.917 48.167 C 245.083 48.167,245.167 48.000,245.167 47.667 C 245.167 47.333,245.250 47.167,245.417 47.167 C 245.602 47.167,245.667 46.972,245.667 46.417 C 245.667 45.861,245.731 45.667,245.917 45.667 C 246.083 45.667,246.167 45.500,246.167 45.167 C 246.167 44.833,246.250 44.667,246.417 44.667 C 246.602 44.667,246.667 44.472,246.667 43.917 C 246.667 43.361,246.731 43.167,246.917 43.167 C 247.111 43.167,247.167 42.944,247.167 42.167 L 247.167 41.167 246.667 41.167 C 246.333 41.167,246.167 41.083,246.167 40.917 C 246.167 40.779,246.054 40.667,245.917 40.667 C 245.779 40.667,245.667 40.554,245.667 40.417 C 245.667 40.250,245.500 40.167,245.167 40.167 C 244.833 40.167,244.667 40.083,244.667 39.917 C 244.667 39.750,244.500 39.667,244.167 39.667 C 243.833 39.667,243.667 39.583,243.667 39.417 C 243.667 39.279,243.562 39.167,243.434 39.167 C 243.307 39.167,243.159 39.054,243.106 38.917 C 243.054 38.779,242.829 38.667,242.606 38.667 C 242.384 38.667,242.159 38.554,242.106 38.417 C 242.054 38.279,241.829 38.167,241.606 38.167 C 241.384 38.167,241.159 38.054,241.106 37.917 C 241.043 37.752,240.782 37.667,240.339 37.667 C 239.852 37.667,239.667 37.598,239.667 37.417 C 239.667 37.250,239.500 37.167,239.167 37.167 C 238.833 37.167,238.667 37.083,238.667 36.917 C 238.667 36.731,238.472 36.667,237.917 36.667 C 237.382 36.667,237.167 36.599,237.167 36.431 C 237.167 36.284,236.901 36.151,236.458 36.077 C 236.069 36.012,235.602 35.855,235.421 35.729 C 235.240 35.603,234.879 35.500,234.618 35.500 C 234.357 35.500,234.030 35.387,233.893 35.250 C 233.739 35.097,233.331 35.000,232.835 35.000 C 232.343 35.000,232.001 34.920,231.959 34.794 C 231.914 34.660,231.405 34.567,230.487 34.526 C 229.516 34.483,229.042 34.392,228.950 34.232 C 228.743 33.871,215.699 33.888,215.560 34.250 M342.774 34.250 C 342.603 34.421,342.181 34.500,341.437 34.500 C 340.695 34.500,340.308 34.572,340.217 34.727 C 340.142 34.855,339.686 34.992,339.174 35.040 C 338.673 35.086,338.236 35.209,338.201 35.312 C 338.167 35.415,337.888 35.500,337.581 35.500 C 337.275 35.500,336.920 35.603,336.794 35.730 C 336.667 35.856,336.250 36.013,335.865 36.078 C 335.430 36.151,335.167 36.285,335.167 36.431 C 335.167 36.582,334.986 36.667,334.667 36.667 C 334.333 36.667,334.167 36.750,334.167 36.917 C 334.167 37.083,334.000 37.167,333.667 37.167 C 333.333 37.167,333.167 37.250,333.167 37.417 C 333.167 37.583,333.000 37.667,332.667 37.667 C 332.333 37.667,332.167 37.750,332.167 37.917 C 332.167 38.083,332.000 38.167,331.667 38.167 C 331.333 38.167,331.167 38.250,331.167 38.417 C 331.167 38.556,331.019 38.667,330.833 38.667 C 330.648 38.667,330.500 38.778,330.500 38.917 C 330.500 39.072,330.343 39.167,330.083 39.167 C 329.824 39.167,329.667 39.261,329.667 39.417 C 329.667 39.556,329.519 39.667,329.333 39.667 C 329.148 39.667,329.000 39.778,329.000 39.917 C 329.000 40.054,328.887 40.167,328.750 40.167 C 328.612 40.167,328.500 40.279,328.500 40.417 C 328.500 40.554,328.387 40.667,328.250 40.667 C 328.112 40.667,328.000 40.779,328.000 40.917 C 328.000 41.054,327.887 41.167,327.750 41.167 C 327.612 41.167,327.500 41.279,327.500 41.417 C 327.500 41.554,327.387 41.667,327.250 41.667 C 327.112 41.667,327.000 41.779,327.000 41.917 C 327.000 42.054,326.887 42.167,326.750 42.167 C 326.612 42.167,326.500 42.279,326.500 42.417 C 326.500 42.554,326.387 42.667,326.250 42.667 C 326.112 42.667,326.000 42.779,326.000 42.917 C 326.000 43.054,325.887 43.167,325.750 43.167 C 325.612 43.167,325.500 43.271,325.500 43.399 C 325.500 43.527,325.387 43.674,325.250 43.727 C 325.112 43.780,325.000 44.013,325.000 44.245 C 325.000 44.509,324.906 44.667,324.750 44.667 C 324.583 44.667,324.500 44.833,324.500 45.167 C 324.500 45.500,324.417 45.667,324.250 45.667 C 324.083 45.667,324.000 45.833,324.000 46.167 C 324.000 46.500,323.917 46.667,323.750 46.667 C 323.585 46.667,323.500 46.831,323.500 47.149 C 323.500 47.424,323.393 47.672,323.250 47.727 C 323.069 47.796,323.000 48.079,323.000 48.745 C 323.000 49.453,322.942 49.667,322.750 49.667 C 322.534 49.667,322.500 50.278,322.500 54.172 C 322.500 58.023,322.536 58.691,322.750 58.773 C 322.930 58.842,323.000 59.123,323.000 59.773 C 323.000 60.423,323.070 60.704,323.250 60.773 C 323.413 60.836,323.500 61.095,323.500 61.523 C 323.500 61.951,323.587 62.210,323.750 62.273 C 323.887 62.326,324.000 62.551,324.000 62.773 C 324.000 62.995,324.112 63.220,324.250 63.273 C 324.387 63.326,324.500 63.473,324.500 63.601 C 324.500 63.729,324.612 63.833,324.750 63.833 C 324.906 63.833,325.000 63.991,325.000 64.255 C 325.000 64.487,325.112 64.720,325.250 64.773 C 325.387 64.826,325.500 64.973,325.500 65.101 C 325.500 65.229,325.612 65.333,325.750 65.333 C 325.887 65.333,326.000 65.446,326.000 65.583 C 326.000 65.721,326.112 65.833,326.250 65.833 C 326.387 65.833,326.500 65.946,326.500 66.083 C 326.500 66.221,326.612 66.333,326.750 66.333 C 326.887 66.333,327.000 66.446,327.000 66.583 C 327.000 66.721,327.112 66.833,327.250 66.833 C 327.387 66.833,327.500 66.946,327.500 67.083 C 327.500 67.221,327.615 67.333,327.755 67.333 C 327.896 67.333,328.054 67.446,328.106 67.583 C 328.159 67.721,328.382 67.833,328.601 67.833 C 328.845 67.833,329.000 67.931,329.000 68.083 C 329.000 68.222,329.148 68.333,329.333 68.333 C 329.519 68.333,329.667 68.444,329.667 68.583 C 329.667 68.736,329.822 68.833,330.066 68.833 C 330.285 68.833,330.508 68.946,330.560 69.083 C 330.613 69.221,330.838 69.333,331.060 69.333 C 331.283 69.333,331.508 69.446,331.560 69.583 C 331.616 69.729,331.866 69.833,332.161 69.833 C 332.499 69.833,332.667 69.916,332.667 70.083 C 332.667 70.250,332.833 70.333,333.167 70.333 C 333.500 70.333,333.667 70.417,333.667 70.583 C 333.667 70.769,333.861 70.833,334.417 70.833 C 334.972 70.833,335.167 70.898,335.167 71.083 C 335.167 71.269,335.361 71.333,335.917 71.333 C 336.472 71.333,336.667 71.398,336.667 71.583 C 336.667 71.778,336.889 71.833,337.667 71.833 C 338.444 71.833,338.667 71.889,338.667 72.083 C 338.667 72.277,338.887 72.333,339.649 72.333 C 340.368 72.333,340.657 72.400,340.727 72.583 C 340.800 72.773,341.107 72.833,341.995 72.833 C 342.925 72.833,343.167 72.885,343.167 73.083 C 343.167 73.278,343.389 73.333,344.172 73.333 C 344.912 73.333,345.202 73.399,345.273 73.583 C 345.345 73.772,345.650 73.833,346.518 73.833 C 347.379 73.833,347.667 73.890,347.667 74.062 C 347.667 74.288,348.467 74.494,349.361 74.498 C 349.606 74.499,349.831 74.576,349.862 74.670 C 349.893 74.763,350.331 74.887,350.834 74.945 C 351.338 75.003,351.798 75.125,351.857 75.215 C 351.916 75.305,352.366 75.416,352.857 75.462 C 353.357 75.509,353.809 75.645,353.883 75.773 C 353.957 75.898,354.200 76.000,354.425 76.000 C 354.650 76.000,354.833 76.074,354.833 76.163 C 354.833 76.253,355.039 76.379,355.290 76.442 C 355.541 76.505,355.847 76.656,355.969 76.778 C 356.091 76.900,356.335 77.000,356.512 77.000 C 356.724 77.000,356.833 77.115,356.833 77.339 C 356.833 77.525,357.058 77.898,357.333 78.167 C 357.921 78.742,358.128 81.500,357.583 81.500 C 357.446 81.500,357.333 81.572,357.333 81.661 C 357.333 81.871,356.204 83.000,355.994 83.000 C 355.906 83.000,355.833 83.112,355.833 83.250 C 355.833 83.406,355.675 83.500,355.411 83.500 C 355.179 83.500,354.946 83.612,354.894 83.750 C 354.839 83.893,354.590 84.000,354.316 84.000 C 353.998 84.000,353.833 84.085,353.833 84.250 C 353.833 84.449,353.592 84.500,352.661 84.500 C 351.773 84.500,351.466 84.561,351.394 84.750 C 351.314 84.959,350.831 85.000,348.482 85.000 C 346.091 85.000,345.667 84.962,345.667 84.750 C 345.667 84.544,345.361 84.500,343.917 84.500 C 342.472 84.500,342.167 84.456,342.167 84.250 C 342.167 84.055,341.944 84.000,341.161 84.000 C 340.422 84.000,340.131 83.934,340.060 83.750 C 339.992 83.571,339.713 83.500,339.083 83.500 C 338.454 83.500,338.175 83.429,338.106 83.250 C 338.041 83.079,337.773 83.000,337.255 83.000 C 336.695 83.000,336.500 82.935,336.500 82.750 C 336.500 82.565,336.306 82.500,335.750 82.500 C 335.194 82.500,335.000 82.435,335.000 82.250 C 335.000 82.065,334.806 82.000,334.250 82.000 C 333.694 82.000,333.500 81.935,333.500 81.750 C 333.500 81.583,333.333 81.500,333.000 81.500 C 332.667 81.500,332.500 81.417,332.500 81.250 C 332.500 81.083,332.333 81.000,332.000 81.000 C 331.667 81.000,331.500 80.917,331.500 80.750 C 331.500 80.583,331.333 80.500,331.000 80.500 C 330.667 80.500,330.500 80.417,330.500 80.250 C 330.500 80.083,330.333 80.000,330.000 80.000 C 329.667 80.000,329.500 79.917,329.500 79.750 C 329.500 79.583,329.333 79.500,329.000 79.500 C 328.667 79.500,328.500 79.417,328.500 79.250 C 328.500 79.083,328.333 79.000,328.000 79.000 C 327.667 79.000,327.500 78.917,327.500 78.750 C 327.500 78.612,327.387 78.500,327.250 78.500 C 327.112 78.500,327.000 78.387,327.000 78.250 C 327.000 78.056,326.778 78.000,326.000 78.000 L 325.000 78.000 325.000 78.500 C 325.000 78.833,324.917 79.000,324.750 79.000 C 324.565 79.000,324.500 79.194,324.500 79.750 C 324.500 80.306,324.435 80.500,324.250 80.500 C 324.083 80.500,324.000 80.667,324.000 81.000 C 324.000 81.333,323.917 81.500,323.750 81.500 C 323.565 81.500,323.500 81.694,323.500 82.250 C 323.500 82.806,323.435 83.000,323.250 83.000 C 323.085 83.000,323.000 83.165,323.000 83.482 C 323.000 83.757,322.893 84.006,322.750 84.060 C 322.585 84.124,322.500 84.385,322.500 84.828 C 322.500 85.314,322.431 85.500,322.250 85.500 C 322.083 85.500,322.000 85.667,322.000 86.005 C 322.000 86.301,321.896 86.550,321.750 86.606 C 321.589 86.668,321.500 86.926,321.500 87.333 C 321.500 87.740,321.411 87.998,321.250 88.060 C 321.087 88.123,321.000 88.383,321.000 88.810 C 321.000 89.238,320.913 89.498,320.750 89.560 C 320.604 89.616,320.500 89.866,320.500 90.161 C 320.500 90.499,320.417 90.667,320.250 90.667 C 320.069 90.667,320.000 90.852,320.000 91.333 C 320.000 91.963,320.028 92.000,320.500 92.000 C 320.833 92.000,321.000 92.083,321.000 92.250 C 321.000 92.388,321.112 92.500,321.250 92.500 C 321.387 92.500,321.500 92.607,321.500 92.737 C 321.500 92.867,321.725 93.023,322.000 93.083 C 322.275 93.144,322.500 93.261,322.500 93.343 C 322.500 93.426,322.702 93.544,322.949 93.606 C 323.196 93.668,323.552 93.884,323.741 94.086 C 323.929 94.288,324.271 94.512,324.500 94.583 C 324.729 94.654,325.065 94.814,325.245 94.939 C 325.426 95.064,325.774 95.167,326.019 95.167 C 326.264 95.167,326.508 95.279,326.560 95.417 C 326.613 95.554,326.838 95.667,327.060 95.667 C 327.283 95.667,327.508 95.779,327.560 95.917 C 327.623 96.080,327.883 96.167,328.310 96.167 C 328.738 96.167,328.998 96.253,329.060 96.417 C 329.123 96.580,329.383 96.667,329.810 96.667 C 330.238 96.667,330.498 96.753,330.560 96.917 C 330.626 97.088,330.894 97.167,331.411 97.167 C 331.972 97.167,332.167 97.231,332.167 97.417 C 332.167 97.611,332.389 97.667,333.167 97.667 C 333.944 97.667,334.167 97.722,334.167 97.917 C 334.167 98.111,334.387 98.167,335.149 98.167 C 335.868 98.167,336.157 98.234,336.227 98.417 C 336.302 98.612,336.633 98.667,337.727 98.667 C 338.821 98.667,339.152 98.722,339.227 98.917 C 339.307 99.124,339.771 99.167,341.974 99.167 C 344.128 99.167,344.665 99.214,344.833 99.417 C 345.006 99.625,345.638 99.667,348.586 99.667 C 351.583 99.667,352.146 99.628,352.227 99.417 C 352.306 99.211,352.735 99.167,354.650 99.167 C 356.495 99.167,357.028 99.115,357.226 98.917 C 357.393 98.750,357.810 98.667,358.476 98.667 C 359.143 98.667,359.560 98.583,359.726 98.417 C 359.867 98.276,360.274 98.167,360.655 98.167 C 361.147 98.167,361.333 98.098,361.333 97.917 C 361.333 97.731,361.528 97.667,362.083 97.667 C 362.639 97.667,362.833 97.602,362.833 97.417 C 362.833 97.236,363.019 97.167,363.505 97.167 C 363.949 97.167,364.210 97.082,364.273 96.917 C 364.328 96.774,364.576 96.667,364.851 96.667 C 365.169 96.667,365.333 96.581,365.333 96.417 C 365.333 96.250,365.500 96.167,365.833 96.167 C 366.167 96.167,366.333 96.083,366.333 95.917 C 366.333 95.760,366.491 95.667,366.755 95.667 C 366.987 95.667,367.218 95.561,367.267 95.432 C 367.317 95.302,367.541 95.151,367.765 95.094 C 368.151 94.998,368.496 94.750,369.466 93.875 C 369.695 93.669,369.941 93.500,370.014 93.500 C 370.317 93.500,372.500 91.167,372.500 90.844 C 372.500 90.649,372.609 90.500,372.750 90.500 C 372.887 90.500,373.000 90.388,373.000 90.250 C 373.000 90.112,373.113 90.000,373.250 90.000 C 373.417 90.000,373.500 89.833,373.500 89.500 C 373.500 89.167,373.583 89.000,373.750 89.000 C 373.887 89.000,374.000 88.896,374.000 88.768 C 374.000 88.640,374.113 88.492,374.250 88.440 C 374.387 88.387,374.500 88.162,374.500 87.940 C 374.500 87.717,374.613 87.492,374.750 87.440 C 374.915 87.376,375.000 87.115,375.000 86.672 C 375.000 86.186,375.069 86.000,375.250 86.000 C 375.444 86.000,375.500 85.778,375.500 85.000 C 375.500 84.222,375.556 84.000,375.750 84.000 C 375.966 84.000,376.000 83.417,376.000 79.750 C 376.000 76.083,375.966 75.500,375.750 75.500 C 375.556 75.500,375.500 75.278,375.500 74.500 C 375.500 73.722,375.444 73.500,375.250 73.500 C 375.065 73.500,375.000 73.306,375.000 72.750 C 375.000 72.194,374.935 72.000,374.750 72.000 C 374.583 72.000,374.500 71.833,374.500 71.495 C 374.500 71.199,374.396 70.950,374.250 70.894 C 374.113 70.841,374.000 70.616,374.000 70.394 C 374.000 70.171,373.887 69.946,373.750 69.894 C 373.613 69.841,373.500 69.693,373.500 69.566 C 373.500 69.438,373.387 69.333,373.250 69.333 C 373.113 69.333,373.000 69.197,373.000 69.030 C 373.000 68.717,371.361 66.839,371.077 66.826 C 370.989 66.822,370.733 66.597,370.508 66.326 C 370.283 66.055,369.972 65.833,369.817 65.833 C 369.662 65.833,369.492 65.721,369.440 65.583 C 369.387 65.446,369.237 65.333,369.106 65.333 C 368.976 65.333,368.826 65.221,368.773 65.083 C 368.720 64.946,368.522 64.833,368.333 64.833 C 368.144 64.833,367.946 64.721,367.894 64.583 C 367.839 64.441,367.590 64.333,367.316 64.333 C 366.998 64.333,366.833 64.248,366.833 64.083 C 366.833 63.917,366.667 63.833,366.333 63.833 C 366.000 63.833,365.833 63.750,365.833 63.583 C 365.833 63.417,365.667 63.333,365.333 63.333 C 365.000 63.333,364.833 63.250,364.833 63.083 C 364.833 62.898,364.639 62.833,364.083 62.833 C 363.528 62.833,363.333 62.769,363.333 62.583 C 363.333 62.398,363.139 62.333,362.583 62.333 C 362.028 62.333,361.833 62.269,361.833 62.083 C 361.833 61.898,361.639 61.833,361.083 61.833 C 360.528 61.833,360.333 61.769,360.333 61.583 C 360.333 61.389,360.111 61.333,359.333 61.333 C 358.556 61.333,358.333 61.278,358.333 61.083 C 358.333 60.889,358.113 60.833,357.351 60.833 C 356.632 60.833,356.343 60.766,356.273 60.583 C 356.204 60.403,355.920 60.333,355.250 60.333 C 354.580 60.333,354.296 60.264,354.227 60.083 C 354.154 59.894,353.849 59.833,352.977 59.833 C 352.105 59.833,351.799 59.772,351.727 59.583 C 351.657 59.400,351.368 59.333,350.649 59.333 C 349.887 59.333,349.667 59.277,349.667 59.083 C 349.667 58.883,349.417 58.833,348.417 58.833 C 347.417 58.833,347.167 58.783,347.167 58.583 C 347.167 58.398,346.972 58.333,346.417 58.333 C 345.861 58.333,345.667 58.269,345.667 58.083 C 345.667 57.898,345.472 57.833,344.917 57.833 C 344.361 57.833,344.167 57.769,344.167 57.583 C 344.167 57.417,344.000 57.333,343.667 57.333 C 343.333 57.333,343.167 57.250,343.167 57.083 C 343.167 56.917,343.000 56.833,342.667 56.833 C 342.333 56.833,342.167 56.750,342.167 56.583 C 342.167 56.446,342.054 56.333,341.917 56.333 C 341.779 56.333,341.667 56.221,341.667 56.083 C 341.667 55.946,341.554 55.833,341.417 55.833 C 341.279 55.833,341.167 55.721,341.167 55.583 C 341.167 55.446,341.054 55.333,340.917 55.333 C 340.712 55.333,340.667 55.046,340.667 53.750 C 340.667 52.454,340.712 52.167,340.917 52.167 C 341.083 52.167,341.167 52.000,341.167 51.667 C 341.167 51.333,341.250 51.167,341.417 51.167 C 341.554 51.167,341.667 51.054,341.667 50.917 C 341.667 50.779,341.779 50.667,341.917 50.667 C 342.054 50.667,342.167 50.554,342.167 50.417 C 342.167 50.260,342.325 50.167,342.589 50.167 C 342.821 50.167,343.054 50.054,343.106 49.917 C 343.159 49.779,343.307 49.667,343.434 49.667 C 343.562 49.667,343.667 49.554,343.667 49.417 C 343.667 49.231,343.861 49.167,344.417 49.167 C 344.972 49.167,345.167 49.102,345.167 48.917 C 345.167 48.713,345.444 48.667,346.667 48.667 C 347.889 48.667,348.167 48.620,348.167 48.417 C 348.167 48.215,348.426 48.167,349.500 48.167 C 350.574 48.167,350.833 48.215,350.833 48.417 C 350.833 48.623,351.137 48.667,352.566 48.667 C 353.951 48.667,354.317 48.717,354.394 48.917 C 354.466 49.106,354.773 49.167,355.661 49.167 C 356.592 49.167,356.833 49.218,356.833 49.417 C 356.833 49.602,357.028 49.667,357.583 49.667 C 358.139 49.667,358.333 49.731,358.333 49.917 C 358.333 50.102,358.528 50.167,359.083 50.167 C 359.639 50.167,359.833 50.231,359.833 50.417 C 359.833 50.581,359.998 50.667,360.316 50.667 C 360.590 50.667,360.839 50.774,360.894 50.917 C 360.946 51.054,361.182 51.167,361.417 51.167 C 361.652 51.167,361.887 51.279,361.940 51.417 C 361.994 51.559,362.243 51.667,362.518 51.667 C 362.835 51.667,363.000 51.752,363.000 51.917 C 363.000 52.083,363.167 52.167,363.500 52.167 C 363.833 52.167,364.000 52.250,364.000 52.417 C 364.000 52.583,364.167 52.667,364.500 52.667 C 364.833 52.667,365.000 52.750,365.000 52.917 C 365.000 53.073,365.158 53.167,365.422 53.167 C 365.654 53.167,365.887 53.279,365.940 53.417 C 365.992 53.554,366.140 53.667,366.268 53.667 C 366.396 53.667,366.500 53.779,366.500 53.917 C 366.500 54.083,366.667 54.167,367.000 54.167 C 367.333 54.167,367.500 54.250,367.500 54.417 C 367.500 54.554,367.613 54.667,367.750 54.667 C 367.887 54.667,368.000 54.779,368.000 54.917 C 368.000 55.102,368.194 55.167,368.750 55.167 C 369.280 55.167,369.500 55.099,369.500 54.934 C 369.500 54.807,369.613 54.659,369.750 54.606 C 369.915 54.543,370.000 54.282,370.000 53.839 C 370.000 53.352,370.069 53.167,370.250 53.167 C 370.415 53.167,370.500 53.002,370.500 52.684 C 370.500 52.410,370.607 52.161,370.750 52.106 C 370.915 52.043,371.000 51.782,371.000 51.339 C 371.000 50.852,371.069 50.667,371.250 50.667 C 371.415 50.667,371.500 50.502,371.500 50.184 C 371.500 49.910,371.607 49.661,371.750 49.606 C 371.915 49.543,372.000 49.282,372.000 48.839 C 372.000 48.352,372.069 48.167,372.250 48.167 C 372.415 48.167,372.500 48.002,372.500 47.684 C 372.500 47.410,372.607 47.161,372.750 47.106 C 372.915 47.043,373.000 46.782,373.000 46.339 C 373.000 45.852,373.069 45.667,373.250 45.667 C 373.415 45.667,373.500 45.502,373.500 45.184 C 373.500 44.910,373.607 44.661,373.750 44.606 C 373.915 44.543,374.000 44.282,374.000 43.839 C 374.000 43.343,374.068 43.167,374.258 43.167 C 374.799 43.167,374.509 41.261,373.958 41.197 C 373.696 41.167,373.500 41.042,373.500 40.906 C 373.500 40.774,373.396 40.667,373.268 40.667 C 373.140 40.667,372.992 40.554,372.940 40.417 C 372.887 40.279,372.654 40.167,372.422 40.167 C 372.158 40.167,372.000 40.073,372.000 39.917 C 372.000 39.750,371.833 39.667,371.500 39.667 C 371.167 39.667,371.000 39.583,371.000 39.417 C 371.000 39.278,370.852 39.167,370.667 39.167 C 370.481 39.167,370.333 39.056,370.333 38.917 C 370.333 38.750,370.167 38.667,369.833 38.667 C 369.500 38.667,369.333 38.583,369.333 38.417 C 369.333 38.250,369.167 38.167,368.833 38.167 C 368.500 38.167,368.333 38.083,368.333 37.917 C 368.333 37.731,368.139 37.667,367.583 37.667 C 367.028 37.667,366.833 37.602,366.833 37.417 C 366.833 37.250,366.667 37.167,366.333 37.167 C 366.000 37.167,365.833 37.083,365.833 36.917 C 365.833 36.731,365.639 36.667,365.083 36.667 C 364.553 36.667,364.333 36.599,364.333 36.434 C 364.333 36.164,363.978 36.000,363.391 36.000 C 363.163 36.000,362.864 35.887,362.726 35.750 C 362.589 35.612,362.225 35.500,361.919 35.500 C 361.612 35.500,361.333 35.415,361.299 35.312 C 361.264 35.209,360.829 35.085,360.331 35.037 C 359.834 34.990,359.325 34.849,359.201 34.725 C 359.051 34.574,358.546 34.500,357.673 34.500 C 356.668 34.500,356.347 34.443,356.273 34.250 C 356.190 34.034,355.293 34.000,349.600 34.000 C 343.977 34.000,342.988 34.036,342.774 34.250 M252.333 36.500 C 252.333 37.278,252.389 37.500,252.583 37.500 C 252.748 37.500,252.833 37.665,252.833 37.982 C 252.833 38.257,252.941 38.506,253.083 38.560 C 253.248 38.624,253.333 38.885,253.333 39.328 C 253.333 39.814,253.402 40.000,253.583 40.000 C 253.751 40.000,253.833 40.167,253.833 40.505 C 253.833 40.801,253.937 41.050,254.083 41.106 C 254.226 41.161,254.333 41.410,254.333 41.684 C 254.333 42.002,254.419 42.167,254.583 42.167 C 254.764 42.167,254.833 42.352,254.833 42.839 C 254.833 43.282,254.918 43.543,255.083 43.606 C 255.226 43.661,255.333 43.910,255.333 44.184 C 255.333 44.502,255.419 44.667,255.583 44.667 C 255.764 44.667,255.833 44.852,255.833 45.339 C 255.833 45.782,255.918 46.043,256.083 46.106 C 256.226 46.161,256.333 46.410,256.333 46.684 C 256.333 47.002,256.419 47.167,256.583 47.167 C 256.764 47.167,256.833 47.352,256.833 47.839 C 256.833 48.282,256.918 48.543,257.083 48.606 C 257.226 48.661,257.333 48.910,257.333 49.184 C 257.333 49.502,257.419 49.667,257.583 49.667 C 257.764 49.667,257.833 49.852,257.833 50.339 C 257.833 50.782,257.918 51.043,258.083 51.106 C 258.226 51.161,258.333 51.410,258.333 51.684 C 258.333 52.002,258.419 52.167,258.583 52.167 C 258.750 52.167,258.833 52.333,258.833 52.667 C 258.833 53.000,258.917 53.167,259.083 53.167 C 259.269 53.167,259.333 53.361,259.333 53.917 C 259.333 54.472,259.398 54.667,259.583 54.667 C 259.750 54.667,259.833 54.833,259.833 55.167 C 259.833 55.500,259.917 55.667,260.083 55.667 C 260.264 55.667,260.333 55.852,260.333 56.339 C 260.333 56.782,260.418 57.043,260.583 57.106 C 260.727 57.161,260.833 57.410,260.833 57.690 C 260.833 57.969,260.940 58.218,261.083 58.273 C 261.238 58.332,261.333 58.586,261.333 58.940 C 261.333 59.293,261.428 59.547,261.583 59.606 C 261.727 59.661,261.833 59.910,261.833 60.190 C 261.833 60.469,261.940 60.718,262.083 60.773 C 262.221 60.826,262.333 61.051,262.333 61.273 C 262.333 61.495,262.446 61.720,262.583 61.773 C 262.747 61.836,262.833 62.095,262.833 62.523 C 262.833 62.951,262.920 63.210,263.083 63.273 C 263.221 63.326,263.333 63.551,263.333 63.773 C 263.333 63.995,263.446 64.220,263.583 64.273 C 263.736 64.332,263.833 64.584,263.833 64.923 C 263.833 65.227,263.946 65.589,264.083 65.726 C 264.221 65.864,264.333 66.128,264.333 66.313 C 264.333 66.498,264.434 66.710,264.558 66.783 C 264.682 66.857,264.829 67.211,264.885 67.570 C 264.942 67.929,265.054 68.267,265.135 68.320 C 265.216 68.373,265.332 68.623,265.394 68.875 C 265.456 69.127,265.575 69.333,265.660 69.333 C 265.744 69.333,265.864 69.671,265.925 70.083 C 265.996 70.558,266.123 70.833,266.269 70.833 C 266.415 70.833,266.500 71.018,266.500 71.333 C 266.500 71.667,266.583 71.833,266.750 71.833 C 266.917 71.833,267.000 72.000,267.000 72.333 C 267.000 72.667,267.083 72.833,267.250 72.833 C 267.435 72.833,267.500 73.028,267.500 73.583 C 267.500 74.139,267.565 74.333,267.750 74.333 C 267.917 74.333,268.000 74.501,268.000 74.839 C 268.000 75.134,268.104 75.384,268.250 75.440 C 268.413 75.502,268.500 75.762,268.500 76.190 C 268.500 76.617,268.587 76.877,268.750 76.940 C 268.893 76.994,269.000 77.243,269.000 77.518 C 269.000 77.835,269.085 78.000,269.250 78.000 C 269.429 78.000,269.500 78.183,269.500 78.649 C 269.500 79.072,269.587 79.331,269.750 79.394 C 269.896 79.450,270.000 79.699,270.000 79.995 C 270.000 80.333,270.083 80.500,270.250 80.500 C 270.431 80.500,270.500 80.686,270.500 81.172 C 270.500 81.615,270.585 81.876,270.750 81.940 C 270.893 81.994,271.000 82.243,271.000 82.518 C 271.000 82.835,271.085 83.000,271.250 83.000 C 271.417 83.000,271.500 83.167,271.500 83.500 C 271.500 83.833,271.583 84.000,271.750 84.000 C 271.935 84.000,272.000 84.194,272.000 84.750 C 272.000 85.306,272.065 85.500,272.250 85.500 C 272.417 85.500,272.500 85.667,272.500 86.000 C 272.500 86.333,272.583 86.500,272.750 86.500 C 272.931 86.500,273.000 86.686,273.000 87.172 C 273.000 87.615,273.085 87.876,273.250 87.940 C 273.393 87.994,273.500 88.243,273.500 88.518 C 273.500 88.835,273.585 89.000,273.750 89.000 C 273.931 89.000,274.000 89.186,274.000 89.672 C 274.000 90.115,274.085 90.376,274.250 90.440 C 274.393 90.494,274.500 90.743,274.500 91.018 C 274.500 91.335,274.585 91.500,274.750 91.500 C 274.917 91.500,275.000 91.667,275.000 92.000 C 275.000 92.333,275.083 92.500,275.250 92.500 C 275.435 92.500,275.500 92.694,275.500 93.250 C 275.500 93.806,275.565 94.000,275.750 94.000 C 275.939 94.000,276.000 94.204,276.000 94.833 C 276.000 95.463,275.939 95.667,275.750 95.667 C 275.565 95.667,275.500 95.861,275.500 96.417 C 275.500 96.972,275.435 97.167,275.250 97.167 C 275.083 97.167,275.000 97.333,275.000 97.667 C 275.000 98.000,274.917 98.167,274.750 98.167 C 274.565 98.167,274.500 98.361,274.500 98.917 C 274.500 99.472,274.435 99.667,274.250 99.667 C 274.083 99.667,274.000 99.833,274.000 100.167 C 274.000 100.500,273.917 100.667,273.750 100.667 C 273.585 100.667,273.500 100.831,273.500 101.149 C 273.500 101.424,273.393 101.672,273.250 101.727 C 273.085 101.790,273.000 102.051,273.000 102.495 C 273.000 102.981,272.931 103.167,272.750 103.167 C 272.585 103.167,272.500 103.331,272.500 103.649 C 272.500 103.924,272.393 104.172,272.250 104.227 C 272.085 104.290,272.000 104.551,272.000 104.995 C 272.000 105.481,271.931 105.667,271.750 105.667 C 271.585 105.667,271.500 105.831,271.500 106.149 C 271.500 106.424,271.393 106.672,271.250 106.727 C 271.085 106.790,271.000 107.051,271.000 107.495 C 271.000 107.981,270.931 108.167,270.750 108.167 C 270.575 108.167,270.500 108.343,270.500 108.750 C 270.500 109.157,270.425 109.333,270.250 109.333 C 270.083 109.333,270.000 109.500,270.000 109.833 C 270.000 110.167,269.917 110.333,269.750 110.333 C 269.565 110.333,269.500 110.528,269.500 111.083 C 269.500 111.639,269.435 111.833,269.250 111.833 C 269.083 111.833,269.000 112.000,269.000 112.333 C 269.000 112.667,268.917 112.833,268.750 112.833 C 268.565 112.833,268.500 113.028,268.500 113.583 C 268.500 114.139,268.435 114.333,268.250 114.333 C 268.083 114.333,268.000 114.500,268.000 114.833 C 268.000 115.167,267.917 115.333,267.750 115.333 C 267.565 115.333,267.500 115.528,267.500 116.083 C 267.500 116.639,267.435 116.833,267.250 116.833 C 267.083 116.833,267.000 117.000,267.000 117.333 C 267.000 117.667,266.917 117.833,266.750 117.833 C 266.565 117.833,266.500 118.028,266.500 118.583 C 266.500 119.135,266.435 119.333,266.253 119.333 C 265.956 119.333,265.789 119.913,265.863 120.685 L 265.917 121.250 275.410 121.293 L 284.904 121.336 285.285 120.892 C 285.495 120.648,285.669 120.329,285.672 120.182 C 285.675 120.036,285.787 119.771,285.922 119.593 C 286.057 119.415,286.167 119.067,286.167 118.819 C 286.167 118.572,286.279 118.326,286.417 118.273 C 286.554 118.220,286.669 118.006,286.672 117.797 C 286.675 117.588,286.787 117.271,286.922 117.093 C 287.057 116.915,287.167 116.567,287.167 116.319 C 287.167 116.072,287.279 115.826,287.417 115.773 C 287.554 115.720,287.667 115.495,287.667 115.273 C 287.667 115.051,287.779 114.826,287.917 114.773 C 288.080 114.710,288.167 114.451,288.167 114.023 C 288.167 113.595,288.253 113.336,288.417 113.273 C 288.563 113.217,288.667 112.967,288.667 112.672 C 288.667 112.334,288.749 112.167,288.917 112.167 C 289.102 112.167,289.167 111.972,289.167 111.417 C 289.167 110.861,289.231 110.667,289.417 110.667 C 289.583 110.667,289.667 110.500,289.667 110.167 C 289.667 109.833,289.750 109.667,289.917 109.667 C 290.081 109.667,290.167 109.502,290.167 109.184 C 290.167 108.910,290.274 108.661,290.417 108.606 C 290.582 108.543,290.667 108.282,290.667 107.839 C 290.667 107.352,290.736 107.167,290.917 107.167 C 291.081 107.167,291.167 107.002,291.167 106.684 C 291.167 106.410,291.274 106.161,291.417 106.106 C 291.582 106.043,291.667 105.782,291.667 105.339 C 291.667 104.852,291.736 104.667,291.917 104.667 C 292.083 104.667,292.167 104.500,292.167 104.167 C 292.167 103.833,292.250 103.667,292.417 103.667 C 292.602 103.667,292.667 103.472,292.667 102.917 C 292.667 102.361,292.731 102.167,292.917 102.167 C 293.083 102.167,293.167 102.000,293.167 101.667 C 293.167 101.333,293.250 101.167,293.417 101.167 C 293.602 101.167,293.667 100.972,293.667 100.417 C 293.667 99.861,293.731 99.667,293.917 99.667 C 294.083 99.667,294.167 99.500,294.167 99.167 C 294.167 98.833,294.250 98.667,294.417 98.667 C 294.584 98.667,294.667 98.499,294.667 98.161 C 294.667 97.866,294.771 97.616,294.917 97.560 C 295.080 97.498,295.167 97.238,295.167 96.816 C 295.167 96.350,295.237 96.167,295.417 96.167 C 295.591 96.167,295.667 95.991,295.667 95.583 C 295.667 95.176,295.742 95.000,295.917 95.000 C 296.096 95.000,296.167 94.817,296.167 94.351 C 296.167 93.928,296.254 93.669,296.417 93.606 C 296.563 93.550,296.667 93.301,296.667 93.005 C 296.667 92.667,296.749 92.500,296.917 92.500 C 297.102 92.500,297.167 92.306,297.167 91.750 C 297.167 91.194,297.231 91.000,297.417 91.000 C 297.583 91.000,297.667 90.833,297.667 90.500 C 297.667 90.167,297.750 90.000,297.917 90.000 C 298.102 90.000,298.167 89.806,298.167 89.250 C 298.167 88.694,298.231 88.500,298.417 88.500 C 298.583 88.500,298.667 88.333,298.667 88.000 C 298.667 87.667,298.750 87.500,298.917 87.500 C 299.083 87.500,299.167 87.333,299.167 87.000 C 299.167 86.667,299.250 86.500,299.417 86.500 C 299.602 86.500,299.667 86.306,299.667 85.750 C 299.667 85.194,299.731 85.000,299.917 85.000 C 300.083 85.000,300.167 84.833,300.167 84.500 C 300.167 84.180,300.252 84.000,300.402 84.000 C 300.549 84.000,300.682 83.736,300.755 83.301 C 300.820 82.917,300.977 82.499,301.103 82.373 C 301.230 82.246,301.333 82.004,301.333 81.835 C 301.333 81.666,301.410 81.502,301.504 81.471 C 301.598 81.440,301.722 81.115,301.779 80.749 C 301.837 80.383,301.985 80.023,302.109 79.950 C 302.232 79.877,302.333 79.665,302.333 79.480 C 302.333 79.294,302.446 79.030,302.583 78.893 C 302.721 78.755,302.833 78.493,302.833 78.310 C 302.833 78.126,302.946 77.864,303.083 77.726 C 303.221 77.589,303.333 77.254,303.333 76.983 C 303.333 76.698,303.439 76.449,303.583 76.394 C 303.721 76.341,303.833 76.113,303.833 75.887 C 303.833 75.661,303.946 75.364,304.083 75.226 C 304.221 75.089,304.333 74.719,304.333 74.405 C 304.333 74.008,304.410 73.833,304.583 73.833 C 304.750 73.833,304.833 73.667,304.833 73.333 C 304.833 73.000,304.917 72.833,305.083 72.833 C 305.269 72.833,305.333 72.639,305.333 72.083 C 305.333 71.528,305.398 71.333,305.583 71.333 C 305.750 71.333,305.833 71.167,305.833 70.833 C 305.833 70.500,305.917 70.333,306.083 70.333 C 306.269 70.333,306.333 70.139,306.333 69.583 C 306.333 69.028,306.398 68.833,306.583 68.833 C 306.750 68.833,306.833 68.667,306.833 68.333 C 306.833 68.000,306.917 67.833,307.083 67.833 C 307.248 67.833,307.333 67.669,307.333 67.351 C 307.333 67.076,307.441 66.828,307.583 66.773 C 307.748 66.710,307.833 66.449,307.833 66.005 C 307.833 65.519,307.902 65.333,308.083 65.333 C 308.248 65.333,308.333 65.169,308.333 64.851 C 308.333 64.576,308.441 64.328,308.583 64.273 C 308.748 64.210,308.833 63.949,308.833 63.505 C 308.833 63.019,308.902 62.833,309.083 62.833 C 309.248 62.833,309.333 62.669,309.333 62.351 C 309.333 62.076,309.441 61.828,309.583 61.773 C 309.748 61.710,309.833 61.449,309.833 61.005 C 309.833 60.519,309.902 60.333,310.083 60.333 C 310.248 60.333,310.333 60.169,310.333 59.851 C 310.333 59.576,310.441 59.328,310.583 59.273 C 310.747 59.210,310.833 58.951,310.833 58.523 C 310.833 58.095,310.920 57.836,311.083 57.773 C 311.221 57.720,311.333 57.485,311.333 57.250 C 311.333 57.015,311.446 56.780,311.583 56.727 C 311.726 56.672,311.833 56.424,311.833 56.149 C 311.833 55.831,311.919 55.667,312.083 55.667 C 312.269 55.667,312.333 55.472,312.333 54.917 C 312.333 54.361,312.398 54.167,312.583 54.167 C 312.750 54.167,312.833 54.000,312.833 53.667 C 312.833 53.333,312.917 53.167,313.083 53.167 C 313.269 53.167,313.333 52.972,313.333 52.417 C 313.333 51.861,313.398 51.667,313.583 51.667 C 313.750 51.667,313.833 51.500,313.833 51.167 C 313.833 50.833,313.917 50.667,314.083 50.667 C 314.269 50.667,314.333 50.472,314.333 49.917 C 314.333 49.361,314.398 49.167,314.583 49.167 C 314.750 49.167,314.833 49.000,314.833 48.667 C 314.833 48.333,314.917 48.167,315.083 48.167 C 315.248 48.167,315.333 48.002,315.333 47.684 C 315.333 47.410,315.441 47.161,315.583 47.106 C 315.748 47.043,315.833 46.782,315.833 46.339 C 315.833 45.852,315.902 45.667,316.083 45.667 C 316.248 45.667,316.333 45.502,316.333 45.184 C 316.333 44.910,316.441 44.661,316.583 44.606 C 316.748 44.543,316.833 44.282,316.833 43.839 C 316.833 43.352,316.902 43.167,317.083 43.167 C 317.221 43.167,317.336 43.073,317.339 42.958 C 317.342 42.844,317.490 42.450,317.667 42.083 C 317.844 41.717,317.991 41.256,317.994 41.059 C 317.997 40.863,318.112 40.659,318.250 40.606 C 318.387 40.554,318.500 40.330,318.500 40.109 C 318.500 39.888,318.612 39.614,318.750 39.500 C 318.887 39.386,319.000 39.037,319.000 38.724 C 319.000 38.373,319.095 38.120,319.250 38.060 C 319.389 38.007,319.500 37.759,319.500 37.500 C 319.500 37.233,319.611 36.993,319.760 36.936 C 319.946 36.864,320.006 36.658,319.968 36.210 L 319.917 35.583 310.167 35.583 L 300.417 35.583 300.364 36.125 C 300.332 36.461,300.221 36.667,300.073 36.667 C 299.900 36.667,299.833 36.876,299.833 37.417 C 299.833 37.978,299.769 38.167,299.579 38.167 C 299.430 38.167,299.284 38.373,299.225 38.667 C 299.170 38.942,299.068 39.167,298.997 39.167 C 298.927 39.167,298.818 39.372,298.755 39.623 C 298.692 39.874,298.569 40.124,298.481 40.178 C 298.393 40.233,298.275 40.571,298.219 40.930 C 298.162 41.289,298.015 41.643,297.891 41.717 C 297.768 41.790,297.667 42.027,297.667 42.244 C 297.667 42.461,297.587 42.666,297.489 42.698 C 297.392 42.731,297.269 43.074,297.217 43.462 C 297.158 43.901,297.037 44.167,296.895 44.167 C 296.754 44.167,296.667 44.352,296.667 44.649 C 296.667 44.924,296.559 45.172,296.417 45.227 C 296.252 45.290,296.167 45.551,296.167 45.995 C 296.167 46.481,296.098 46.667,295.917 46.667 C 295.752 46.667,295.667 46.831,295.667 47.149 C 295.667 47.424,295.559 47.672,295.417 47.727 C 295.279 47.780,295.167 48.004,295.167 48.224 C 295.167 48.445,295.054 48.719,294.917 48.833 C 294.779 48.947,294.667 49.286,294.667 49.586 C 294.667 49.917,294.568 50.169,294.417 50.227 C 294.273 50.282,294.167 50.531,294.167 50.810 C 294.167 51.090,294.060 51.339,293.917 51.394 C 293.762 51.453,293.667 51.707,293.667 52.060 C 293.667 52.414,293.572 52.668,293.417 52.727 C 293.271 52.783,293.167 53.033,293.167 53.328 C 293.167 53.666,293.084 53.833,292.917 53.833 C 292.731 53.833,292.667 54.028,292.667 54.583 C 292.667 55.139,292.602 55.333,292.417 55.333 C 292.250 55.333,292.167 55.500,292.167 55.833 C 292.167 56.167,292.083 56.333,291.917 56.333 C 291.731 56.333,291.667 56.528,291.667 57.083 C 291.667 57.639,291.602 57.833,291.417 57.833 C 291.250 57.833,291.167 58.000,291.167 58.333 C 291.167 58.667,291.083 58.833,290.917 58.833 C 290.752 58.833,290.667 58.998,290.667 59.316 C 290.667 59.590,290.559 59.839,290.417 59.894 C 290.252 59.957,290.167 60.218,290.167 60.661 C 290.167 61.148,290.098 61.333,289.917 61.333 C 289.752 61.333,289.667 61.498,289.667 61.816 C 289.667 62.090,289.559 62.339,289.417 62.394 C 289.252 62.457,289.167 62.718,289.167 63.161 C 289.167 63.648,289.098 63.833,288.917 63.833 C 288.750 63.833,288.667 64.000,288.667 64.333 C 288.667 64.667,288.583 64.833,288.417 64.833 C 288.231 64.833,288.167 65.028,288.167 65.583 C 288.167 66.139,288.102 66.333,287.917 66.333 C 287.752 66.333,287.667 66.498,287.667 66.816 C 287.667 67.090,287.559 67.339,287.417 67.394 C 287.252 67.457,287.167 67.718,287.167 68.161 C 287.167 68.648,287.098 68.833,286.917 68.833 C 286.752 68.833,286.667 68.998,286.667 69.316 C 286.667 69.590,286.559 69.839,286.417 69.894 C 286.279 69.946,286.167 70.102,286.167 70.240 C 286.167 70.393,286.070 70.453,285.917 70.394 C 285.764 70.335,285.667 70.082,285.667 69.744 C 285.667 69.440,285.554 69.078,285.417 68.940 C 285.279 68.803,285.167 68.533,285.167 68.340 C 285.167 68.147,285.054 67.946,284.917 67.894 C 284.779 67.841,284.664 67.637,284.661 67.441 C 284.658 67.244,284.510 66.783,284.333 66.417 C 284.156 66.050,284.009 65.656,284.006 65.542 C 284.003 65.427,283.887 65.333,283.750 65.333 C 283.569 65.333,283.500 65.148,283.500 64.661 C 283.500 64.218,283.415 63.957,283.250 63.894 C 283.107 63.839,283.000 63.590,283.000 63.316 C 283.000 62.998,282.915 62.833,282.750 62.833 C 282.583 62.833,282.500 62.667,282.500 62.333 C 282.500 62.000,282.417 61.833,282.250 61.833 C 282.065 61.833,282.000 61.639,282.000 61.083 C 282.000 60.528,281.935 60.333,281.750 60.333 C 281.583 60.333,281.500 60.167,281.500 59.833 C 281.500 59.500,281.417 59.333,281.250 59.333 C 281.065 59.333,281.000 59.139,281.000 58.583 C 281.000 58.028,280.935 57.833,280.750 57.833 C 280.583 57.833,280.500 57.667,280.500 57.333 C 280.500 57.000,280.417 56.833,280.250 56.833 C 280.065 56.833,280.000 56.639,280.000 56.083 C 280.000 55.528,279.935 55.333,279.750 55.333 C 279.583 55.333,279.500 55.167,279.500 54.833 C 279.500 54.500,279.417 54.333,279.250 54.333 C 279.065 54.333,279.000 54.139,279.000 53.583 C 279.000 53.028,278.935 52.833,278.750 52.833 C 278.583 52.833,278.500 52.666,278.500 52.328 C 278.500 52.033,278.396 51.783,278.250 51.727 C 278.107 51.672,278.000 51.424,278.000 51.149 C 278.000 50.831,277.915 50.667,277.750 50.667 C 277.569 50.667,277.500 50.481,277.500 49.995 C 277.500 49.551,277.415 49.290,277.250 49.227 C 277.107 49.172,277.000 48.924,277.000 48.649 C 277.000 48.331,276.915 48.167,276.750 48.167 C 276.569 48.167,276.500 47.981,276.500 47.495 C 276.500 47.051,276.415 46.790,276.250 46.727 C 276.107 46.672,276.000 46.424,276.000 46.149 C 276.000 45.831,275.915 45.667,275.750 45.667 C 275.569 45.667,275.500 45.481,275.500 44.995 C 275.500 44.551,275.415 44.290,275.250 44.227 C 275.107 44.172,275.000 43.924,275.000 43.649 C 275.000 43.331,274.915 43.167,274.750 43.167 C 274.569 43.167,274.500 42.981,274.500 42.495 C 274.500 42.051,274.415 41.790,274.250 41.727 C 274.107 41.672,274.000 41.424,274.000 41.149 C 274.000 40.831,273.915 40.667,273.750 40.667 C 273.583 40.667,273.500 40.500,273.500 40.167 C 273.500 39.833,273.417 39.667,273.250 39.667 C 273.065 39.667,273.000 39.472,273.000 38.917 C 273.000 38.361,272.935 38.167,272.750 38.167 C 272.583 38.167,272.500 38.000,272.500 37.667 C 272.500 37.333,272.417 37.167,272.250 37.167 C 272.069 37.167,272.000 36.981,272.000 36.496 C 272.000 35.483,272.172 35.500,261.739 35.500 L 252.333 35.500 252.333 36.500 " stroke="none" fill="#040404" fill-rule="evenodd"></path></g></svg>