<svg version="1.1" id="Layer_1" xmlns="http://www.w3.org/2000/svg" xmlns:xlink="http://www.w3.org/1999/xlink" x="0px" y="0px"
	 width="100%" viewBox="0 0 1063 911" enable-background="new 0 0 1063 911" xml:space="preserve">
<path fill="#FFFFFF" opacity="1.000000" stroke="none" 
	d="
M598.000000,912.000000 
	C398.691833,912.000000 199.883652,912.000000 1.037741,912.000000 
	C1.037741,608.396912 1.037741,304.793854 1.037741,1.095380 
	C355.224884,1.095380 709.449768,1.095380 1063.837402,1.095380 
	C1063.837402,304.666595 1063.837402,608.333313 1063.837402,912.000000 
	C908.793762,912.000000 753.646912,912.000000 598.000000,912.000000 
M770.597107,365.873444 
	C770.532288,366.128754 770.467468,366.384033 770.402649,366.639343 
	C770.592224,366.418549 770.781799,366.197784 771.483826,365.884247 
	C771.670288,365.605652 771.856750,365.327057 772.573120,364.871307 
	C772.915894,364.446167 773.258606,364.021057 774.188904,363.281799 
	C799.750122,339.786530 823.471313,314.591553 843.772888,286.374573 
	C855.952515,269.446228 866.886108,251.753815 871.517761,230.979935 
	C877.366699,204.746384 865.605713,185.937241 839.482117,179.952560 
	C823.648376,176.325195 807.713013,177.505859 791.826233,179.551025 
	C789.013672,179.913086 787.435486,179.601761 785.652527,177.126694 
	C780.303711,169.701508 772.740601,166.583740 763.796204,168.496933 
	C754.732544,170.435623 748.787476,176.190750 746.891724,185.455826 
	C746.283875,188.426300 744.931335,189.716904 742.056702,190.730194 
	C718.237732,199.126297 694.389282,207.462311 670.789856,216.447083 
	C659.829163,220.620010 649.401062,226.191879 638.230469,230.565720 
	C632.809265,207.263748 627.975220,183.804977 621.806641,160.702576 
	C615.236816,136.097885 606.282104,112.286858 592.972900,90.365730 
	C586.616516,79.896309 579.168274,70.343437 568.920288,63.333229 
	C555.206848,53.952419 540.156494,53.639427 526.461365,63.047333 
	C521.445374,66.493065 516.606323,70.646347 512.874573,75.407913 
	C507.054657,82.833900 502.323669,91.106331 496.940308,98.887985 
	C495.991730,100.259163 494.198364,101.698479 492.644897,101.890442 
	C483.973694,102.961937 477.602051,107.173775 474.087311,115.137955 
	C470.543945,123.166954 472.100067,130.638351 477.131226,137.723190 
	C478.215607,139.250153 478.655121,141.929733 478.177490,143.761871 
	C474.197327,159.029587 469.515137,174.123871 465.866364,189.465866 
	C461.874908,206.248566 458.759247,223.239563 454.642670,239.738129 
	C408.944672,218.202805 362.355804,199.073410 312.718719,188.526520 
	C291.983185,184.120651 271.047516,181.281189 249.796341,185.023239 
	C221.798859,189.953232 208.767456,209.354660 214.890839,237.188705 
	C219.091736,256.284058 229.067200,272.613983 239.918854,288.461639 
	C241.921005,291.385590 242.356506,293.549133 240.649277,296.926483 
	C236.791824,304.557587 237.780106,312.214844 242.841019,319.035736 
	C247.783295,325.696716 254.960403,329.575287 262.861206,327.447693 
	C269.347046,325.701172 271.823181,328.723785 275.592865,332.390869 
	C296.715424,352.938507 318.107849,373.208679 339.716614,394.049347 
	C340.058075,394.221405 340.399536,394.393463 340.740997,394.565521 
	C340.569061,393.976135 340.397125,393.386749 339.990540,392.167755 
	C320.518768,368.970215 301.078186,345.746307 281.533386,322.610443 
	C279.242950,319.899170 278.781372,317.741852 280.279327,314.232910 
	C286.568451,299.500916 274.833252,282.718781 259.106659,284.415802 
	C253.926285,284.974792 251.506638,283.480621 249.282608,279.551666 
	C247.728790,276.806641 245.764267,274.297607 244.116623,271.601624 
	C236.105743,258.493835 228.907669,245.040970 226.353119,229.613739 
	C224.133270,216.207718 229.613617,205.732208 242.354050,201.024399 
	C248.191086,198.867538 254.558578,197.569168 260.775055,197.119644 
	C283.459900,195.479309 305.621307,199.437103 327.249420,205.666962 
	C350.545868,212.377350 373.531952,220.178024 396.593903,227.685852 
	C415.868530,233.960724 435.057312,240.499420 454.299835,247.795700 
	C450.889679,275.031311 447.479523,302.266907 444.069366,329.502502 
	C444.595062,329.579041 445.120789,329.655609 445.646484,329.732178 
	C447.436890,320.535736 449.081146,311.307892 451.049072,302.149567 
	C454.813721,284.629852 458.762482,267.149689 463.336517,250.031509 
	C476.599030,255.101349 489.861572,260.171173 503.124084,265.241028 
	C503.297150,264.859741 503.470245,264.478424 503.643341,264.097137 
	C490.395386,257.403961 477.147461,250.710785 463.872772,243.211929 
	C472.875061,211.614838 481.839722,180.006805 491.016876,148.460571 
	C491.384308,147.197495 493.677917,145.886902 495.223450,145.671844 
	C506.239716,144.138901 513.617920,137.737091 515.530151,127.401413 
	C517.060120,119.132164 513.738220,112.468140 507.930847,106.672112 
	C513.491089,96.066315 519.692688,86.092209 528.509644,78.000488 
	C541.164734,66.386383 554.367249,65.987633 566.450195,78.113091 
	C573.174011,84.860649 579.257080,92.684486 583.895447,100.991226 
	C598.392700,126.953812 611.591675,153.620026 620.927063,181.949081 
	C626.373169,198.475922 630.994263,215.274658 635.285950,232.121643 
	C572.541870,261.684967 512.860535,296.551300 455.719147,335.884399 
	C457.546173,335.652649 459.235352,335.117462 460.746582,334.266357 
	C511.203400,305.849091 562.488525,279.054230 615.268372,255.174377 
	C623.256287,251.560318 631.165344,247.771988 639.550537,244.037567 
	C639.550537,244.037567 639.967590,243.895737 640.704285,243.932037 
	C641.016357,243.818115 641.337891,243.724976 641.639099,243.587326 
	C675.255798,228.225159 709.315979,214.015427 744.837952,203.552246 
	C748.162537,202.572968 750.431396,202.768524 753.165222,205.457642 
	C763.732849,215.852203 781.908325,212.897903 787.395691,199.278458 
	C789.925110,193.000412 793.774841,192.332901 798.929993,191.974030 
	C800.588867,191.858536 802.236328,191.581375 803.895020,191.460831 
	C817.234802,190.491257 830.540039,190.123627 843.365967,194.890137 
	C855.042542,199.229553 860.383240,206.871841 860.080322,219.241699 
	C859.730591,233.527313 854.043884,246.266769 846.637268,257.945068 
	C833.713928,278.321564 820.192444,298.339600 806.331787,318.093964 
	C795.633240,333.341644 784.031738,347.955811 772.337341,363.121216 
	C772.115173,363.623047 771.893066,364.124878 771.171875,364.955139 
	C771.133423,365.319855 771.094971,365.684570 770.597107,365.873444 
M235.889587,843.655334 
	C238.251251,843.586548 240.612900,843.517761 243.625656,843.699829 
	C244.511307,843.547302 245.396973,843.394775 246.282639,843.242249 
	C246.253342,842.971008 246.224030,842.699768 246.194733,842.428528 
	C245.122757,842.307251 244.050781,842.185974 242.461807,841.429993 
	C243.125168,833.084412 243.788528,824.738770 244.451889,816.393188 
	C244.900085,816.416260 245.348267,816.439392 245.796463,816.462524 
	C250.487305,825.506775 255.178146,834.551025 259.868988,843.595337 
	C260.407898,843.576355 260.946777,843.557373 261.485687,843.538391 
	C266.282990,834.104736 271.080292,824.671021 275.877594,815.237366 
	C276.199829,815.344543 276.522064,815.451721 276.844269,815.558838 
	C277.990662,824.635925 279.137054,833.712952 280.349579,843.313477 
	C284.777222,843.313477 289.569855,843.313477 294.362518,843.313477 
	C289.371552,842.487915 288.090942,839.288452 287.653870,834.814941 
	C287.040833,828.540344 285.855286,822.319702 284.854401,816.085571 
	C283.872894,809.971985 282.816010,803.870422 281.792206,797.763611 
	C281.161896,797.644165 280.531586,797.524719 279.901245,797.405273 
	C274.242798,808.806152 268.584351,820.207092 262.649658,832.164612 
	C256.579590,820.080078 250.886887,808.746765 245.194199,797.413513 
	C243.556534,798.753113 243.055862,799.735840 242.883957,800.773132 
	C241.552582,808.806152 240.432678,816.877136 238.947708,824.880798 
	C237.870819,830.684937 236.336349,836.404297 234.149887,842.140137 
	C228.559387,843.188232 226.048401,839.854309 224.155411,835.338928 
	C219.401321,823.998901 214.538925,812.704285 209.687500,801.405334 
	C209.072891,799.973999 208.263855,798.626099 206.991455,796.172180 
	C205.707962,798.636414 204.895752,799.988342 204.273956,801.422729 
	C199.448746,812.553345 194.846237,823.786072 189.747910,834.789368 
	C188.205032,838.119263 185.320618,840.827515 183.416428,843.338257 
	C186.810074,843.338257 191.647247,843.338257 195.158417,843.338257 
	C194.743958,841.214478 193.750702,839.261597 194.152039,837.657776 
	C196.304321,829.057312 196.694946,828.879517 205.447922,828.880005 
	C206.945755,828.880127 208.527298,828.580688 209.917816,828.967407 
	C211.302109,829.352417 213.145630,830.132263 213.652985,831.252747 
	C215.394257,835.098450 216.637939,839.169434 218.176666,843.447449 
	C223.472061,843.447449 229.249390,843.447449 235.889587,843.655334 
M727.919739,404.890137 
	C728.961609,405.406342 730.000061,405.929443 731.045837,406.437561 
	C737.809082,409.723602 744.618164,412.826263 752.440613,412.196503 
	C757.023926,411.827484 759.992249,409.429688 762.084473,405.362366 
	C764.169678,401.308624 761.782715,398.932953 759.582886,396.144196 
	C753.008301,387.809387 748.118225,378.855957 747.010498,367.874237 
	C746.254883,360.382812 743.762695,353.075470 742.246887,345.644989 
	C741.900940,343.948730 742.080383,342.003998 742.536316,340.313416 
	C743.655823,336.162628 745.504333,332.172424 746.281921,327.973602 
	C747.613098,320.786133 743.963684,316.783386 736.579895,317.107147 
	C733.153198,317.257385 729.760559,318.185364 726.048279,318.812134 
	C714.573608,305.338074 700.383850,295.042786 683.492004,288.873535 
	C644.403503,274.597656 605.906189,277.538452 568.479553,294.601624 
	C524.690247,314.565582 483.563721,339.526489 441.938141,363.521606 
	C441.511383,363.767609 441.229156,364.264374 440.292847,365.281006 
	C460.245178,362.243713 479.128021,362.627380 497.629669,368.618622 
	C496.130890,368.967163 494.641693,369.009583 493.187042,368.805664 
	C478.568573,366.756256 463.953033,366.781677 449.373108,369.039001 
	C415.356598,374.305573 388.697296,390.480682 371.313324,420.986389 
	C359.672974,441.413116 355.320435,463.428802 354.944580,486.575043 
	C354.914185,488.445679 354.253204,490.943176 352.950867,492.045898 
	C347.304657,496.826843 345.976593,502.941986 347.203156,509.654236 
	C348.438965,516.416748 352.105957,521.538635 359.019409,523.893494 
	C360.342621,524.344238 361.850128,525.544189 362.399719,526.785095 
	C373.413300,551.651489 392.921051,565.931213 418.751312,572.563232 
	C421.953796,573.385437 423.414429,572.837769 424.671265,569.595764 
	C429.473511,557.208313 434.552277,544.926208 439.650879,532.655945 
	C444.410095,521.202393 452.670044,514.649231 465.427155,513.774231 
	C473.744385,513.203674 481.353638,510.392639 486.993713,503.686188 
	C491.162964,498.728699 491.002563,495.479553 486.932953,490.492249 
	C484.684204,487.736420 482.998779,484.494690 481.247925,481.366516 
	C479.668640,478.544830 478.343903,475.580536 476.910828,472.677185 
	C475.327484,469.469421 472.436401,466.267700 472.416138,463.048859 
	C472.357452,453.733459 473.453918,444.410797 474.124390,434.694000 
	C471.063965,433.741486 467.800262,432.725708 464.242126,431.618286 
	C463.345093,443.011749 462.486603,453.915649 461.633514,464.750732 
	C458.864197,464.750732 456.491730,464.750732 453.928558,464.750732 
	C456.224762,453.140930 458.444061,441.920013 460.711395,430.456024 
	C454.971619,428.535126 449.502075,426.704681 443.584259,424.724213 
	C444.651031,424.150452 445.193512,423.786011 445.787048,423.550049 
	C464.621674,416.062225 483.437134,408.524628 502.340118,401.213257 
	C504.077393,400.541321 506.565033,400.826019 508.387573,401.510162 
	C526.429138,408.282288 544.406677,415.225403 562.391724,422.147461 
	C563.668091,422.638702 564.861206,423.346252 566.914185,424.357788 
	C556.110046,427.065765 546.339050,429.514801 537.845764,431.643585 
	C537.845764,439.569336 536.415161,447.183899 538.218750,453.934326 
	C540.330383,461.837677 538.627869,468.055511 534.986267,474.508820 
	C534.835999,474.775116 534.966064,475.186310 534.857117,475.491272 
	C533.585754,479.050537 532.745605,482.855621 530.922668,486.108978 
	C525.310791,496.124237 527.742310,504.591614 537.927734,509.720673 
	C546.980774,514.279419 555.915771,519.071960 564.942505,523.683716 
	C570.073669,526.305176 573.594360,530.315308 575.845032,535.553284 
	C580.894287,547.304138 586.044006,559.012817 590.963501,570.817566 
	C591.957214,573.201904 593.175049,573.973206 595.712769,573.946960 
	C608.375366,573.815796 621.050110,574.185974 633.699707,573.758850 
	C640.122620,573.541931 646.651245,572.577393 652.857300,570.921204 
	C658.923584,569.302368 660.213989,564.814880 655.809814,560.425903 
	C651.159546,555.791626 645.974609,551.178223 640.154907,548.329773 
	C622.591187,539.733093 610.994141,526.410095 608.149414,507.195404 
	C606.216248,494.137970 606.787231,480.681641 606.652283,467.399506 
	C606.595825,461.846252 607.612183,456.282166 608.140808,450.722992 
	C608.379822,450.746826 608.618835,450.770630 608.857910,450.794464 
	C609.325500,460.466888 609.793091,470.139282 610.260742,479.811707 
	C611.476501,479.047302 611.881897,478.212128 612.161377,477.336731 
	C616.884949,462.543274 619.869202,447.456177 621.036621,431.919098 
	C622.323792,414.787933 628.667480,400.121124 644.858948,391.823059 
	C649.897888,389.240692 655.629883,388.010712 661.576843,385.979858 
	C653.836365,383.038208 646.198669,380.135651 637.779968,376.936279 
	C640.865967,376.936279 643.164307,376.867920 645.455872,376.962555 
	C646.776855,377.017120 648.092896,377.302460 649.401062,377.539612 
	C667.903076,380.894104 683.611328,389.725098 698.123413,401.425415 
	C704.775452,406.788605 712.362732,411.107574 719.901672,415.209259 
	C724.075500,417.480133 729.027222,418.050781 733.720337,415.599609 
	C731.241638,412.138885 728.855713,408.807587 726.849304,405.139587 
	C726.970337,405.021393 727.091309,404.903168 727.919739,404.890137 
M570.982544,766.580933 
	C577.507751,770.102173 579.115356,769.214355 579.307556,761.765625 
	C579.595642,750.605164 579.768311,739.441650 580.009277,728.279907 
	C580.584717,701.627930 581.032288,674.972107 581.840149,648.327148 
	C582.075623,640.563049 584.627747,638.615417 592.354309,637.927917 
	C593.822510,637.797302 595.232727,637.015015 596.669739,636.533447 
	C596.538757,636.105103 596.407715,635.676819 596.276672,635.248535 
	C579.996338,635.248535 563.716003,635.248535 547.435608,635.248535 
	C547.376465,635.817688 547.317322,636.386841 547.258179,636.956055 
	C548.831970,637.295532 550.396240,637.871948 551.981140,637.936096 
	C562.454590,638.359924 564.681824,640.412354 565.671753,650.875305 
	C565.797180,652.200439 565.828125,653.536499 565.858704,654.868469 
	C566.417908,679.190186 566.976868,703.512024 567.504028,727.834412 
	C567.529297,728.999939 567.261536,730.171814 567.046082,732.089844 
	C565.082092,730.217896 563.755615,729.008179 562.489136,727.738586 
	C532.008667,697.183350 501.560791,666.595520 470.998993,636.121948 
	C469.016296,634.144958 466.166534,633.037537 463.720093,631.525635 
	C462.838562,634.384277 461.242462,637.228577 461.184601,640.103821 
	C460.517609,673.257202 460.103516,706.415527 459.566742,739.571655 
	C459.485870,744.567200 459.248657,749.568176 458.851624,754.548157 
	C458.477173,759.245300 456.227753,762.150940 451.063446,762.563782 
	C432.622620,764.038025 429.045441,762.120056 421.716614,747.687500 
	C420.739838,745.764038 419.833038,743.800720 418.984528,741.817078 
	C403.955139,706.679993 388.983521,671.518005 373.824036,636.437195 
	C372.805420,634.080017 370.390198,632.326355 368.624542,630.291992 
	C366.862274,632.318237 364.509857,634.074829 363.439697,636.417236 
	C358.745453,646.691833 354.424072,657.136658 349.964142,667.518372 
	C338.224213,694.846497 326.441772,722.156433 314.766754,749.512329 
	C311.283447,757.674133 306.198334,763.317932 296.484131,762.960205 
	C295.383575,762.919678 294.247009,763.856873 293.127136,764.340637 
	C293.209747,764.829529 293.292358,765.318359 293.374969,765.807190 
	C295.228851,766.075073 297.081543,766.564819 298.936829,766.575012 
	C311.259064,766.642639 323.581818,766.609314 335.904419,766.601746 
	C336.736145,766.601196 337.668884,766.766846 338.372742,766.450500 
	C339.167603,766.093262 339.756714,765.278137 340.435303,764.662170 
	C339.761047,764.091492 339.168793,763.269836 338.391052,763.015686 
	C337.483337,762.718872 336.412903,762.937500 335.414398,762.898071 
	C328.726471,762.634583 326.609955,760.393555 328.726044,754.115234 
	C332.062408,744.216492 336.066162,734.532166 340.135590,724.904297 
	C340.644958,723.699280 343.259064,722.782898 344.913025,722.758667 
	C357.075104,722.580017 369.243225,722.788513 381.404358,722.580811 
	C384.769135,722.523438 386.468933,723.547241 387.645721,726.728455 
	C390.988312,735.764282 394.612152,744.697388 398.211273,753.636292 
	C399.833649,757.665771 402.774902,761.751221 396.249603,764.520569 
	C402.137177,767.254517 490.373749,767.240723 494.729279,764.186401 
	C492.885376,763.641663 491.655579,763.055359 490.382233,762.936890 
	C478.410828,761.822998 476.425842,760.313171 475.908691,748.540283 
	C474.812073,723.575073 474.183044,698.589233 473.396667,673.610840 
	C473.380676,673.102295 473.783417,672.580505 473.696899,672.795593 
	C505.973969,703.933044 538.203308,735.024414 570.982544,766.580933 
M183.840546,611.591431 
	C170.682190,611.435120 157.524063,611.234619 144.365250,611.167786 
	C142.272751,611.157166 140.177216,611.747742 138.083084,612.060364 
	C138.100616,612.784851 138.118164,613.509338 138.135696,614.233887 
	C140.724686,614.502625 143.307953,614.865845 145.903702,615.023010 
	C154.621445,615.550842 157.498260,618.146240 158.416443,626.674683 
	C158.719055,629.485596 158.869766,632.326782 158.870361,635.154114 
	C158.877274,668.648743 158.937408,702.143921 158.738052,735.637512 
	C158.698624,742.265198 157.767654,748.904541 156.965790,755.504272 
	C156.472122,759.567444 154.130905,762.078003 149.739761,762.408142 
	C146.895218,762.622009 144.077148,763.187683 141.247208,763.595703 
	C141.212952,764.257935 141.178711,764.920166 141.144455,765.582397 
	C143.697464,765.898560 146.246750,766.450806 148.804077,766.490967 
	C161.284195,766.687195 173.766296,766.775024 186.248016,766.847473 
	C202.203568,766.940125 218.299042,768.365234 234.087677,766.772461 
	C273.669739,762.779358 299.536560,738.020447 305.325043,698.830200 
	C311.181580,659.179382 290.245728,623.595764 249.486084,614.829407 
	C228.078583,610.225159 206.437958,610.944580 183.840546,611.591431 
M753.525024,644.697388 
	C761.668823,645.097107 769.844299,645.183411 777.946045,646.000061 
	C783.948242,646.605103 786.249207,649.452209 787.194153,655.367798 
	C787.454895,657.000366 787.836365,658.613647 788.162476,660.235779 
	C788.758484,660.219971 789.354553,660.204163 789.950562,660.188354 
	C792.846924,651.504517 791.389893,642.194519 793.603516,633.557373 
	C786.746826,634.054810 780.654419,634.875305 774.562683,634.870728 
	C752.732666,634.854248 730.902954,634.534363 709.072754,634.403992 
	C706.783325,634.390320 704.490967,634.872314 702.199951,635.124329 
	C702.202332,635.703796 702.204651,636.283264 702.207031,636.862732 
	C703.642883,637.235291 705.063782,637.852478 706.517090,637.941772 
	C718.231079,638.661438 720.271851,640.618530 720.336365,652.508728 
	C720.472839,677.673645 720.496826,702.839539 720.452820,728.004822 
	C720.438843,736.001343 720.324829,744.015015 719.783508,751.988647 
	C719.189087,760.743958 717.556152,762.059143 708.849426,762.940063 
	C707.521973,763.074463 706.259399,763.849670 704.966797,764.328430 
	C705.045715,764.835205 705.124695,765.341980 705.203613,765.848694 
	C707.242859,766.097290 709.283142,766.560059 711.321045,766.549438 
	C715.483887,766.527710 719.647461,766.065308 723.807068,766.111206 
	C745.133850,766.346802 766.461548,766.592590 787.783936,767.058716 
	C792.780151,767.167908 795.252747,765.065735 795.865723,760.350891 
	C796.552551,755.068115 797.331787,749.790527 797.764771,744.485657 
	C797.913818,742.659363 797.142395,740.757996 796.791504,738.890930 
	C796.240540,738.916138 795.689575,738.941406 795.138611,738.966614 
	C794.450256,741.277222 793.675842,743.566284 793.090637,745.902710 
	C791.679260,751.537781 788.031067,755.333984 782.436523,755.687134 
	C773.349915,756.260742 764.169312,756.324707 755.090576,755.699829 
	C749.152771,755.291199 745.384094,751.513184 745.246887,746.083191 
	C744.869446,731.143433 745.116577,716.187866 745.116577,700.389099 
	C755.823669,700.894592 766.253052,701.212036 776.651917,701.956360 
	C781.411743,702.296997 783.973450,705.424500 784.472534,710.232056 
	C784.677368,712.205200 785.176453,714.147827 785.541687,716.104309 
	C786.255920,716.089539 786.970154,716.074768 787.684387,716.059998 
	C788.649231,706.087646 789.614075,696.115234 790.623535,685.682007 
	C775.490723,694.994568 760.062073,689.080322 745.230042,691.452881 
	C745.230042,675.340454 745.230042,660.129028 745.230042,644.661987 
	C747.902466,644.661987 750.218384,644.661987 753.525024,644.697388 
M853.497314,766.005249 
	C870.646484,766.325989 887.795288,766.776978 904.945312,766.831482 
	C907.611267,766.839966 912.331543,765.440125 912.613525,764.005798 
	C914.226379,755.801453 914.793762,747.390747 915.649353,739.043213 
	C915.671326,738.828674 914.927917,738.535645 913.872253,737.835205 
	C913.207275,739.888550 912.504456,741.633972 912.079712,743.444641 
	C910.348572,750.824890 905.676025,755.353516 898.237915,755.687317 
	C889.124023,756.096436 879.915100,756.036987 870.840088,755.187866 
	C862.362976,754.394653 860.300964,752.095398 859.949707,743.779480 
	C859.317688,728.816772 859.155090,713.829346 859.052612,698.850525 
	C858.943176,682.862732 858.943054,666.869202 859.253052,650.885132 
	C859.461670,640.122681 861.316223,638.564392 871.861694,637.940979 
	C873.398987,637.850037 874.902405,637.186523 876.421509,636.788025 
	C876.381104,636.252319 876.340698,635.716553 876.300293,635.180847 
	C874.636841,634.908875 872.974304,634.406799 871.309937,634.400513 
	C855.159180,634.339478 839.007935,634.327942 822.857422,634.409119 
	C821.140625,634.417786 819.427185,635.107788 817.712219,635.481689 
	C817.753662,636.051514 817.795105,636.621338 817.836548,637.191162 
	C819.810547,637.475342 821.776672,637.844360 823.759949,638.028748 
	C831.326538,638.732117 834.046509,641.422546 834.627502,648.968140 
	C834.755188,650.626648 834.777222,652.296326 834.779114,653.960938 
	C834.806763,678.611450 834.896362,703.262268 834.800598,727.912292 
	C834.768311,736.233887 834.439453,744.564880 833.915100,752.870728 
	C833.432434,760.516846 831.372620,762.293152 823.731873,762.916504 
	C822.258850,763.036682 820.815186,763.516296 819.357971,763.830078 
	C819.391663,764.470703 819.425415,765.111267 819.459106,765.751892 
	C830.397827,767.513000 841.516113,765.222229 853.497314,766.005249 
M631.142395,639.001282 
	C635.855042,640.556946 636.713257,644.595642 636.713318,648.639160 
	C636.713867,681.794373 636.612305,714.950012 636.369080,748.104248 
	C636.341492,751.863892 636.423584,756.621399 634.315735,759.088867 
	C632.198730,761.567017 627.387146,761.705261 623.802795,762.997681 
	C623.020447,763.279724 622.434814,764.107422 621.758606,764.683838 
	C622.455139,765.263672 623.073669,766.022705 623.871521,766.370178 
	C624.589966,766.683167 625.504822,766.597412 626.333191,766.598022 
	C642.989502,766.609680 659.645996,766.637207 676.302002,766.564331 
	C677.926758,766.557129 679.548767,765.915100 681.172058,765.567749 
	C681.174438,764.895081 681.176819,764.222412 681.179199,763.549744 
	C678.317200,763.252563 675.453674,762.968994 672.593506,762.655579 
	C663.909058,761.704224 662.022278,760.176331 661.901489,751.507507 
	C661.476807,721.023621 661.342041,690.535461 661.148682,660.048645 
	C661.124390,656.222107 661.229675,652.377319 661.582336,648.569458 
	C662.364807,640.120972 663.904114,638.744446 672.302002,637.948669 
	C673.762268,637.810303 675.168091,637.096924 676.599060,636.649109 
	C676.520386,636.144897 676.441711,635.640747 676.363098,635.136536 
	C674.961304,634.880737 673.560303,634.407166 672.157715,634.402405 
	C656.666626,634.349548 641.175049,634.336060 625.684265,634.420898 
	C624.106567,634.429565 622.532837,635.147888 620.957275,635.536926 
	C620.979370,636.063416 621.001465,636.589905 621.023560,637.116455 
	C624.137634,637.675659 627.251648,638.234863 631.142395,639.001282 
M642.802490,798.877808 
	C641.178528,798.877808 639.554565,798.877808 637.930603,798.877808 
	C642.166382,799.726990 643.186829,802.107910 643.114136,805.904297 
	C642.929199,815.563416 642.973999,825.228760 643.064575,834.890320 
	C643.098755,838.540466 643.148987,842.009216 638.453796,843.518677 
	C646.952881,844.025635 655.084045,844.226685 663.197083,843.930298 
	C666.624634,843.805115 670.152710,843.021240 673.394287,841.862732 
	C682.743469,838.521301 688.534119,829.114197 687.822327,819.065491 
	C687.103699,808.921814 681.179260,801.516113 670.603027,799.980652 
	C661.778320,798.699402 652.697266,799.183533 642.802490,798.877808 
M473.017670,835.373474 
	C480.020630,843.993896 489.370605,845.491455 499.587799,843.881592 
	C510.921417,842.095825 518.939819,832.500793 519.126587,820.854309 
	C519.319458,808.826965 512.915222,800.530090 500.821655,798.494873 
	C490.033295,796.679199 479.664490,797.926208 472.664795,807.766541 
	C466.386627,816.592468 466.828857,825.759644 473.017670,835.373474 
M855.491455,828.746338 
	C860.001648,812.885803 853.056885,800.875854 837.681030,798.316589 
	C834.442261,797.777588 831.030273,797.818542 827.743530,798.107788 
	C812.809448,799.421997 802.979370,813.040710 806.725891,827.008850 
	C809.560608,837.577576 817.064514,843.326416 829.477600,844.439331 
	C840.661987,845.442017 850.318176,839.815979 855.491455,828.746338 
M869.720093,798.366394 
	C865.953857,797.730225 867.265076,800.701904 867.235046,802.231873 
	C867.019104,813.223633 866.973022,824.218750 866.888489,835.212952 
	C866.860168,838.897278 866.873840,842.579834 861.921814,843.325073 
	C867.119629,843.325073 872.317444,843.325073 876.594543,843.325073 
	C875.260559,841.591125 872.689819,839.785522 872.582825,837.844055 
	C872.122681,829.496338 872.386230,821.108704 872.386230,812.617004 
	C883.571716,823.433350 894.679260,834.174377 905.786804,844.915405 
	C906.306458,844.601318 906.826050,844.287231 907.345703,843.973145 
	C907.496948,842.237976 907.757324,840.504272 907.781616,838.767334 
	C907.928284,828.273621 907.821716,817.770874 908.262024,807.290527 
	C908.382874,804.413696 910.086426,801.603455 910.964661,799.050659 
	C907.255127,799.050659 902.498718,799.050659 898.419861,799.050659 
	C899.762817,800.468933 902.514160,802.013367 902.596924,803.689392 
	C903.035095,812.571167 902.802673,821.486023 902.802673,831.961914 
	C891.419373,820.371948 880.856079,809.616821 869.720093,798.366394 
M589.171509,843.770874 
	C590.632751,843.770874 592.093994,843.770874 593.134583,843.770874 
	C591.433655,841.800476 588.993103,840.288147 588.920715,838.669922 
	C588.533752,830.023071 588.738220,821.349670 588.738220,812.841187 
	C599.655457,823.419128 610.745300,834.164246 621.835083,844.909302 
	C622.365906,844.587158 622.896790,844.264954 623.427612,843.942749 
	C623.570190,842.212524 623.815002,840.483704 623.838501,838.751831 
	C623.980530,828.269287 623.873108,817.777710 624.309998,807.308411 
	C624.430298,804.425903 626.125122,801.609070 626.997314,799.055420 
	C623.271362,799.055420 618.522766,799.055420 613.774170,799.055420 
	C619.281128,799.355957 618.988647,803.279907 619.007263,807.084290 
	C619.033386,812.408875 619.170227,817.732971 619.235718,823.057495 
	C619.266418,825.552979 619.240906,828.049072 619.240906,830.544922 
	C618.544128,830.948853 617.847412,831.352783 617.150635,831.756775 
	C606.056763,820.696167 594.962830,809.635559 583.706543,798.413147 
	C583.559509,799.919434 583.261230,801.672180 583.237976,803.428589 
	C583.101501,813.744751 583.042603,824.061951 582.928589,834.378540 
	C582.886108,838.217102 583.505981,842.465454 577.977234,843.739319 
	C581.405945,843.739319 584.834717,843.739319 589.171509,843.770874 
M568.734558,825.093445 
	C568.769287,818.604004 568.561279,812.099365 568.967224,805.633240 
	C569.114197,803.293762 570.731628,801.046570 571.551147,799.064331 
	C567.915894,799.064331 562.854309,799.064331 557.792725,799.064331 
	C562.440308,799.526428 562.794495,802.859131 562.816528,806.359863 
	C562.857361,812.849182 562.874573,819.339050 562.825256,825.828125 
	C562.813904,827.314575 562.527710,828.803833 562.308777,830.283020 
	C561.253174,837.414001 556.977234,841.220398 550.341797,840.962952 
	C543.679321,840.704407 539.381592,836.656067 539.028137,829.458069 
	C538.644897,821.655029 538.611450,813.813782 538.927856,806.009583 
	C539.027100,803.560547 540.751221,801.177368 541.547546,799.217224 
	C536.821228,799.217224 530.897339,799.217224 524.973511,799.217224 
	C529.656799,799.645752 530.147766,802.650391 530.073792,806.395813 
	C529.939148,813.215149 529.887573,820.044922 530.109558,826.860413 
	C530.439209,836.980408 535.455872,842.759521 544.679260,844.094971 
	C559.101807,846.183228 566.196228,840.834106 568.734558,825.093445 
M151.978012,792.063843 
	C156.108109,792.095032 157.282639,794.415100 157.239227,798.228516 
	C157.098862,810.558655 157.194229,822.891296 157.114166,835.222351 
	C157.092072,838.624390 157.619873,842.509827 152.602020,843.376953 
	C159.476303,843.376953 166.350571,843.376953 173.038254,843.376953 
	C170.965225,842.040894 167.435608,840.955017 167.238205,839.436157 
	C166.305389,832.258484 166.283920,824.962402 165.944138,817.845886 
	C175.888504,815.970886 178.843307,816.879761 182.221527,822.981140 
	C182.535309,819.089905 182.797073,815.843811 183.038422,812.850952 
	C178.287888,813.065247 173.899841,813.409851 169.516418,813.358521 
	C168.409424,813.345581 166.402771,812.114136 166.364746,811.363831 
	C166.091171,805.965454 166.218277,800.546692 166.218277,794.007935 
	C172.543793,796.833618 180.433517,790.686646 183.773605,801.691223 
	C184.246140,797.027771 184.568756,793.843872 184.864960,790.920532 
	C174.606171,790.920532 164.954758,790.883545 155.304276,790.963074 
	C153.964828,790.974121 152.630127,791.560120 151.978012,792.063843 
M456.098419,820.241943 
	C456.405457,820.929932 456.712494,821.617920 457.631622,823.677368 
	C457.989624,818.909668 458.235748,815.631592 458.445923,812.832703 
	C452.871399,813.161682 447.663818,813.468994 442.325684,813.783997 
	C442.325684,807.170593 442.325684,801.127136 442.325684,794.470398 
	C448.249023,796.422119 455.532532,791.241760 459.592285,799.579163 
	C459.592285,796.760437 459.592285,793.941711 459.592285,791.151733 
	C448.551849,791.151733 437.688995,791.151733 426.826172,791.151733 
	C430.965942,791.698242 433.024353,793.720276 432.980743,798.075745 
	C432.857361,810.407776 432.946014,822.741699 432.886993,835.074646 
	C432.869415,838.749878 432.440491,842.299438 427.846710,843.333862 
	C434.727814,843.333862 441.608917,843.333862 447.705017,843.333862 
	C445.991180,841.879578 442.587799,840.390930 442.425140,838.606812 
	C441.784515,831.579468 442.162537,824.459229 442.162537,815.908447 
	C447.286255,817.258789 451.574707,818.388977 456.098419,820.241943 
M722.494141,838.370728 
	C722.899597,840.064819 723.305115,841.758850 723.674072,843.300171 
	C728.587891,843.300171 733.321838,843.300171 736.624207,843.300171 
	C734.640137,840.901489 731.708679,838.515137 730.288757,835.432434 
	C725.217407,824.422546 720.682373,813.166260 715.882080,802.030151 
	C715.154114,800.341370 714.095337,798.795227 712.700012,796.311646 
	C711.448975,798.834656 710.659546,800.261963 710.015686,801.752258 
	C705.733765,811.663635 701.587646,821.635376 697.176331,831.488464 
	C695.092285,836.143433 694.542969,842.143494 687.993164,843.698547 
	C690.454834,843.698547 692.916565,843.698547 695.378235,843.698547 
	C697.759155,843.698547 700.140137,843.698547 702.521057,843.698547 
	C698.245728,842.198547 699.056396,839.599609 700.160095,836.712158 
	C701.962585,831.996582 703.349609,827.880615 710.315125,828.657532 
	C718.729675,829.596069 718.809631,828.879333 722.494141,838.370728 
M374.891113,808.564636 
	C373.527344,805.585266 372.163574,802.605896 370.612518,799.217407 
	C367.033478,799.217407 362.053711,799.217407 356.485931,799.217407 
	C358.382019,800.257446 360.131958,800.634705 360.857697,801.705872 
	C367.815948,811.976379 377.868256,820.856506 376.040009,835.172302 
	C375.613373,838.513062 376.671204,842.384277 371.742401,843.318726 
	C377.934875,843.318726 384.127380,843.318726 390.319885,843.318726 
	C385.013489,842.847656 384.994965,839.358337 384.351227,835.240112 
	C382.588043,823.960693 388.658081,815.772583 394.375092,807.438660 
	C396.586395,804.215149 399.698395,801.609497 402.065643,799.079712 
	C398.871796,799.079712 394.660431,799.079712 391.038788,799.079712 
	C391.595612,807.864258 384.846497,812.908630 381.773376,820.320251 
	C379.284454,816.081238 377.266327,812.643982 374.891113,808.564636 
M767.143005,798.918457 
	C755.872986,798.918457 744.602966,798.918457 732.889038,798.918457 
	C732.484741,801.075073 731.988831,803.720642 731.492981,806.366211 
	C736.459045,800.152832 742.831055,803.671570 748.938538,802.483704 
	C748.938538,813.222473 748.967285,823.335938 748.924011,833.449097 
	C748.907288,837.347595 749.730591,841.658508 743.200256,843.392639 
	C750.952942,843.392639 757.120422,843.392639 762.908691,843.392639 
	C761.209717,842.036194 758.074341,840.723022 758.028381,839.309387 
	C757.635681,827.235046 757.803406,815.142456 757.803406,802.592834 
	C763.095520,803.411255 769.099243,800.486694 773.399170,807.246643 
	C773.399170,803.832642 773.399170,801.200623 773.399170,798.407898 
	C771.331726,798.603271 769.690796,798.758362 767.143005,798.918457 
M333.795990,830.223022 
	C332.882202,834.806030 335.588989,840.501404 329.318542,843.581543 
	C337.517334,843.896729 345.338837,843.877502 353.160217,843.901978 
	C361.124969,843.926941 361.572388,843.422546 360.722931,833.695435 
	C358.796539,841.237366 353.572723,839.916809 348.843231,840.071045 
	C343.970367,840.229858 341.872620,838.159241 341.968872,833.242920 
	C342.135223,824.749329 341.949677,816.249512 342.025391,807.753296 
	C342.058014,804.092285 340.699921,799.520874 346.736603,799.223877 
	C340.803864,799.223877 334.871124,799.223877 328.938385,799.223877 
	C333.111908,799.675110 333.738647,802.563843 333.761719,805.786194 
	C333.817841,813.616272 333.792236,821.447021 333.795990,830.223022 
M304.885895,798.852661 
	C303.534973,798.923584 302.184052,798.994507 302.282288,798.989319 
	C303.231384,801.376709 304.884979,803.687744 304.959747,806.048828 
	C305.260315,815.538757 305.089966,825.044312 305.055908,834.543884 
	C305.042999,838.142578 305.958282,842.227539 300.873535,843.261230 
	C307.068481,843.261230 313.263428,843.261230 319.458374,843.261230 
	C314.178131,842.912842 313.675751,839.637939 313.741577,835.475281 
	C313.894318,825.811462 313.572205,816.136475 313.903015,806.481812 
	C313.992249,803.876343 315.728729,801.327209 316.667114,798.862427 
	C313.766205,798.862427 309.777771,798.862427 304.885895,798.852661 
M784.985046,827.480591 
	C783.901062,832.901367 787.895081,839.658813 780.598877,843.433716 
	C786.942322,843.433716 793.106628,843.433716 799.270996,843.433716 
	C794.577209,842.700317 793.159119,839.804626 793.187683,835.535339 
	C793.254517,825.560181 793.005493,815.578003 793.329163,805.613098 
	C793.403137,803.334656 795.275269,801.114563 796.207153,799.110107 
	C791.766846,799.110107 786.292358,799.110107 782.176147,799.110107 
	C783.073853,801.326233 784.717651,803.643005 784.850464,806.043274 
	C785.226501,812.839539 784.983948,819.669983 784.985046,827.480591 
M719.024231,306.473511 
	C720.380493,308.229980 721.736694,309.986481 723.092896,311.742950 
	C723.612610,311.309814 724.132324,310.876648 724.651978,310.443481 
	C723.766235,304.339630 725.114258,297.197388 718.561584,293.334900 
	C713.981323,290.635071 709.742615,293.571228 705.773499,296.302246 
	C710.134216,299.625763 714.311951,302.809845 719.024231,306.473511 
z"/>
<path fill="#1F2A58" opacity="1.000000" stroke="none" 
	d="
M726.469727,405.476318 
	C728.855713,408.807587 731.241638,412.138885 733.720337,415.599609 
	C729.027222,418.050781 724.075500,417.480133 719.901672,415.209259 
	C712.362732,411.107574 704.775452,406.788605 698.123413,401.425415 
	C683.611328,389.725098 667.903076,380.894104 649.401062,377.539612 
	C648.092896,377.302460 646.776855,377.017120 645.455872,376.962555 
	C643.164307,376.867920 640.865967,376.936279 637.779968,376.936279 
	C646.198669,380.135651 653.836365,383.038208 661.576843,385.979858 
	C655.629883,388.010712 649.897888,389.240692 644.858948,391.823059 
	C628.667480,400.121124 622.323792,414.787933 621.036621,431.919098 
	C619.869202,447.456177 616.884949,462.543274 612.161377,477.336731 
	C611.881897,478.212128 611.476501,479.047302 610.260742,479.811707 
	C609.793091,470.139282 609.325500,460.466888 608.857910,450.794464 
	C608.618835,450.770630 608.379822,450.746826 608.140808,450.722992 
	C607.612183,456.282166 606.595825,461.846252 606.652283,467.399506 
	C606.787231,480.681641 606.216248,494.137970 608.149414,507.195404 
	C610.994141,526.410095 622.591187,539.733093 640.154907,548.329773 
	C645.974609,551.178223 651.159546,555.791626 655.809814,560.425903 
	C660.213989,564.814880 658.923584,569.302368 652.857300,570.921204 
	C646.651245,572.577393 640.122620,573.541931 633.699707,573.758850 
	C621.050110,574.185974 608.375366,573.815796 595.712769,573.946960 
	C593.175049,573.973206 591.957214,573.201904 590.963501,570.817566 
	C586.044006,559.012817 580.894287,547.304138 575.845032,535.553284 
	C573.594360,530.315308 570.073669,526.305176 564.942505,523.683716 
	C555.915771,519.071960 546.980774,514.279419 537.927734,509.720673 
	C527.742310,504.591614 525.310791,496.124237 530.922668,486.108978 
	C532.745605,482.855621 533.585754,479.050537 534.857117,475.491272 
	C534.966064,475.186310 534.835999,474.775116 534.986267,474.508820 
	C538.627869,468.055511 540.330383,461.837677 538.218750,453.934326 
	C536.415161,447.183899 537.845764,439.569336 537.845764,431.643585 
	C546.339050,429.514801 556.110046,427.065765 566.914185,424.357788 
	C564.861206,423.346252 563.668091,422.638702 562.391724,422.147461 
	C544.406677,415.225403 526.429138,408.282288 508.387573,401.510162 
	C506.565033,400.826019 504.077393,400.541321 502.340118,401.213257 
	C483.437134,408.524628 464.621674,416.062225 445.787048,423.550049 
	C445.193512,423.786011 444.651031,424.150452 443.584259,424.724213 
	C449.502075,426.704681 454.971619,428.535126 460.711395,430.456024 
	C458.444061,441.920013 456.224762,453.140930 453.928558,464.750732 
	C456.491730,464.750732 458.864197,464.750732 461.633514,464.750732 
	C462.486603,453.915649 463.345093,443.011749 464.242126,431.618286 
	C467.800262,432.725708 471.063965,433.741486 474.124390,434.694000 
	C473.453918,444.410797 472.357452,453.733459 472.416138,463.048859 
	C472.436401,466.267700 475.327484,469.469421 476.910828,472.677185 
	C478.343903,475.580536 479.668640,478.544830 481.247925,481.366516 
	C482.998779,484.494690 484.684204,487.736420 486.932953,490.492249 
	C491.002563,495.479553 491.162964,498.728699 486.993713,503.686188 
	C481.353638,510.392639 473.744385,513.203674 465.427155,513.774231 
	C452.670044,514.649231 444.410095,521.202393 439.650879,532.655945 
	C434.552277,544.926208 429.473511,557.208313 424.671265,569.595764 
	C423.414429,572.837769 421.953796,573.385437 418.751312,572.563232 
	C392.921051,565.931213 373.413300,551.651489 362.399719,526.785095 
	C361.850128,525.544189 360.342621,524.344238 359.019409,523.893494 
	C352.105957,521.538635 348.438965,516.416748 347.203156,509.654236 
	C345.976593,502.941986 347.304657,496.826843 352.950867,492.045898 
	C354.253204,490.943176 354.914185,488.445679 354.944580,486.575043 
	C355.320435,463.428802 359.672974,441.413116 371.313324,420.986389 
	C388.697296,390.480682 415.356598,374.305573 449.373108,369.039001 
	C463.953033,366.781677 478.568573,366.756256 493.187042,368.805664 
	C494.641693,369.009583 496.130890,368.967163 497.629669,368.618622 
	C479.128021,362.627380 460.245178,362.243713 440.292847,365.281006 
	C441.229156,364.264374 441.511383,363.767609 441.938141,363.521606 
	C483.563721,339.526489 524.690247,314.565582 568.479553,294.601624 
	C605.906189,277.538452 644.403503,274.597656 683.492004,288.873535 
	C700.383850,295.042786 714.573608,305.338074 726.048279,318.812134 
	C729.760559,318.185364 733.153198,317.257385 736.579895,317.107147 
	C743.963684,316.783386 747.613098,320.786133 746.281921,327.973602 
	C745.504333,332.172424 743.655823,336.162628 742.536316,340.313416 
	C742.080383,342.003998 741.900940,343.948730 742.246887,345.644989 
	C743.762695,353.075470 746.254883,360.382812 747.010498,367.874237 
	C748.118225,378.855957 753.008301,387.809387 759.582886,396.144196 
	C761.782715,398.932953 764.169678,401.308624 762.084473,405.362366 
	C759.992249,409.429688 757.023926,411.827484 752.440613,412.196503 
	C744.618164,412.826263 737.809082,409.723602 731.045837,406.437561 
	C730.000061,405.929443 728.961609,405.406342 727.443787,404.592224 
	C726.714111,404.311127 726.460449,404.327942 726.206787,404.344788 
	C726.294434,404.721954 726.382080,405.099121 726.469727,405.476318 
z"/>
<path fill="#212C5A" opacity="1.000000" stroke="none" 
	d="
M570.707581,766.348389 
	C538.203308,735.024414 505.973969,703.933044 473.696899,672.795593 
	C473.783417,672.580505 473.380676,673.102295 473.396667,673.610840 
	C474.183044,698.589233 474.812073,723.575073 475.908691,748.540283 
	C476.425842,760.313171 478.410828,761.822998 490.382233,762.936890 
	C491.655579,763.055359 492.885376,763.641663 494.729279,764.186401 
	C490.373749,767.240723 402.137177,767.254517 396.249603,764.520569 
	C402.774902,761.751221 399.833649,757.665771 398.211273,753.636292 
	C394.612152,744.697388 390.988312,735.764282 387.645721,726.728455 
	C386.468933,723.547241 384.769135,722.523438 381.404358,722.580811 
	C369.243225,722.788513 357.075104,722.580017 344.913025,722.758667 
	C343.259064,722.782898 340.644958,723.699280 340.135590,724.904297 
	C336.066162,734.532166 332.062408,744.216492 328.726044,754.115234 
	C326.609955,760.393555 328.726471,762.634583 335.414398,762.898071 
	C336.412903,762.937500 337.483337,762.718872 338.391052,763.015686 
	C339.168793,763.269836 339.761047,764.091492 340.435303,764.662170 
	C339.756714,765.278137 339.167603,766.093262 338.372742,766.450500 
	C337.668884,766.766846 336.736145,766.601196 335.904419,766.601746 
	C323.581818,766.609314 311.259064,766.642639 298.936829,766.575012 
	C297.081543,766.564819 295.228851,766.075073 293.374969,765.807190 
	C293.292358,765.318359 293.209747,764.829529 293.127136,764.340637 
	C294.247009,763.856873 295.383575,762.919678 296.484131,762.960205 
	C306.198334,763.317932 311.283447,757.674133 314.766754,749.512329 
	C326.441772,722.156433 338.224213,694.846497 349.964142,667.518372 
	C354.424072,657.136658 358.745453,646.691833 363.439697,636.417236 
	C364.509857,634.074829 366.862274,632.318237 368.624512,630.291992 
	C370.390198,632.326355 372.805420,634.080017 373.824036,636.437195 
	C388.983521,671.518005 403.955139,706.679993 418.984528,741.817078 
	C419.833038,743.800720 420.739838,745.764038 421.716614,747.687500 
	C429.045441,762.120056 432.622620,764.038025 451.063446,762.563782 
	C456.227753,762.150940 458.477173,759.245300 458.851624,754.548157 
	C459.248657,749.568176 459.485870,744.567200 459.566742,739.571655 
	C460.103516,706.415527 460.517609,673.257202 461.184601,640.103821 
	C461.242462,637.228577 462.838562,634.384277 463.720093,631.525635 
	C466.166534,633.037537 469.016296,634.144958 470.998993,636.121948 
	C501.560791,666.595520 532.008667,697.183350 562.489136,727.738586 
	C563.755615,729.008179 565.082092,730.217896 567.046082,732.089844 
	C567.261536,730.171814 567.529297,728.999939 567.504028,727.834412 
	C566.976868,703.512024 566.417908,679.190186 565.858704,654.868469 
	C565.828125,653.536499 565.797180,652.200439 565.671753,650.875305 
	C564.681824,640.412354 562.454590,638.359924 551.981140,637.936096 
	C550.396240,637.871948 548.831970,637.295532 547.258179,636.956055 
	C547.317322,636.386841 547.376465,635.817688 547.435608,635.248535 
	C563.716003,635.248535 579.996338,635.248535 596.276672,635.248535 
	C596.407715,635.676819 596.538757,636.105103 596.669739,636.533447 
	C595.232727,637.015015 593.822510,637.797302 592.354309,637.927917 
	C584.627747,638.615417 582.075623,640.563049 581.840149,648.327148 
	C581.032288,674.972107 580.584717,701.627930 580.009277,728.279907 
	C579.768311,739.441650 579.595642,750.605164 579.307556,761.765625 
	C579.115356,769.214355 577.507751,770.102173 570.707581,766.348389 
M369.592957,680.929382 
	C367.668945,676.003296 365.744934,671.077209 363.472046,665.257812 
	C357.043213,681.528625 350.939270,696.977051 344.737854,712.672241 
	C357.249786,712.672241 369.113220,712.672241 381.679565,712.672241 
	C377.626251,702.012512 373.755096,691.831848 369.592957,680.929382 
z"/>
<path fill="#212C59" opacity="1.000000" stroke="none" 
	d="
M184.313126,611.571045 
	C206.437958,610.944580 228.078583,610.225159 249.486084,614.829407 
	C290.245728,623.595764 311.181580,659.179382 305.325043,698.830200 
	C299.536560,738.020447 273.669739,762.779358 234.087677,766.772461 
	C218.299042,768.365234 202.203568,766.940125 186.248016,766.847473 
	C173.766296,766.775024 161.284195,766.687195 148.804077,766.490967 
	C146.246750,766.450806 143.697464,765.898560 141.144455,765.582397 
	C141.178711,764.920166 141.212952,764.257935 141.247208,763.595703 
	C144.077148,763.187683 146.895218,762.622009 149.739761,762.408142 
	C154.130905,762.078003 156.472122,759.567444 156.965790,755.504272 
	C157.767654,748.904541 158.698624,742.265198 158.738052,735.637512 
	C158.937408,702.143921 158.877274,668.648743 158.870361,635.154114 
	C158.869766,632.326782 158.719055,629.485596 158.416443,626.674683 
	C157.498260,618.146240 154.621445,615.550842 145.903702,615.023010 
	C143.307953,614.865845 140.724686,614.502625 138.135696,614.233887 
	C138.118164,613.509338 138.100616,612.784851 138.083084,612.060364 
	C140.177216,611.747742 142.272751,611.157166 144.365250,611.167786 
	C157.524063,611.234619 170.682190,611.435120 184.313126,611.571045 
M278.768250,689.839661 
	C278.507874,687.020447 278.360138,684.185425 277.969055,681.384460 
	C275.215881,661.664917 266.743988,645.276123 249.795319,634.050720 
	C231.865692,622.175659 211.897690,619.590637 190.975616,621.524658 
	C186.511322,621.937317 184.760361,623.857239 184.787842,628.581116 
	C184.960236,658.231018 184.815659,687.882629 184.856583,717.533508 
	C184.867386,725.359680 184.810669,733.212524 185.411453,741.004822 
	C186.250168,751.882812 188.747406,755.317322 199.551468,756.912170 
	C208.989288,758.305298 218.781830,758.515015 228.313202,757.818420 
	C253.523270,755.976013 271.388275,740.437622 276.433868,716.054626 
	C278.139648,707.811523 278.063568,699.199585 278.768250,689.839661 
z"/>
<path fill="#4F9AD4" opacity="1.000000" stroke="none" 
	d="
M454.284119,246.921280 
	C435.057312,240.499420 415.868530,233.960724 396.593903,227.685852 
	C373.531952,220.178024 350.545868,212.377350 327.249420,205.666962 
	C305.621307,199.437103 283.459900,195.479309 260.775055,197.119644 
	C254.558578,197.569168 248.191086,198.867538 242.354050,201.024399 
	C229.613617,205.732208 224.133270,216.207718 226.353119,229.613739 
	C228.907669,245.040970 236.105743,258.493835 244.116623,271.601624 
	C245.764267,274.297607 247.728790,276.806641 249.282608,279.551666 
	C251.506638,283.480621 253.926285,284.974792 259.106659,284.415802 
	C274.833252,282.718781 286.568451,299.500916 280.279327,314.232910 
	C278.781372,317.741852 279.242950,319.899170 281.533386,322.610443 
	C301.078186,345.746307 320.518768,368.970215 339.896484,392.669128 
	C339.671021,393.304932 339.539551,393.439301 339.408112,393.573639 
	C318.107849,373.208679 296.715424,352.938507 275.592865,332.390869 
	C271.823181,328.723785 269.347046,325.701172 262.861206,327.447693 
	C254.960403,329.575287 247.783295,325.696716 242.841019,319.035736 
	C237.780106,312.214844 236.791824,304.557587 240.649277,296.926483 
	C242.356506,293.549133 241.921005,291.385590 239.918854,288.461639 
	C229.067200,272.613983 219.091736,256.284058 214.890839,237.188705 
	C208.767456,209.354660 221.798859,189.953232 249.796341,185.023239 
	C271.047516,181.281189 291.983185,184.120651 312.718719,188.526520 
	C362.355804,199.073410 408.944672,218.202805 454.952576,240.337799 
	C454.936340,242.932068 454.610229,244.926666 454.284119,246.921280 
z"/>
<path fill="#4F9AD4" opacity="1.000000" stroke="none" 
	d="
M638.731567,231.129608 
	C649.401062,226.191879 659.829163,220.620010 670.789856,216.447083 
	C694.389282,207.462311 718.237732,199.126297 742.056702,190.730194 
	C744.931335,189.716904 746.283875,188.426300 746.891724,185.455826 
	C748.787476,176.190750 754.732544,170.435623 763.796204,168.496933 
	C772.740601,166.583740 780.303711,169.701508 785.652527,177.126694 
	C787.435486,179.601761 789.013672,179.913086 791.826233,179.551025 
	C807.713013,177.505859 823.648376,176.325195 839.482117,179.952560 
	C865.605713,185.937241 877.366699,204.746384 871.517761,230.979935 
	C866.886108,251.753815 855.952515,269.446228 843.772888,286.374573 
	C823.471313,314.591553 799.750122,339.786530 773.711914,363.243286 
	C773.100525,363.087097 772.966125,362.969360 772.831726,362.851654 
	C784.031738,347.955811 795.633240,333.341644 806.331787,318.093964 
	C820.192444,298.339600 833.713928,278.321564 846.637268,257.945068 
	C854.043884,246.266769 859.730591,233.527313 860.080322,219.241699 
	C860.383240,206.871841 855.042542,199.229553 843.365967,194.890137 
	C830.540039,190.123627 817.234802,190.491257 803.895020,191.460831 
	C802.236328,191.581375 800.588867,191.858536 798.929993,191.974030 
	C793.774841,192.332901 789.925110,193.000412 787.395691,199.278458 
	C781.908325,212.897903 763.732849,215.852203 753.165222,205.457642 
	C750.431396,202.768524 748.162537,202.572968 744.837952,203.552246 
	C709.315979,214.015427 675.255798,228.225159 641.639099,243.587326 
	C641.337891,243.724976 641.016357,243.818115 640.350464,243.488373 
	C639.574951,239.073013 639.153259,235.101303 638.731567,231.129608 
z"/>
<path fill="#232E5B" opacity="1.000000" stroke="none" 
	d="
M638.481018,230.847656 
	C639.153259,235.101303 639.574951,239.073013 639.982117,243.470215 
	C639.967590,243.895737 639.550537,244.037567 639.306152,243.648849 
	C638.036682,239.490433 637.011658,235.720734 635.986572,231.951050 
	C630.994263,215.274658 626.373169,198.475922 620.927063,181.949081 
	C611.591675,153.620026 598.392700,126.953812 583.895447,100.991226 
	C579.257080,92.684486 573.174011,84.860649 566.450195,78.113091 
	C554.367249,65.987633 541.164734,66.386383 528.509644,78.000488 
	C519.692688,86.092209 513.491089,96.066315 507.930847,106.672112 
	C513.738220,112.468140 517.060120,119.132164 515.530151,127.401413 
	C513.617920,137.737091 506.239716,144.138901 495.223450,145.671844 
	C493.677917,145.886902 491.384308,147.197495 491.016876,148.460571 
	C481.839722,180.006805 472.875061,211.614838 463.662170,243.896072 
	C463.179291,246.271194 462.907043,247.962158 462.634827,249.653122 
	C458.762482,267.149689 454.813721,284.629852 451.049072,302.149567 
	C449.081146,311.307892 447.436890,320.535736 445.646484,329.732178 
	C445.120789,329.655609 444.595062,329.579041 444.069366,329.502502 
	C447.479523,302.266907 450.889679,275.031311 454.291962,247.358490 
	C454.610229,244.926666 454.936340,242.932068 455.262177,240.538620 
	C458.759247,223.239563 461.874908,206.248566 465.866364,189.465866 
	C469.515137,174.123871 474.197327,159.029587 478.177490,143.761871 
	C478.655121,141.929733 478.215607,139.250153 477.131226,137.723190 
	C472.100067,130.638351 470.543945,123.166954 474.087311,115.137955 
	C477.602051,107.173775 483.973694,102.961937 492.644897,101.890442 
	C494.198364,101.698479 495.991730,100.259163 496.940308,98.887985 
	C502.323669,91.106331 507.054657,82.833900 512.874573,75.407913 
	C516.606323,70.646347 521.445374,66.493065 526.461365,63.047333 
	C540.156494,53.639427 555.206848,53.952419 568.920288,63.333229 
	C579.168274,70.343437 586.616516,79.896309 592.972900,90.365730 
	C606.282104,112.286858 615.236816,136.097885 621.806641,160.702576 
	C627.975220,183.804977 632.809265,207.263748 638.481018,230.847656 
z"/>
<path fill="#222D5A" opacity="1.000000" stroke="none" 
	d="
M753.029663,644.679688 
	C750.218384,644.661987 747.902466,644.661987 745.230042,644.661987 
	C745.230042,660.129028 745.230042,675.340454 745.230042,691.452881 
	C760.062073,689.080322 775.490723,694.994568 790.623535,685.682007 
	C789.614075,696.115234 788.649231,706.087646 787.684387,716.059998 
	C786.970154,716.074768 786.255920,716.089539 785.541687,716.104309 
	C785.176453,714.147827 784.677368,712.205200 784.472534,710.232056 
	C783.973450,705.424500 781.411743,702.296997 776.651917,701.956360 
	C766.253052,701.212036 755.823669,700.894592 745.116577,700.389099 
	C745.116577,716.187866 744.869446,731.143433 745.246887,746.083191 
	C745.384094,751.513184 749.152771,755.291199 755.090576,755.699829 
	C764.169312,756.324707 773.349915,756.260742 782.436523,755.687134 
	C788.031067,755.333984 791.679260,751.537781 793.090637,745.902710 
	C793.675842,743.566284 794.450256,741.277222 795.138611,738.966614 
	C795.689575,738.941406 796.240540,738.916138 796.791504,738.890930 
	C797.142395,740.757996 797.913818,742.659363 797.764771,744.485657 
	C797.331787,749.790527 796.552551,755.068115 795.865723,760.350891 
	C795.252747,765.065735 792.780151,767.167908 787.783936,767.058716 
	C766.461548,766.592590 745.133850,766.346802 723.807068,766.111206 
	C719.647461,766.065308 715.483887,766.527710 711.321045,766.549438 
	C709.283142,766.560059 707.242859,766.097290 705.203613,765.848694 
	C705.124695,765.341980 705.045715,764.835205 704.966797,764.328430 
	C706.259399,763.849670 707.521973,763.074463 708.849426,762.940063 
	C717.556152,762.059143 719.189087,760.743958 719.783508,751.988647 
	C720.324829,744.015015 720.438843,736.001343 720.452820,728.004822 
	C720.496826,702.839539 720.472839,677.673645 720.336365,652.508728 
	C720.271851,640.618530 718.231079,638.661438 706.517090,637.941772 
	C705.063782,637.852478 703.642883,637.235291 702.207031,636.862732 
	C702.204651,636.283264 702.202332,635.703796 702.199951,635.124329 
	C704.490967,634.872314 706.783325,634.390320 709.072754,634.403992 
	C730.902954,634.534363 752.732666,634.854248 774.562683,634.870728 
	C780.654419,634.875305 786.746826,634.054810 793.603516,633.557373 
	C791.389893,642.194519 792.846924,651.504517 789.950562,660.188354 
	C789.354553,660.204163 788.758484,660.219971 788.162476,660.235779 
	C787.836365,658.613647 787.454895,657.000366 787.194153,655.367798 
	C786.249207,649.452209 783.948242,646.605103 777.946045,646.000061 
	C769.844299,645.183411 761.668823,645.097107 753.029663,644.679688 
z"/>
<path fill="#202B59" opacity="1.000000" stroke="none" 
	d="
M852.997803,766.004272 
	C841.516113,765.222229 830.397827,767.513000 819.459106,765.751892 
	C819.425415,765.111267 819.391663,764.470703 819.357971,763.830078 
	C820.815186,763.516296 822.258850,763.036682 823.731873,762.916504 
	C831.372620,762.293152 833.432434,760.516846 833.915100,752.870728 
	C834.439453,744.564880 834.768311,736.233887 834.800598,727.912292 
	C834.896362,703.262268 834.806763,678.611450 834.779114,653.960938 
	C834.777222,652.296326 834.755188,650.626648 834.627502,648.968140 
	C834.046509,641.422546 831.326538,638.732117 823.759949,638.028748 
	C821.776672,637.844360 819.810547,637.475342 817.836548,637.191162 
	C817.795105,636.621338 817.753662,636.051514 817.712219,635.481689 
	C819.427185,635.107788 821.140625,634.417786 822.857422,634.409119 
	C839.007935,634.327942 855.159180,634.339478 871.309937,634.400513 
	C872.974304,634.406799 874.636841,634.908875 876.300293,635.180847 
	C876.340698,635.716553 876.381104,636.252319 876.421509,636.788025 
	C874.902405,637.186523 873.398987,637.850037 871.861694,637.940979 
	C861.316223,638.564392 859.461670,640.122681 859.253052,650.885132 
	C858.943054,666.869202 858.943176,682.862732 859.052612,698.850525 
	C859.155090,713.829346 859.317688,728.816772 859.949707,743.779480 
	C860.300964,752.095398 862.362976,754.394653 870.840088,755.187866 
	C879.915100,756.036987 889.124023,756.096436 898.237915,755.687317 
	C905.676025,755.353516 910.348572,750.824890 912.079712,743.444641 
	C912.504456,741.633972 913.207275,739.888550 913.872253,737.835205 
	C914.927917,738.535645 915.671326,738.828674 915.649353,739.043213 
	C914.793762,747.390747 914.226379,755.801453 912.613525,764.005798 
	C912.331543,765.440125 907.611267,766.839966 904.945312,766.831482 
	C887.795288,766.776978 870.646484,766.325989 852.997803,766.004272 
z"/>
<path fill="#202B58" opacity="1.000000" stroke="none" 
	d="
M630.754028,638.897705 
	C627.251648,638.234863 624.137634,637.675659 621.023560,637.116455 
	C621.001465,636.589905 620.979370,636.063416 620.957275,635.536926 
	C622.532837,635.147888 624.106567,634.429565 625.684265,634.420898 
	C641.175049,634.336060 656.666626,634.349548 672.157715,634.402405 
	C673.560303,634.407166 674.961304,634.880737 676.363098,635.136536 
	C676.441711,635.640747 676.520386,636.144897 676.599060,636.649109 
	C675.168091,637.096924 673.762268,637.810303 672.302002,637.948669 
	C663.904114,638.744446 662.364807,640.120972 661.582336,648.569458 
	C661.229675,652.377319 661.124390,656.222107 661.148682,660.048645 
	C661.342041,690.535461 661.476807,721.023621 661.901489,751.507507 
	C662.022278,760.176331 663.909058,761.704224 672.593506,762.655579 
	C675.453674,762.968994 678.317200,763.252563 681.179199,763.549744 
	C681.176819,764.222412 681.174438,764.895081 681.172058,765.567749 
	C679.548767,765.915100 677.926758,766.557129 676.302002,766.564331 
	C659.645996,766.637207 642.989502,766.609680 626.333191,766.598022 
	C625.504822,766.597412 624.589966,766.683167 623.871521,766.370178 
	C623.073669,766.022705 622.455139,765.263672 621.758606,764.683838 
	C622.434814,764.107422 623.020447,763.279724 623.802795,762.997681 
	C627.387146,761.705261 632.198730,761.567017 634.315735,759.088867 
	C636.423584,756.621399 636.341492,751.863892 636.369080,748.104248 
	C636.612305,714.950012 636.713867,681.794373 636.713318,648.639160 
	C636.713257,644.595642 635.855042,640.556946 630.754028,638.897705 
z"/>
<path fill="#519BD4" opacity="1.000000" stroke="none" 
	d="
M635.636292,232.036346 
	C637.011658,235.720734 638.036682,239.490433 639.086304,243.662201 
	C631.165344,247.771988 623.256287,251.560318 615.268372,255.174377 
	C562.488525,279.054230 511.203400,305.849091 460.746582,334.266357 
	C459.235352,335.117462 457.546173,335.652649 455.719147,335.884399 
	C512.860535,296.551300 572.541870,261.684967 635.636292,232.036346 
z"/>
<path fill="#549DD5" opacity="1.000000" stroke="none" 
	d="
M235.005920,842.161438 
	C236.336349,836.404297 237.870819,830.684937 238.947708,824.880798 
	C240.432678,816.877136 241.552582,808.806152 242.883957,800.773132 
	C243.055862,799.735840 243.556534,798.753113 245.194199,797.413513 
	C250.886887,808.746765 256.579590,820.080078 262.649658,832.164612 
	C268.584351,820.207092 274.242798,808.806152 279.901245,797.405273 
	C280.531586,797.524719 281.161896,797.644165 281.792206,797.763611 
	C282.816010,803.870422 283.872894,809.971985 284.854401,816.085571 
	C285.855286,822.319702 287.040833,828.540344 287.653870,834.814941 
	C288.090942,839.288452 289.371552,842.487915 294.362518,843.313477 
	C289.569855,843.313477 284.777222,843.313477 280.349579,843.313477 
	C279.137054,833.712952 277.990662,824.635925 276.844269,815.558838 
	C276.522064,815.451721 276.199829,815.344543 275.877594,815.237366 
	C271.080292,824.671021 266.282990,834.104736 261.485687,843.538391 
	C260.946777,843.557373 260.407898,843.576355 259.868988,843.595337 
	C255.178146,834.551025 250.487305,825.506775 245.796463,816.462524 
	C245.348267,816.439392 244.900085,816.416260 244.451889,816.393188 
	C243.788528,824.738770 243.125168,833.084412 242.724884,841.978638 
	C242.988556,842.834656 242.984100,843.141846 242.974564,843.448975 
	C240.612900,843.517761 238.251251,843.586548 235.452286,843.338440 
	C235.009003,842.734863 235.005966,842.448120 235.005920,842.161438 
z"/>
<path fill="#529BD4" opacity="1.000000" stroke="none" 
	d="
M643.266113,798.881775 
	C652.697266,799.183533 661.778320,798.699402 670.603027,799.980652 
	C681.179260,801.516113 687.103699,808.921814 687.822327,819.065491 
	C688.534119,829.114197 682.743469,838.521301 673.394287,841.862732 
	C670.152710,843.021240 666.624634,843.805115 663.197083,843.930298 
	C655.084045,844.226685 646.952881,844.025635 638.453796,843.518677 
	C643.148987,842.009216 643.098755,838.540466 643.064575,834.890320 
	C642.973999,825.228760 642.929199,815.563416 643.114136,805.904297 
	C643.186829,802.107910 642.166382,799.726990 637.930603,798.877808 
	C639.554565,798.877808 641.178528,798.877808 643.266113,798.881775 
M671.047913,838.837585 
	C673.386047,835.747070 676.868835,832.985352 677.867249,829.509888 
	C682.563538,813.161682 672.234863,800.939880 655.254578,801.873352 
	C652.172607,802.042725 651.215759,803.252808 651.252686,806.136169 
	C651.353027,813.967041 651.199158,821.801331 651.321716,829.631592 
	C651.488159,840.265991 654.504456,842.669373 665.104065,840.745789 
	C666.887085,840.422241 668.596191,839.691956 671.047913,838.837585 
z"/>
<path fill="#539CD5" opacity="1.000000" stroke="none" 
	d="
M472.800354,835.078857 
	C466.828857,825.759644 466.386627,816.592468 472.664795,807.766541 
	C479.664490,797.926208 490.033295,796.679199 500.821655,798.494873 
	C512.915222,800.530090 519.319458,808.826965 519.126587,820.854309 
	C518.939819,832.500793 510.921417,842.095825 499.587799,843.881592 
	C489.370605,845.491455 480.020630,843.993896 472.800354,835.078857 
M477.660492,821.342590 
	C477.906158,827.401855 479.763733,832.799072 484.412781,836.909851 
	C491.880920,843.513245 502.927734,842.327209 507.358673,834.525330 
	C511.665222,826.942444 510.775848,814.451538 505.436096,807.524353 
	C501.333618,802.202209 494.419983,799.874268 488.084137,801.681702 
	C481.878632,803.451965 478.442108,808.021851 477.808105,815.426086 
	C477.666351,817.081665 477.669128,818.749512 477.660492,821.342590 
z"/>
<path fill="#539CD5" opacity="1.000000" stroke="none" 
	d="
M855.334229,829.106079 
	C850.318176,839.815979 840.661987,845.442017 829.477600,844.439331 
	C817.064514,843.326416 809.560608,837.577576 806.725891,827.008850 
	C802.979370,813.040710 812.809448,799.421997 827.743530,798.107788 
	C831.030273,797.818542 834.442261,797.777588 837.681030,798.316589 
	C853.056885,800.875854 860.001648,812.885803 855.334229,829.106079 
M815.193787,816.004700 
	C814.699524,823.918640 815.930542,831.290833 822.184387,836.909973 
	C826.743591,841.006592 832.180725,842.149231 837.957153,840.414673 
	C843.704651,838.688843 846.442322,834.096802 847.014709,828.464722 
	C847.443848,824.241516 847.577759,819.835083 846.859375,815.680237 
	C845.353210,806.969788 838.108398,801.065125 829.839661,801.048645 
	C821.865417,801.032654 817.442505,805.337524 815.193787,816.004700 
z"/>
<path fill="#549DD5" opacity="1.000000" stroke="none" 
	d="
M870.006409,798.614075 
	C880.856079,809.616821 891.419373,820.371948 902.802673,831.961914 
	C902.802673,821.486023 903.035095,812.571167 902.596924,803.689392 
	C902.514160,802.013367 899.762817,800.468933 898.419861,799.050659 
	C902.498718,799.050659 907.255127,799.050659 910.964661,799.050659 
	C910.086426,801.603455 908.382874,804.413696 908.262024,807.290527 
	C907.821716,817.770874 907.928284,828.273621 907.781616,838.767334 
	C907.757324,840.504272 907.496948,842.237976 907.345703,843.973145 
	C906.826050,844.287231 906.306458,844.601318 905.786804,844.915405 
	C894.679260,834.174377 883.571716,823.433350 872.386230,812.617004 
	C872.386230,821.108704 872.122681,829.496338 872.582825,837.844055 
	C872.689819,839.785522 875.260559,841.591125 876.594543,843.325073 
	C872.317444,843.325073 867.119629,843.325073 861.921814,843.325073 
	C866.873840,842.579834 866.860168,838.897278 866.888489,835.212952 
	C866.973022,824.218750 867.019104,813.223633 867.235046,802.231873 
	C867.265076,800.701904 865.953857,797.730225 870.006409,798.614075 
z"/>
<path fill="#549DD5" opacity="1.000000" stroke="none" 
	d="
M588.717529,843.755127 
	C584.834717,843.739319 581.405945,843.739319 577.977234,843.739319 
	C583.505981,842.465454 582.886108,838.217102 582.928589,834.378540 
	C583.042603,824.061951 583.101501,813.744751 583.237976,803.428589 
	C583.261230,801.672180 583.559509,799.919434 583.706543,798.413147 
	C594.962830,809.635559 606.056763,820.696167 617.150635,831.756775 
	C617.847412,831.352783 618.544128,830.948853 619.240906,830.544922 
	C619.240906,828.049072 619.266418,825.552979 619.235718,823.057495 
	C619.170227,817.732971 619.033386,812.408875 619.007263,807.084290 
	C618.988647,803.279907 619.281128,799.355957 613.774170,799.055420 
	C618.522766,799.055420 623.271362,799.055420 626.997314,799.055420 
	C626.125122,801.609070 624.430298,804.425903 624.309998,807.308411 
	C623.873108,817.777710 623.980530,828.269287 623.838501,838.751831 
	C623.815002,840.483704 623.570190,842.212524 623.427612,843.942749 
	C622.896790,844.264954 622.365906,844.587158 621.835083,844.909302 
	C610.745300,834.164246 599.655457,823.419128 588.738220,812.841187 
	C588.738220,821.349670 588.533752,830.023071 588.920715,838.669922 
	C588.993103,840.288147 591.433655,841.800476 593.134583,843.770874 
	C592.093994,843.770874 590.632751,843.770874 588.717529,843.755127 
z"/>
<path fill="#549DD5" opacity="1.000000" stroke="none" 
	d="
M568.708374,825.545166 
	C566.196228,840.834106 559.101807,846.183228 544.679260,844.094971 
	C535.455872,842.759521 530.439209,836.980408 530.109558,826.860413 
	C529.887573,820.044922 529.939148,813.215149 530.073792,806.395813 
	C530.147766,802.650391 529.656799,799.645752 524.973511,799.217224 
	C530.897339,799.217224 536.821228,799.217224 541.547546,799.217224 
	C540.751221,801.177368 539.027100,803.560547 538.927856,806.009583 
	C538.611450,813.813782 538.644897,821.655029 539.028137,829.458069 
	C539.381592,836.656067 543.679321,840.704407 550.341797,840.962952 
	C556.977234,841.220398 561.253174,837.414001 562.308777,830.283020 
	C562.527710,828.803833 562.813904,827.314575 562.825256,825.828125 
	C562.874573,819.339050 562.857361,812.849182 562.816528,806.359863 
	C562.794495,802.859131 562.440308,799.526428 557.792725,799.064331 
	C562.854309,799.064331 567.915894,799.064331 571.551147,799.064331 
	C570.731628,801.046570 569.114197,803.293762 568.967224,805.633240 
	C568.561279,812.099365 568.769287,818.604004 568.708374,825.545166 
z"/>
<path fill="#569ED5" opacity="1.000000" stroke="none" 
	d="
M151.635620,791.971924 
	C152.630127,791.560120 153.964828,790.974121 155.304276,790.963074 
	C164.954758,790.883545 174.606171,790.920532 184.864960,790.920532 
	C184.568756,793.843872 184.246140,797.027771 183.773605,801.691223 
	C180.433517,790.686646 172.543793,796.833618 166.218277,794.007935 
	C166.218277,800.546692 166.091171,805.965454 166.364746,811.363831 
	C166.402771,812.114136 168.409424,813.345581 169.516418,813.358521 
	C173.899841,813.409851 178.287888,813.065247 183.038422,812.850952 
	C182.797073,815.843811 182.535309,819.089905 182.221527,822.981140 
	C178.843307,816.879761 175.888504,815.970886 165.944138,817.845886 
	C166.283920,824.962402 166.305389,832.258484 167.238205,839.436157 
	C167.435608,840.955017 170.965225,842.040894 173.038254,843.376953 
	C166.350571,843.376953 159.476303,843.376953 152.602020,843.376953 
	C157.619873,842.509827 157.092072,838.624390 157.114166,835.222351 
	C157.194229,822.891296 157.098862,810.558655 157.239227,798.228516 
	C157.282639,794.415100 156.108109,792.095032 151.635620,791.971924 
z"/>
<path fill="#539CD5" opacity="1.000000" stroke="none" 
	d="
M455.980804,819.880554 
	C451.574707,818.388977 447.286255,817.258789 442.162537,815.908447 
	C442.162537,824.459229 441.784515,831.579468 442.425140,838.606812 
	C442.587799,840.390930 445.991180,841.879578 447.705017,843.333862 
	C441.608917,843.333862 434.727814,843.333862 427.846710,843.333862 
	C432.440491,842.299438 432.869415,838.749878 432.886993,835.074646 
	C432.946014,822.741699 432.857361,810.407776 432.980743,798.075745 
	C433.024353,793.720276 430.965942,791.698242 426.826172,791.151733 
	C437.688995,791.151733 448.551849,791.151733 459.592285,791.151733 
	C459.592285,793.941711 459.592285,796.760437 459.592285,799.579163 
	C455.532532,791.241760 448.249023,796.422119 442.325684,794.470398 
	C442.325684,801.127136 442.325684,807.170593 442.325684,813.783997 
	C447.663818,813.468994 452.871399,813.161682 458.445923,812.832703 
	C458.235748,815.631592 457.989624,818.909668 457.631622,823.677368 
	C456.712494,821.617920 456.405457,820.929932 455.980804,819.880554 
z"/>
<path fill="#589FD6" opacity="1.000000" stroke="none" 
	d="
M234.577896,842.150757 
	C235.005966,842.448120 235.009003,842.734863 235.020844,843.234497 
	C229.249390,843.447449 223.472061,843.447449 218.176666,843.447449 
	C216.637939,839.169434 215.394257,835.098450 213.652985,831.252747 
	C213.145630,830.132263 211.302109,829.352417 209.917816,828.967407 
	C208.527298,828.580688 206.945755,828.880127 205.447922,828.880005 
	C196.694946,828.879517 196.304321,829.057312 194.152039,837.657776 
	C193.750702,839.261597 194.743958,841.214478 195.158417,843.338257 
	C191.647247,843.338257 186.810074,843.338257 183.416428,843.338257 
	C185.320618,840.827515 188.205032,838.119263 189.747910,834.789368 
	C194.846237,823.786072 199.448746,812.553345 204.273956,801.422729 
	C204.895752,799.988342 205.707962,798.636414 206.991455,796.172180 
	C208.263855,798.626099 209.072891,799.973999 209.687500,801.405334 
	C214.538925,812.704285 219.401321,823.998901 224.155411,835.338928 
	C226.048401,839.854309 228.559387,843.188232 234.577896,842.150757 
M209.827194,825.121521 
	C210.005463,824.313782 210.538895,823.379761 210.303970,822.718872 
	C208.844604,818.612549 207.212906,814.567505 205.227875,809.442322 
	C202.960770,815.186218 201.109024,819.877747 199.004669,825.209351 
	C202.763397,825.209351 205.868546,825.209351 209.827194,825.121521 
z"/>
<path fill="#589FD6" opacity="1.000000" stroke="none" 
	d="
M722.331177,837.993713 
	C718.809631,828.879333 718.729675,829.596069 710.315125,828.657532 
	C703.349609,827.880615 701.962585,831.996582 700.160095,836.712158 
	C699.056396,839.599609 698.245728,842.198547 702.521057,843.698547 
	C700.140137,843.698547 697.759155,843.698547 695.378235,843.698547 
	C692.916565,843.698547 690.454834,843.698547 687.993164,843.698547 
	C694.542969,842.143494 695.092285,836.143433 697.176331,831.488464 
	C701.587646,821.635376 705.733765,811.663635 710.015686,801.752258 
	C710.659546,800.261963 711.448975,798.834656 712.700012,796.311646 
	C714.095337,798.795227 715.154114,800.341370 715.882080,802.030151 
	C720.682373,813.166260 725.217407,824.422546 730.288757,835.432434 
	C731.708679,838.515137 734.640137,840.901489 736.624207,843.300171 
	C733.321838,843.300171 728.587891,843.300171 723.674072,843.300171 
	C723.305115,841.758850 722.899597,840.064819 722.331177,837.993713 
M713.227661,825.227051 
	C714.345215,825.127380 715.462769,825.027771 717.127747,824.879333 
	C715.204285,819.988708 713.413940,815.436707 711.081970,809.507629 
	C708.727539,815.538452 706.964478,820.054443 704.944763,825.227905 
	C707.832764,825.227905 710.094299,825.227905 713.227661,825.227051 
z"/>
<path fill="#549DD5" opacity="1.000000" stroke="none" 
	d="
M375.069641,808.885742 
	C377.266327,812.643982 379.284454,816.081238 381.773376,820.320251 
	C384.846497,812.908630 391.595612,807.864258 391.038788,799.079712 
	C394.660431,799.079712 398.871796,799.079712 402.065643,799.079712 
	C399.698395,801.609497 396.586395,804.215149 394.375092,807.438660 
	C388.658081,815.772583 382.588043,823.960693 384.351227,835.240112 
	C384.994965,839.358337 385.013489,842.847656 390.319885,843.318726 
	C384.127380,843.318726 377.934875,843.318726 371.742401,843.318726 
	C376.671204,842.384277 375.613373,838.513062 376.040009,835.172302 
	C377.868256,820.856506 367.815948,811.976379 360.857697,801.705872 
	C360.131958,800.634705 358.382019,800.257446 356.485931,799.217407 
	C362.053711,799.217407 367.033478,799.217407 370.612518,799.217407 
	C372.163574,802.605896 373.527344,805.585266 375.069641,808.885742 
z"/>
<path fill="#539CD5" opacity="1.000000" stroke="none" 
	d="
M767.596436,798.915955 
	C769.690796,798.758362 771.331726,798.603271 773.399170,798.407898 
	C773.399170,801.200623 773.399170,803.832642 773.399170,807.246643 
	C769.099243,800.486694 763.095520,803.411255 757.803406,802.592834 
	C757.803406,815.142456 757.635681,827.235046 758.028381,839.309387 
	C758.074341,840.723022 761.209717,842.036194 762.908691,843.392639 
	C757.120422,843.392639 750.952942,843.392639 743.200256,843.392639 
	C749.730591,841.658508 748.907288,837.347595 748.924011,833.449097 
	C748.967285,823.335938 748.938538,813.222473 748.938538,802.483704 
	C742.831055,803.671570 736.459045,800.152832 731.492981,806.366211 
	C731.988831,803.720642 732.484741,801.075073 732.889038,798.918457 
	C744.602966,798.918457 755.872986,798.918457 767.596436,798.915955 
z"/>
<path fill="#519BD4" opacity="1.000000" stroke="none" 
	d="
M333.797760,829.750244 
	C333.792236,821.447021 333.817841,813.616272 333.761719,805.786194 
	C333.738647,802.563843 333.111908,799.675110 328.938385,799.223877 
	C334.871124,799.223877 340.803864,799.223877 346.736603,799.223877 
	C340.699921,799.520874 342.058014,804.092285 342.025391,807.753296 
	C341.949677,816.249512 342.135223,824.749329 341.968872,833.242920 
	C341.872620,838.159241 343.970367,840.229858 348.843231,840.071045 
	C353.572723,839.916809 358.796539,841.237366 360.722931,833.695435 
	C361.572388,843.422546 361.124969,843.926941 353.160217,843.901978 
	C345.338837,843.877502 337.517334,843.896729 329.318542,843.581543 
	C335.588989,840.501404 332.882202,834.806030 333.797760,829.750244 
z"/>
<path fill="#5BA1D7" opacity="1.000000" stroke="none" 
	d="
M305.337616,798.857544 
	C309.777771,798.862427 313.766205,798.862427 316.667114,798.862427 
	C315.728729,801.327209 313.992249,803.876343 313.903015,806.481812 
	C313.572205,816.136475 313.894318,825.811462 313.741577,835.475281 
	C313.675751,839.637939 314.178131,842.912842 319.458374,843.261230 
	C313.263428,843.261230 307.068481,843.261230 300.873535,843.261230 
	C305.958282,842.227539 305.042999,838.142578 305.055908,834.543884 
	C305.089966,825.044312 305.260315,815.538757 304.959747,806.048828 
	C304.884979,803.687744 303.231384,801.376709 302.282288,798.989319 
	C302.184052,798.994507 303.534973,798.923584 305.337616,798.857544 
z"/>
<path fill="#519BD4" opacity="1.000000" stroke="none" 
	d="
M784.985046,826.983765 
	C784.983948,819.669983 785.226501,812.839539 784.850464,806.043274 
	C784.717651,803.643005 783.073853,801.326233 782.176147,799.110107 
	C786.292358,799.110107 791.766846,799.110107 796.207153,799.110107 
	C795.275269,801.114563 793.403137,803.334656 793.329163,805.613098 
	C793.005493,815.578003 793.254517,825.560181 793.187683,835.535339 
	C793.159119,839.804626 794.577209,842.700317 799.270996,843.433716 
	C793.106628,843.433716 786.942322,843.433716 780.598877,843.433716 
	C787.895081,839.658813 783.901062,832.901367 784.985046,826.983765 
z"/>
<path fill="#26315D" opacity="1.000000" stroke="none" 
	d="
M718.756958,306.233704 
	C714.311951,302.809845 710.134216,299.625763 705.773499,296.302246 
	C709.742615,293.571228 713.981323,290.635071 718.561584,293.334900 
	C725.114258,297.197388 723.766235,304.339630 724.651978,310.443481 
	C724.132324,310.876648 723.612610,311.309814 723.092896,311.742950 
	C721.736694,309.986481 720.380493,308.229980 718.756958,306.233704 
z"/>
<path fill="#589FD6" opacity="1.000000" stroke="none" 
	d="
M462.985657,249.842316 
	C462.907043,247.962158 463.179291,246.271194 463.675537,244.298920 
	C477.147461,250.710785 490.395386,257.403961 503.643341,264.097137 
	C503.470245,264.478424 503.297150,264.859741 503.124084,265.241028 
	C489.861572,260.171173 476.599030,255.101349 462.985657,249.842316 
z"/>
<path fill="#589FD6" opacity="1.000000" stroke="none" 
	d="
M243.300110,843.574402 
	C242.984100,843.141846 242.988556,842.834656 242.983368,842.296021 
	C244.050781,842.185974 245.122757,842.307251 246.194733,842.428528 
	C246.224030,842.699768 246.253342,842.971008 246.282639,843.242249 
	C245.396973,843.394775 244.511307,843.547302 243.300110,843.574402 
z"/>
<path fill="#4F9AD4" opacity="1.000000" stroke="none" 
	d="
M340.013824,392.983948 
	C340.397125,393.386749 340.569061,393.976135 340.740997,394.565521 
	C340.399536,394.393463 340.058075,394.221405 339.562378,393.811493 
	C339.539551,393.439301 339.671021,393.304932 340.013824,392.983948 
z"/>
<path fill="#4F9AD4" opacity="1.000000" stroke="none" 
	d="
M773.418152,363.400391 
	C773.258606,364.021057 772.915894,364.446167 772.214233,364.855225 
	C771.855286,364.839172 771.670898,364.626709 771.670898,364.626709 
	C771.893066,364.124878 772.115173,363.623047 772.584534,362.986450 
	C772.966125,362.969360 773.100525,363.087097 773.418152,363.400391 
z"/>
<path fill="#4F9AD4" opacity="1.000000" stroke="none" 
	d="
M770.971436,365.976990 
	C770.781799,366.197784 770.592224,366.418549 770.402649,366.639343 
	C770.467468,366.384033 770.532288,366.128754 770.805298,365.943115 
	C771.013428,366.012756 770.971375,365.976959 770.971436,365.976990 
z"/>
<path fill="#4F9AD4" opacity="1.000000" stroke="none" 
	d="
M771.949219,364.943817 
	C771.856750,365.327057 771.670288,365.605652 771.227600,365.930603 
	C770.971375,365.976959 771.013428,366.012756 771.034973,366.031006 
	C771.094971,365.684570 771.133423,365.319855 771.421387,364.790924 
	C771.670898,364.626709 771.855286,364.839172 771.949219,364.943817 
z"/>
<path fill="#FFFFFF" opacity="1.000000" stroke="none" 
	d="
M726.659546,405.307953 
	C726.382080,405.099121 726.294434,404.721954 726.206787,404.344788 
	C726.460449,404.327942 726.714111,404.311127 727.090088,404.539612 
	C727.091309,404.903168 726.970337,405.021393 726.659546,405.307953 
z"/>
<path fill="#FBFCFC" opacity="1.000000" stroke="none" 
	d="
M369.738464,681.290283 
	C373.755096,691.831848 377.626251,702.012512 381.679565,712.672241 
	C369.113220,712.672241 357.249786,712.672241 344.737854,712.672241 
	C350.939270,696.977051 357.043213,681.528625 363.472046,665.257812 
	C365.744934,671.077209 367.668945,676.003296 369.738464,681.290283 
z"/>
<path fill="#FEFEFE" opacity="1.000000" stroke="none" 
	d="
M278.785034,690.297974 
	C278.063568,699.199585 278.139648,707.811523 276.433868,716.054626 
	C271.388275,740.437622 253.523270,755.976013 228.313202,757.818420 
	C218.781830,758.515015 208.989288,758.305298 199.551468,756.912170 
	C188.747406,755.317322 186.250168,751.882812 185.411453,741.004822 
	C184.810669,733.212524 184.867386,725.359680 184.856583,717.533508 
	C184.815659,687.882629 184.960236,658.231018 184.787842,628.581116 
	C184.760361,623.857239 186.511322,621.937317 190.975616,621.524658 
	C211.897690,619.590637 231.865692,622.175659 249.795319,634.050720 
	C266.743988,645.276123 275.215881,661.664917 277.969055,681.384460 
	C278.360138,684.185425 278.507874,687.020447 278.785034,690.297974 
z"/>
<path fill="#FBFDFE" opacity="1.000000" stroke="none" 
	d="
M670.693665,838.993652 
	C668.596191,839.691956 666.887085,840.422241 665.104065,840.745789 
	C654.504456,842.669373 651.488159,840.265991 651.321716,829.631592 
	C651.199158,821.801331 651.353027,813.967041 651.252686,806.136169 
	C651.215759,803.252808 652.172607,802.042725 655.254578,801.873352 
	C672.234863,800.939880 682.563538,813.161682 677.867249,829.509888 
	C676.868835,832.985352 673.386047,835.747070 670.693665,838.993652 
z"/>
<path fill="#FDFEFE" opacity="1.000000" stroke="none" 
	d="
M477.632935,820.877197 
	C477.669128,818.749512 477.666351,817.081665 477.808105,815.426086 
	C478.442108,808.021851 481.878632,803.451965 488.084137,801.681702 
	C494.419983,799.874268 501.333618,802.202209 505.436096,807.524353 
	C510.775848,814.451538 511.665222,826.942444 507.358673,834.525330 
	C502.927734,842.327209 491.880920,843.513245 484.412781,836.909851 
	C479.763733,832.799072 477.906158,827.401855 477.632935,820.877197 
z"/>
<path fill="#FCFDFE" opacity="1.000000" stroke="none" 
	d="
M815.267700,815.582153 
	C817.442505,805.337524 821.865417,801.032654 829.839661,801.048645 
	C838.108398,801.065125 845.353210,806.969788 846.859375,815.680237 
	C847.577759,819.835083 847.443848,824.241516 847.014709,828.464722 
	C846.442322,834.096802 843.704651,838.688843 837.957153,840.414673 
	C832.180725,842.149231 826.743591,841.006592 822.184387,836.909973 
	C815.930542,831.290833 814.699524,823.918640 815.267700,815.582153 
z"/>
<path fill="#FBFDFE" opacity="1.000000" stroke="none" 
	d="
M209.400452,825.165405 
	C205.868546,825.209351 202.763397,825.209351 199.004669,825.209351 
	C201.109024,819.877747 202.960770,815.186218 205.227875,809.442322 
	C207.212906,814.567505 208.844604,818.612549 210.303970,822.718872 
	C210.538895,823.379761 210.005463,824.313782 209.400452,825.165405 
z"/>
<path fill="#FBFDFE" opacity="1.000000" stroke="none" 
	d="
M712.791748,825.227478 
	C710.094299,825.227905 707.832764,825.227905 704.944763,825.227905 
	C706.964478,820.054443 708.727539,815.538452 711.081970,809.507629 
	C713.413940,815.436707 715.204285,819.988708 717.127747,824.879333 
	C715.462769,825.027771 714.345215,825.127380 712.791748,825.227478 
z"/>
</svg>