<svg id="svg" xmlns="http://www.w3.org/2000/svg" xmlns:xlink="http://www.w3.org/1999/xlink" width="400" height="82.79069767441861" viewBox="0, 0, 400,82.79069767441861" version="1.1"><g id="svgg"><path id="path0" d="M17.503 31.375 C 17.507 47.710,17.525 47.961,18.997 52.025 C 21.128 57.907,26.546 62.666,33.559 64.816 C 35.030 65.267,35.181 65.261,36.977 64.674 C 44.373 62.257,49.722 57.097,51.585 50.583 C 52.567 47.148,52.540 47.621,52.619 31.958 L 52.691 17.500 35.095 17.500 L 17.500 17.500 17.503 31.375 M51.166 32.208 C 51.165 43.018,51.119 45.890,50.924 47.181 C 49.759 54.908,44.761 60.581,36.759 63.258 L 35.053 63.829 33.402 63.266 C 25.262 60.488,20.456 55.107,19.151 47.313 C 18.942 46.068,18.708 19.566,18.902 19.063 C 18.975 18.870,21.573 18.833,35.078 18.833 L 51.167 18.833 51.166 32.208 M44.167 20.656 C 41.945 21.334,40.671 23.103,40.668 25.512 C 40.663 29.385,43.947 31.605,47.931 30.422 C 49.227 30.037,49.343 29.896,49.157 28.930 C 48.955 27.881,48.984 27.897,48.090 28.330 C 45.700 29.487,43.372 28.454,43.079 26.107 C 42.714 23.183,45.103 21.492,47.816 22.755 C 48.310 22.985,48.735 23.153,48.760 23.129 C 48.861 23.025,49.130 21.242,49.061 21.130 C 48.761 20.645,45.300 20.310,44.167 20.656 M20.837 24.208 C 20.841 28.260,20.937 28.658,22.151 29.698 C 23.848 31.150,27.374 30.988,28.856 29.390 C 29.851 28.317,29.909 28.048,29.971 24.208 L 30.029 20.667 28.764 20.667 L 27.500 20.667 27.500 23.922 C 27.500 28.266,27.120 29.022,25.053 28.789 C 23.426 28.605,23.167 27.925,23.167 23.839 L 23.167 20.667 22.000 20.667 L 20.833 20.667 20.837 24.208 M31.833 25.583 L 31.833 30.500 34.136 30.500 C 36.886 30.500,37.835 30.275,38.657 29.427 C 39.720 28.330,39.537 26.321,38.309 25.596 L 37.805 25.298 38.239 24.845 C 39.528 23.500,38.890 21.355,37.051 20.845 C 36.702 20.748,35.385 20.668,34.125 20.668 L 31.833 20.667 31.833 25.583 M137.053 21.725 C 136.670 21.830,136.317 21.957,136.269 22.007 C 136.221 22.056,136.710 23.443,137.356 25.090 C 138.003 26.736,138.741 28.646,138.998 29.333 L 139.464 30.583 140.281 30.633 L 141.099 30.682 141.458 29.799 C 142.369 27.560,144.500 21.977,144.500 21.830 C 144.500 21.583,142.837 21.626,142.752 21.875 C 141.933 24.290,140.416 28.147,140.324 28.048 C 140.256 27.976,139.774 26.730,139.253 25.279 C 138.282 22.576,137.859 21.488,137.789 21.516 C 137.768 21.525,137.436 21.619,137.053 21.725 M192.887 21.725 C 192.503 21.830,192.145 21.963,192.090 22.019 C 192.034 22.076,192.648 23.201,193.453 24.519 L 194.917 26.917 195.000 28.667 L 195.083 30.417 195.958 30.467 L 196.833 30.517 196.834 28.800 L 196.835 27.083 198.417 24.500 C 200.280 21.456,200.230 21.667,199.096 21.667 L 198.191 21.667 197.137 23.497 C 196.558 24.504,196.035 25.329,195.975 25.330 C 195.915 25.332,195.366 24.471,194.754 23.417 C 194.141 22.363,193.628 21.507,193.612 21.516 C 193.596 21.525,193.270 21.619,192.887 21.725 M209.887 21.731 C 205.108 23.285,206.027 30.667,211.000 30.667 C 216.379 30.667,216.691 22.177,211.333 21.588 C 210.916 21.542,210.274 21.606,209.887 21.731 M304.833 21.747 C 301.276 22.893,300.874 28.703,304.243 30.272 C 306.109 31.141,308.761 30.606,308.736 29.367 C 308.717 28.455,308.682 28.434,307.816 28.827 C 305.146 30.038,303.031 27.938,303.903 24.939 C 304.407 23.206,306.190 22.536,307.743 23.496 C 308.460 23.939,308.514 23.906,308.620 22.964 C 308.748 21.828,306.663 21.158,304.833 21.747 M315.119 21.728 C 313.036 22.311,311.882 24.139,312.039 26.607 C 312.365 31.750,319.506 32.185,320.301 27.111 C 320.860 23.548,318.262 20.850,315.119 21.728 M69.400 21.901 C 69.350 22.030,69.334 22.386,69.363 22.692 L 69.417 23.250 70.708 23.299 L 72.000 23.347 72.000 26.932 L 72.000 30.517 72.875 30.467 L 73.750 30.417 73.795 26.882 L 73.840 23.347 75.211 23.298 L 76.583 23.250 76.525 22.583 C 76.493 22.217,76.381 21.862,76.275 21.794 C 75.886 21.546,69.498 21.645,69.400 21.901 M79.833 26.083 L 79.833 30.500 80.667 30.500 L 81.500 30.500 81.500 28.667 L 81.500 26.833 83.328 26.833 L 85.155 26.833 85.203 28.625 L 85.250 30.417 86.128 30.467 L 87.006 30.518 86.961 26.134 L 86.917 21.750 86.083 21.750 L 85.250 21.750 85.203 23.458 L 85.155 25.167 83.328 25.167 L 81.500 25.167 81.500 23.417 L 81.500 21.667 80.667 21.667 L 79.833 21.667 79.833 26.083 M91.948 21.774 C 91.885 21.837,91.833 23.826,91.833 26.194 L 91.833 30.500 94.667 30.500 L 97.500 30.500 97.500 29.750 L 97.500 29.000 95.583 29.000 L 93.667 29.000 93.667 27.917 L 93.667 26.833 95.157 26.833 C 96.819 26.833,96.909 26.776,96.749 25.827 L 96.637 25.167 95.152 25.167 L 93.667 25.167 93.667 24.255 L 93.667 23.344 95.542 23.297 L 97.417 23.250 97.417 22.500 L 97.417 21.750 94.740 21.704 C 93.268 21.679,92.012 21.711,91.948 21.774 M107.167 24.772 C 107.167 29.787,108.032 30.968,111.450 30.615 C 113.785 30.374,114.417 29.143,114.417 24.833 L 114.417 21.750 113.583 21.750 L 112.750 21.750 112.667 24.833 C 112.561 28.725,112.273 29.316,110.573 29.124 C 109.059 28.954,108.836 28.354,108.834 24.458 L 108.833 21.667 108.000 21.667 L 107.167 21.667 107.167 24.772 M119.111 21.778 C 119.050 21.839,119.000 23.830,119.000 26.204 L 119.000 30.518 119.792 30.467 L 120.583 30.417 120.667 27.583 L 120.750 24.750 122.719 27.625 L 124.688 30.500 125.428 30.500 L 126.167 30.500 126.167 26.083 L 126.167 21.667 125.417 21.667 L 124.667 21.667 124.667 24.510 C 124.667 26.440,124.611 27.319,124.493 27.246 C 124.397 27.187,123.496 25.907,122.491 24.402 L 120.662 21.667 119.942 21.667 C 119.546 21.667,119.172 21.717,119.111 21.778 M131.079 21.869 C 131.032 21.990,131.014 23.963,131.039 26.253 L 131.083 30.417 131.961 30.467 L 132.839 30.518 132.794 26.134 L 132.750 21.750 131.957 21.699 C 131.414 21.664,131.137 21.718,131.079 21.869 M147.833 26.079 L 147.833 30.500 150.667 30.500 L 153.500 30.500 153.500 29.750 L 153.500 29.000 151.500 29.000 L 149.500 29.000 149.500 27.923 L 149.500 26.845 151.125 26.798 C 152.749 26.750,152.750 26.750,152.703 26.333 C 152.569 25.143,152.625 25.184,151.040 25.131 L 149.583 25.083 149.583 24.250 L 149.583 23.417 151.467 23.369 L 153.351 23.322 153.301 22.536 L 153.250 21.750 150.542 21.704 L 147.833 21.658 147.833 26.079 M157.742 21.878 C 157.697 21.994,157.681 23.963,157.705 26.253 L 157.750 30.417 158.625 30.467 L 159.500 30.517 159.500 28.842 C 159.500 26.564,159.712 26.573,161.421 28.917 C 162.122 29.879,162.731 30.667,162.774 30.667 C 163.185 30.667,164.332 30.252,164.326 30.105 C 164.322 30.002,163.845 29.287,163.265 28.518 L 162.210 27.119 162.924 26.435 C 164.588 24.837,163.833 22.348,161.533 21.856 C 160.299 21.591,157.846 21.606,157.742 21.878 M169.285 22.015 C 167.033 23.203,167.628 25.570,170.472 26.743 C 172.092 27.411,172.334 27.583,172.331 28.062 C 172.323 29.153,170.905 29.475,168.975 28.825 C 167.792 28.426,167.861 28.397,167.799 29.319 C 167.690 30.933,171.750 31.203,173.236 29.681 C 174.897 27.980,174.112 26.333,171.083 25.165 C 169.841 24.685,169.667 24.553,169.667 24.089 C 169.667 23.201,171.093 22.873,172.504 23.438 C 173.310 23.760,173.340 23.740,173.383 22.830 C 173.437 21.700,170.855 21.186,169.285 22.015 M178.285 21.770 C 178.220 21.835,178.167 23.826,178.167 26.194 L 178.167 30.500 179.086 30.500 L 180.006 30.500 179.961 26.125 L 179.917 21.750 179.160 21.701 C 178.745 21.674,178.351 21.705,178.285 21.770 M183.233 21.901 C 183.184 22.030,183.167 22.386,183.197 22.692 L 183.250 23.250 184.542 23.299 L 185.833 23.347 185.833 26.924 L 185.833 30.500 186.750 30.500 L 187.667 30.500 187.667 26.917 L 187.667 23.333 189.091 23.333 L 190.515 23.333 190.411 22.708 C 190.354 22.365,190.278 21.990,190.242 21.875 C 190.141 21.552,183.357 21.577,183.233 21.901 M219.167 26.083 L 219.167 30.500 219.994 30.500 L 220.822 30.500 220.869 28.708 L 220.917 26.917 222.476 26.869 C 223.994 26.822,224.033 26.811,223.937 26.452 C 223.882 26.249,223.837 25.918,223.836 25.715 C 223.833 25.367,223.753 25.344,222.375 25.298 L 220.917 25.250 220.867 24.292 L 220.817 23.333 222.658 23.333 L 224.500 23.333 224.500 22.500 L 224.500 21.667 221.833 21.667 L 219.167 21.667 219.167 26.083 M233.833 26.060 L 233.833 30.500 235.881 30.500 C 238.300 30.500,239.198 30.187,239.708 29.167 C 240.274 28.033,239.890 26.366,238.997 26.082 C 238.640 25.969,238.640 25.967,238.965 25.609 C 240.800 23.591,239.387 21.851,235.792 21.702 L 233.833 21.621 233.833 26.060 M244.167 26.062 L 244.167 30.500 244.994 30.500 L 245.821 30.500 245.869 28.875 C 245.933 26.702,246.158 26.687,247.717 28.750 C 248.341 29.575,248.908 30.346,248.977 30.463 C 249.151 30.760,250.894 30.399,250.776 30.091 C 250.732 29.976,250.239 29.275,249.681 28.533 C 248.509 26.974,248.515 26.995,249.146 26.622 C 249.847 26.208,250.220 25.308,250.131 24.242 C 249.980 22.424,249.006 21.817,246.042 21.699 L 244.167 21.625 244.167 26.062 M254.667 26.083 L 254.667 30.500 255.500 30.500 L 256.333 30.500 256.333 26.083 L 256.333 21.667 255.500 21.667 L 254.667 21.667 254.667 26.083 M259.778 21.778 C 259.717 21.839,259.667 22.214,259.667 22.611 L 259.667 23.333 261.000 23.333 L 262.333 23.333 262.333 26.925 L 262.333 30.517 263.208 30.467 L 264.083 30.417 264.128 26.882 L 264.173 23.347 265.545 23.298 L 266.916 23.250 266.859 22.583 C 266.827 22.217,266.766 21.860,266.724 21.792 C 266.629 21.637,259.932 21.624,259.778 21.778 M270.119 21.770 C 270.053 21.835,270.000 23.826,270.000 26.194 L 270.000 30.500 270.919 30.500 L 271.839 30.500 271.794 26.125 L 271.750 21.750 270.994 21.701 C 270.578 21.674,270.184 21.705,270.119 21.770 M277.451 22.015 C 275.156 23.227,275.736 25.549,278.634 26.747 C 280.567 27.547,280.876 27.972,280.091 28.758 C 279.569 29.280,278.560 29.303,277.142 28.825 C 275.970 28.430,275.950 28.439,275.931 29.355 C 275.917 30.012,275.947 30.055,276.583 30.282 C 281.561 32.057,284.480 27.235,279.583 25.326 C 277.656 24.574,277.317 24.183,278.000 23.500 C 278.421 23.079,279.451 23.058,280.538 23.447 C 281.469 23.781,281.472 23.779,281.535 22.836 C 281.583 22.112,281.575 22.099,280.917 21.897 C 279.852 21.570,278.188 21.626,277.451 22.015 M285.833 26.074 L 285.833 30.500 286.667 30.500 L 287.500 30.500 287.500 28.667 L 287.500 26.833 289.417 26.833 L 291.333 26.833 291.333 28.667 L 291.333 30.500 292.167 30.500 L 293.000 30.500 293.000 26.083 L 293.000 21.667 292.172 21.667 L 291.345 21.667 291.297 23.375 L 291.250 25.083 289.417 25.083 L 287.583 25.083 287.500 23.417 L 287.417 21.750 286.625 21.699 L 285.833 21.648 285.833 26.074 M324.285 21.770 C 324.220 21.835,324.167 23.826,324.167 26.194 L 324.167 30.500 326.750 30.500 C 329.319 30.500,329.333 30.498,329.331 30.125 C 329.324 29.040,329.261 29.000,327.567 29.000 L 326.007 29.000 325.962 25.375 L 325.917 21.750 325.160 21.701 C 324.745 21.674,324.351 21.705,324.285 21.770 M332.402 21.896 C 332.136 22.589,332.417 28.251,332.750 28.906 C 333.971 31.309,338.108 31.282,339.222 28.863 C 339.549 28.152,339.581 27.805,339.582 24.917 L 339.583 21.750 338.750 21.750 L 337.917 21.750 337.833 24.917 C 337.733 28.715,337.539 29.167,336.003 29.167 C 334.433 29.167,334.269 28.787,334.167 24.917 L 334.083 21.750 333.290 21.699 C 332.707 21.662,332.471 21.714,332.402 21.896 M344.420 21.875 C 344.382 21.990,344.233 23.733,344.089 25.750 C 343.946 27.767,343.797 29.660,343.758 29.958 L 343.688 30.500 344.489 30.500 L 345.290 30.500 345.392 29.375 C 345.447 28.756,345.538 27.500,345.593 26.583 C 345.648 25.667,345.731 24.804,345.779 24.667 C 345.875 24.388,346.500 25.916,347.424 28.690 L 348.028 30.500 348.918 30.500 L 349.809 30.500 350.128 29.625 C 350.303 29.144,350.770 27.813,351.166 26.667 C 351.561 25.521,351.936 24.524,351.998 24.452 C 352.091 24.346,352.511 29.141,352.502 30.208 C 352.500 30.452,352.655 30.500,353.436 30.500 L 354.371 30.500 354.272 29.792 C 354.218 29.402,354.053 27.472,353.906 25.502 C 353.590 21.286,353.737 21.667,352.423 21.667 L 351.365 21.667 350.876 23.042 C 350.606 23.798,350.096 25.260,349.741 26.292 C 349.387 27.323,349.056 28.164,349.007 28.160 C 348.957 28.157,348.512 26.938,348.018 25.452 C 346.633 21.287,346.877 21.667,345.587 21.667 C 344.857 21.667,344.466 21.736,344.420 21.875 M358.958 21.759 C 358.890 21.830,358.833 23.826,358.833 26.194 L 358.833 30.500 360.906 30.500 C 362.046 30.500,363.189 30.420,363.447 30.323 C 365.195 29.662,365.666 27.397,364.296 26.244 C 363.836 25.857,363.799 25.771,364.021 25.607 C 365.146 24.777,364.820 22.766,363.444 22.054 C 362.876 21.761,359.191 21.518,358.958 21.759 M369.452 21.770 C 369.387 21.835,369.333 23.826,369.333 26.194 L 369.333 30.500 370.253 30.500 L 371.172 30.500 371.128 26.125 L 371.083 21.750 370.327 21.701 C 369.911 21.674,369.517 21.705,369.452 21.770 M377.717 21.958 C 377.659 22.119,376.912 24.037,376.056 26.220 C 374.230 30.879,374.297 30.500,375.304 30.500 L 376.108 30.500 376.512 29.458 L 376.917 28.417 378.728 28.417 L 380.539 28.417 380.959 29.552 L 381.379 30.688 382.065 30.577 C 383.119 30.406,383.124 30.351,382.257 28.130 C 381.818 27.004,381.211 25.446,380.910 24.667 C 380.608 23.887,380.208 22.894,380.020 22.458 L 379.679 21.667 378.751 21.667 C 378.018 21.667,377.801 21.728,377.717 21.958 M36.296 22.593 C 37.321 23.310,36.541 24.500,35.046 24.500 L 34.167 24.500 34.167 23.417 L 34.167 22.333 35.046 22.333 C 35.573 22.333,36.075 22.438,36.296 22.593 M211.781 23.245 C 214.426 24.003,213.725 29.083,210.976 29.083 C 208.049 29.083,207.586 24.018,210.437 23.174 C 210.912 23.033,211.074 23.042,211.781 23.245 M317.548 23.575 C 319.049 24.559,318.954 27.881,317.397 28.845 C 315.698 29.897,313.833 28.497,313.833 26.168 C 313.833 23.637,315.678 22.350,317.548 23.575 M237.277 23.344 C 238.695 23.883,238.062 25.167,236.380 25.167 L 235.500 25.167 235.500 24.167 L 235.500 23.167 236.156 23.167 C 236.517 23.167,237.021 23.246,237.277 23.344 M362.500 23.381 C 363.641 23.956,362.946 25.167,361.474 25.167 L 360.500 25.167 360.500 24.278 C 360.500 23.789,360.550 23.339,360.611 23.278 C 360.799 23.090,362.059 23.159,362.500 23.381 M161.667 23.667 C 162.575 24.575,161.787 25.833,160.311 25.833 L 159.500 25.833 159.500 24.583 L 159.500 23.333 160.417 23.333 C 161.111 23.333,161.414 23.414,161.667 23.667 M248.110 23.761 C 249.006 24.657,248.362 25.691,246.838 25.801 L 245.833 25.873 245.833 24.603 L 245.833 23.333 246.758 23.333 C 247.528 23.333,247.753 23.405,248.110 23.761 M379.324 25.141 C 379.982 26.925,380.017 26.833,378.676 26.833 L 377.518 26.833 377.823 25.958 C 378.265 24.689,378.700 23.645,378.761 23.706 C 378.790 23.735,379.043 24.381,379.324 25.141 M36.681 26.606 C 37.643 27.569,36.909 28.698,35.253 28.803 L 34.167 28.872 34.167 27.500 L 34.167 26.128 35.253 26.197 C 36.062 26.249,36.427 26.353,36.681 26.606 M237.894 27.012 C 238.987 27.871,238.243 29.000,236.583 29.000 L 235.500 29.000 235.500 27.833 L 235.500 26.667 236.478 26.667 C 237.214 26.667,237.563 26.752,237.894 27.012 M362.822 26.911 C 363.373 27.196,363.591 27.849,363.312 28.378 C 363.020 28.933,362.853 28.995,361.625 28.997 L 360.500 29.000 360.500 27.944 C 360.500 27.364,360.550 26.839,360.611 26.778 C 360.817 26.572,362.345 26.664,362.822 26.911 M22.917 32.258 C 22.275 32.474,21.544 32.654,21.292 32.658 C 20.836 32.667,20.833 32.674,20.833 33.833 L 20.833 35.000 21.313 35.000 C 21.578 35.000,22.309 34.801,22.938 34.558 C 24.547 33.936,26.419 33.936,28.154 34.557 C 29.782 35.140,30.931 35.140,32.438 34.558 C 34.047 33.936,35.919 33.936,37.654 34.557 C 39.258 35.131,40.297 35.129,41.957 34.547 C 43.711 33.932,45.405 33.936,47.154 34.559 C 47.835 34.802,48.603 35.000,48.862 35.000 L 49.333 35.000 49.333 33.833 C 49.333 32.672,49.331 32.667,48.875 32.665 C 48.623 32.663,47.833 32.476,47.119 32.248 C 45.352 31.684,43.665 31.684,41.933 32.250 C 41.224 32.481,40.264 32.667,39.774 32.667 C 39.271 32.667,38.366 32.488,37.667 32.250 C 35.996 31.682,34.236 31.682,32.452 32.252 C 30.804 32.778,29.718 32.778,28.167 32.250 C 26.530 31.693,24.591 31.696,22.917 32.258 M35.017 35.388 C 35.008 35.464,34.705 37.601,34.345 40.138 C 33.985 42.675,33.599 45.500,33.486 46.417 C 33.374 47.333,33.233 48.180,33.173 48.297 C 33.108 48.424,31.885 46.537,30.167 43.662 C 28.574 40.996,27.219 38.782,27.157 38.744 C 27.095 38.706,27.301 39.779,27.614 41.129 C 28.469 44.814,29.500 49.370,29.500 49.463 C 29.500 49.575,28.144 48.328,25.750 46.012 C 24.650 44.948,23.608 43.967,23.434 43.832 C 23.011 43.502,23.047 43.607,24.785 47.801 C 25.557 49.662,26.165 51.252,26.136 51.333 C 26.107 51.414,24.975 50.649,23.620 49.634 C 22.265 48.619,21.120 47.824,21.076 47.868 C 21.003 47.942,21.638 49.609,22.467 51.516 C 24.443 56.066,29.349 60.180,34.414 61.535 C 36.559 62.108,42.947 58.415,45.445 55.156 C 46.703 53.515,49.478 47.833,49.022 47.833 C 48.952 47.833,47.783 48.661,46.425 49.672 C 43.772 51.646,43.709 51.677,44.062 50.817 C 44.190 50.505,44.909 48.762,45.660 46.943 C 46.411 45.125,47.001 43.612,46.971 43.582 C 46.941 43.552,45.510 44.879,43.792 46.531 C 42.073 48.182,40.667 49.421,40.667 49.285 C 40.667 49.022,42.317 41.673,42.758 39.970 C 42.901 39.419,42.995 38.901,42.967 38.817 C 42.939 38.734,41.614 40.843,40.021 43.503 C 38.429 46.162,37.073 48.372,37.007 48.412 C 36.942 48.453,36.760 47.495,36.602 46.284 C 36.211 43.280,35.038 35.218,35.017 35.388 M24.250 35.769 C 24.067 35.815,23.372 36.036,22.707 36.260 C 22.041 36.484,21.348 36.667,21.165 36.667 C 20.865 36.667,20.833 36.780,20.833 37.848 L 20.833 39.029 21.542 38.912 C 21.931 38.848,22.625 38.650,23.083 38.472 C 24.633 37.873,26.039 37.880,28.078 38.499 C 30.461 39.221,33.360 38.836,33.577 37.767 C 34.006 35.659,33.978 35.628,32.199 36.250 C 30.701 36.773,29.889 36.770,28.417 36.236 C 27.279 35.823,25.030 35.571,24.250 35.769 M42.750 35.907 C 42.292 36.038,41.588 36.262,41.187 36.406 C 40.169 36.770,39.379 36.732,37.901 36.250 C 36.200 35.695,36.271 35.665,36.408 36.873 C 36.557 38.187,36.577 38.209,38.107 38.663 C 39.600 39.106,40.463 39.056,42.250 38.421 C 43.854 37.852,45.041 37.871,47.083 38.500 C 49.401 39.213,49.333 39.233,49.333 37.833 C 49.333 36.723,49.315 36.667,48.946 36.667 C 48.733 36.667,48.001 36.469,47.321 36.227 C 45.817 35.692,43.958 35.562,42.750 35.907 M23.000 40.088 C 22.313 40.311,21.544 40.533,21.292 40.583 C 20.848 40.670,20.833 40.708,20.833 41.753 C 20.833 43.053,20.989 43.101,23.000 42.417 C 23.875 42.119,24.580 42.000,25.467 42.000 L 26.708 42.000 26.602 41.467 C 26.543 41.174,26.418 40.649,26.325 40.301 L 26.154 39.667 25.202 39.676 C 24.674 39.681,23.693 39.864,23.000 40.088 M43.929 39.813 C 43.880 39.893,43.732 40.418,43.601 40.979 L 43.363 42.000 44.601 42.000 C 45.493 42.000,46.173 42.117,47.032 42.417 C 47.688 42.646,48.474 42.833,48.779 42.833 L 49.333 42.833 49.333 41.753 C 49.333 40.708,49.319 40.670,48.875 40.582 C 48.623 40.532,47.812 40.306,47.073 40.079 C 45.742 39.670,44.103 39.532,43.929 39.813 M36.919 40.797 C 37.081 42.226,37.102 42.257,38.087 42.592 C 39.156 42.955,39.171 42.947,39.975 41.500 L 40.484 40.583 39.617 40.550 C 39.140 40.532,38.314 40.366,37.780 40.180 L 36.811 39.843 36.919 40.797 M32.083 40.270 C 31.717 40.406,31.023 40.532,30.542 40.550 C 30.061 40.568,29.667 40.605,29.667 40.632 C 29.664 41.187,30.982 42.845,31.366 42.768 C 32.620 42.518,32.970 42.238,33.085 41.389 C 33.145 40.946,33.231 40.452,33.275 40.292 C 33.375 39.931,33.016 39.925,32.083 40.270 M108.329 47.951 C 107.637 48.428,107.511 48.709,107.505 49.792 L 107.500 50.833 107.000 50.833 C 106.256 50.833,106.217 52.279,106.958 52.364 L 107.417 52.417 107.463 55.134 L 107.508 57.851 108.296 57.801 L 109.083 57.750 109.129 55.042 L 109.175 52.333 109.928 52.333 L 110.682 52.333 110.569 51.708 C 110.415 50.857,110.393 50.833,109.740 50.833 C 109.184 50.833,109.167 50.814,109.167 50.179 C 109.167 49.396,109.507 49.000,110.179 49.000 C 110.682 49.000,110.825 48.606,110.566 47.930 C 110.422 47.557,108.880 47.571,108.329 47.951 M146.167 48.167 C 145.539 48.795,146.006 49.833,146.917 49.833 C 147.417 49.833,148.000 49.295,148.000 48.833 C 148.000 48.371,147.417 47.833,146.917 47.833 C 146.688 47.833,146.350 47.983,146.167 48.167 M193.500 48.167 C 192.887 48.780,193.336 49.837,194.208 49.831 C 194.677 49.828,194.898 49.683,195.142 49.219 C 195.670 48.215,194.318 47.348,193.500 48.167 M226.667 48.167 C 226.043 48.790,226.505 49.833,227.405 49.833 C 227.931 49.833,228.544 49.075,228.403 48.599 C 228.172 47.817,227.247 47.586,226.667 48.167 M70.596 48.201 C 70.543 48.379,70.056 55.096,69.947 57.167 L 69.917 57.750 70.750 57.750 L 71.583 57.750 71.689 56.333 C 71.746 55.554,71.848 54.022,71.915 52.928 C 72.061 50.542,72.026 50.502,73.409 54.645 L 74.446 57.750 75.346 57.750 L 76.246 57.750 76.527 56.917 C 77.708 53.411,78.554 50.999,78.591 51.038 C 78.614 51.063,78.717 52.321,78.819 53.833 C 78.922 55.346,79.048 56.865,79.101 57.208 L 79.196 57.833 80.098 57.833 L 81.000 57.833 80.999 57.208 C 80.999 56.865,80.850 54.858,80.668 52.750 C 80.487 50.642,80.338 48.707,80.336 48.451 L 80.333 47.985 79.125 48.034 L 77.917 48.083 76.808 51.333 C 76.199 53.121,75.651 54.733,75.592 54.917 C 75.517 55.147,75.111 54.145,74.275 51.667 L 73.067 48.083 71.865 48.034 C 70.991 47.999,70.644 48.044,70.596 48.201 M169.667 52.917 L 169.667 57.833 172.583 57.833 L 175.500 57.833 175.500 57.005 L 175.500 56.177 173.542 56.130 L 171.583 56.083 171.535 54.792 L 171.486 53.500 173.076 53.500 L 174.667 53.500 174.667 53.014 C 174.667 52.070,174.569 52.000,173.246 52.000 C 171.513 52.000,171.500 51.990,171.500 50.732 L 171.500 49.667 173.417 49.667 L 175.333 49.667 175.333 48.833 L 175.333 48.000 172.500 48.000 L 169.667 48.000 169.667 52.917 M127.833 48.647 L 127.250 48.750 127.201 49.781 C 127.154 50.764,127.130 50.815,126.701 50.865 C 126.009 50.945,126.015 52.223,126.708 52.303 L 127.167 52.355 127.167 54.266 C 127.167 57.277,127.924 58.261,129.958 57.894 C 130.887 57.726,130.701 56.333,129.750 56.333 C 129.046 56.333,129.000 56.194,129.000 54.070 L 129.000 52.333 129.750 52.333 C 130.569 52.333,130.673 52.144,130.337 51.261 C 130.205 50.914,130.065 50.833,129.587 50.833 L 129.000 50.833 129.000 49.667 C 129.000 48.386,129.052 48.432,127.833 48.647 M85.000 50.835 C 83.522 51.097,83.279 51.264,83.388 51.941 C 83.514 52.715,83.467 52.694,84.409 52.411 C 85.536 52.071,86.267 52.100,86.667 52.500 C 87.248 53.081,87.090 53.283,85.892 53.492 C 83.870 53.844,83.025 54.515,82.887 55.877 C 82.699 57.727,84.673 58.589,86.405 57.414 L 87.010 57.004 87.167 57.418 C 87.299 57.766,87.434 57.833,87.996 57.833 L 88.667 57.833 88.667 55.075 C 88.667 51.110,87.973 50.309,85.000 50.835 M94.132 50.831 C 93.884 50.906,93.448 51.133,93.164 51.335 C 92.880 51.538,92.633 51.676,92.615 51.643 C 92.254 50.968,92.179 50.917,91.565 50.917 L 90.917 50.917 90.917 54.333 L 90.917 57.750 91.750 57.750 L 92.583 57.750 92.667 55.372 L 92.750 52.994 93.250 52.665 C 94.632 51.755,94.896 52.145,95.000 55.250 L 95.083 57.750 95.875 57.801 L 96.667 57.852 96.667 54.865 C 96.667 51.481,96.567 51.173,95.367 50.840 C 94.673 50.647,94.741 50.648,94.132 50.831 M113.898 50.851 C 112.336 51.107,112.110 51.254,112.222 51.941 C 112.347 52.715,112.301 52.694,113.243 52.411 C 114.369 52.071,115.100 52.100,115.500 52.500 C 116.086 53.086,115.925 53.288,114.704 53.494 C 112.153 53.924,110.982 55.592,112.068 57.249 C 112.606 58.072,114.712 58.166,115.351 57.396 C 115.625 57.066,115.947 57.114,116.048 57.500 C 116.118 57.765,116.276 57.833,116.818 57.833 L 117.500 57.833 117.500 55.075 C 117.500 51.091,116.878 50.361,113.898 50.851 M121.919 50.856 C 118.545 51.643,118.464 56.926,121.812 57.828 C 123.200 58.201,124.833 57.669,124.833 56.843 C 124.833 55.944,124.705 55.805,124.141 56.097 C 122.560 56.914,121.167 56.080,121.167 54.314 C 121.167 52.641,122.528 51.822,124.024 52.596 C 124.626 52.907,124.592 52.934,124.730 52.034 C 124.881 51.049,123.525 50.481,121.919 50.856 M153.114 50.915 C 152.764 51.036,152.332 51.267,152.155 51.428 C 151.799 51.749,151.798 51.749,151.512 51.199 C 151.348 50.885,151.198 50.824,150.697 50.866 L 150.083 50.917 150.038 54.384 L 149.993 57.851 150.872 57.800 L 151.750 57.750 151.796 55.370 L 151.843 52.989 152.380 52.662 C 153.853 51.764,154.167 52.264,154.167 55.511 L 154.167 57.833 155.000 57.833 L 155.833 57.833 155.833 55.011 C 155.833 51.073,155.240 50.179,153.114 50.915 M159.789 50.857 C 157.914 51.272,157.121 53.344,158.316 54.705 C 158.797 55.252,158.798 55.258,158.483 55.646 C 158.132 56.080,158.070 56.587,158.348 56.759 C 158.461 56.829,158.294 57.114,157.906 57.511 C 156.377 59.077,157.482 60.244,160.500 60.248 C 162.902 60.251,164.167 59.506,164.167 58.088 C 164.167 57.022,163.476 56.571,161.457 56.319 C 160.702 56.224,160.019 56.083,159.940 56.005 C 159.665 55.733,160.024 55.500,160.718 55.500 C 162.204 55.499,163.250 54.531,163.250 53.154 C 163.250 52.354,163.264 52.330,163.810 52.228 C 164.343 52.128,164.365 52.095,164.275 51.541 C 164.151 50.777,164.172 50.785,163.276 51.118 C 162.564 51.381,162.462 51.383,162.042 51.142 C 161.438 50.796,160.565 50.685,159.789 50.857 M180.654 50.898 C 180.326 51.014,179.878 51.234,179.658 51.387 C 179.134 51.754,179.034 51.740,178.970 51.292 C 178.926 50.980,178.797 50.908,178.208 50.865 L 177.500 50.814 177.500 54.324 L 177.500 57.833 178.333 57.833 L 179.167 57.833 179.167 55.515 L 179.167 53.196 179.679 52.765 C 181.052 51.610,181.480 52.185,181.537 55.262 L 181.583 57.750 182.417 57.750 L 183.250 57.750 183.291 55.000 C 183.336 52.051,183.261 51.690,182.500 51.157 C 181.901 50.739,181.335 50.659,180.654 50.898 M187.333 50.826 C 185.274 51.223,184.479 53.483,185.922 54.839 L 186.335 55.227 185.981 55.604 C 185.718 55.883,185.647 56.124,185.706 56.529 C 185.772 56.972,185.698 57.159,185.320 57.513 C 183.924 58.817,184.972 60.147,187.514 60.298 C 190.515 60.476,192.578 58.776,191.261 57.210 C 190.816 56.681,190.435 56.554,188.252 56.211 C 187.113 56.032,186.948 55.502,188.029 55.496 C 189.662 55.488,190.667 54.575,190.667 53.099 C 190.667 52.376,190.688 52.344,191.237 52.241 C 191.786 52.138,191.804 52.112,191.713 51.526 C 191.591 50.732,191.637 50.753,190.757 51.090 C 190.054 51.358,189.944 51.360,189.372 51.119 C 188.530 50.765,188.026 50.692,187.333 50.826 M200.487 50.893 C 200.159 51.011,199.711 51.234,199.491 51.387 C 198.967 51.754,198.867 51.740,198.803 51.292 C 198.758 50.974,198.648 50.917,198.083 50.917 L 197.417 50.917 197.372 54.375 L 197.327 57.833 198.163 57.833 L 199.000 57.833 199.000 55.508 L 199.000 53.184 199.557 52.758 C 201.028 51.637,201.500 52.291,201.500 55.454 L 201.500 57.833 202.333 57.833 L 203.167 57.833 203.167 55.008 C 203.167 51.142,202.525 50.157,200.487 50.893 M207.560 50.832 C 204.746 51.468,204.047 55.704,206.474 57.410 C 207.998 58.481,211.304 57.844,211.066 56.525 C 210.925 55.746,210.998 55.775,210.150 56.160 C 208.601 56.863,207.318 56.531,206.855 55.309 C 206.617 54.680,206.662 54.667,209.028 54.667 L 211.167 54.667 211.167 54.157 C 211.167 51.940,209.492 50.396,207.560 50.832 M215.250 50.820 C 212.301 51.541,211.742 56.271,214.449 57.597 C 216.066 58.390,218.963 57.698,218.779 56.562 C 218.649 55.761,218.637 55.756,217.856 56.155 C 216.363 56.917,214.500 56.329,214.500 55.096 L 214.500 54.667 216.690 54.667 L 218.880 54.667 218.788 53.656 C 218.607 51.664,217.015 50.388,215.250 50.820 M233.654 50.898 C 233.326 51.014,232.878 51.234,232.658 51.387 C 232.134 51.754,232.034 51.740,231.970 51.292 C 231.926 50.980,231.797 50.908,231.208 50.865 L 230.500 50.814 230.500 54.324 L 230.500 57.833 231.333 57.833 L 232.167 57.833 232.167 55.508 L 232.167 53.184 232.724 52.758 C 234.195 51.637,234.667 52.291,234.667 55.454 L 234.667 57.833 235.500 57.833 L 236.333 57.833 236.333 54.992 C 236.333 51.149,235.699 50.181,233.654 50.898 M240.302 50.829 C 238.341 51.197,237.532 53.532,238.915 54.832 L 239.335 55.227 238.978 55.607 C 238.700 55.903,238.642 56.117,238.717 56.577 C 238.794 57.056,238.749 57.200,238.475 57.347 C 237.933 57.637,237.609 58.586,237.870 59.124 C 238.941 61.341,244.583 60.444,244.583 58.058 C 244.583 56.898,244.173 56.670,241.252 56.211 C 240.113 56.032,239.948 55.502,241.029 55.496 C 242.694 55.488,244.001 54.214,243.731 52.863 C 243.635 52.385,243.665 52.349,244.235 52.242 C 244.827 52.131,244.839 52.114,244.732 51.522 C 244.589 50.733,244.636 50.754,243.757 51.090 C 243.054 51.358,242.944 51.360,242.372 51.119 C 241.525 50.763,241.027 50.693,240.302 50.829 M98.944 50.944 C 98.463 51.426,98.928 56.808,99.504 57.421 C 100.188 58.149,102.235 58.000,102.738 57.186 C 102.928 56.879,103.124 56.974,103.237 57.426 C 103.334 57.810,103.414 57.847,104.047 57.801 L 104.750 57.750 104.750 54.333 L 104.750 50.917 103.917 50.917 L 103.083 50.917 103.037 53.297 L 102.991 55.677 102.454 56.005 C 100.980 56.903,100.667 56.422,100.667 53.261 L 100.667 50.833 99.861 50.833 C 99.418 50.833,99.006 50.883,98.944 50.944 M132.285 50.937 C 131.798 51.424,132.256 56.802,132.838 57.421 C 133.521 58.149,135.569 58.000,136.072 57.186 C 136.258 56.884,136.473 56.973,136.530 57.375 C 136.576 57.700,136.682 57.750,137.333 57.750 L 138.083 57.750 138.083 54.333 L 138.083 50.917 137.250 50.917 L 136.417 50.917 136.370 53.297 L 136.324 55.677 135.787 56.005 C 134.344 56.885,134.104 56.537,134.000 53.417 L 133.917 50.917 133.160 50.867 C 132.745 50.840,132.351 50.871,132.285 50.937 M140.452 50.937 C 140.387 51.002,140.333 52.581,140.333 54.444 L 140.333 57.833 141.167 57.833 L 142.000 57.833 142.000 55.929 C 142.000 53.695,142.244 53.223,143.659 52.720 L 144.460 52.436 144.375 51.760 C 144.235 50.629,143.692 50.549,142.610 51.499 L 142.046 51.994 141.893 51.455 C 141.741 50.922,140.804 50.585,140.452 50.937 M146.078 51.037 C 146.031 51.160,146.013 52.720,146.038 54.505 L 146.083 57.750 146.917 57.750 L 147.750 57.750 147.750 54.333 L 147.750 50.917 146.957 50.866 C 146.411 50.831,146.137 50.884,146.078 51.037 M193.411 51.037 C 193.364 51.160,193.346 52.720,193.371 54.505 L 193.417 57.750 194.250 57.750 L 195.083 57.750 195.083 54.333 L 195.083 50.917 194.290 50.866 C 193.744 50.831,193.470 50.884,193.411 51.037 M220.833 54.324 L 220.833 57.833 221.667 57.833 L 222.500 57.833 222.500 55.817 L 222.500 53.800 223.004 53.329 C 223.282 53.070,223.807 52.759,224.171 52.637 C 224.919 52.388,224.913 52.400,224.769 51.497 C 224.628 50.616,224.098 50.595,223.169 51.435 C 222.492 52.046,222.424 52.031,222.300 51.250 C 222.258 50.988,222.097 50.906,221.540 50.865 L 220.833 50.814 220.833 54.324 M226.574 51.047 C 226.529 51.164,226.513 52.720,226.538 54.505 L 226.583 57.750 227.375 57.801 L 228.167 57.852 228.167 54.342 L 228.167 50.833 227.411 50.833 C 226.952 50.833,226.624 50.917,226.574 51.047 M161.407 52.370 C 161.823 52.964,161.739 53.752,161.216 54.164 C 160.141 55.010,158.921 53.780,159.577 52.512 C 159.921 51.848,160.984 51.766,161.407 52.370 M188.851 52.271 C 189.151 52.633,189.138 53.768,188.830 54.070 C 187.753 55.125,186.216 53.622,187.093 52.370 C 187.413 51.913,188.503 51.852,188.851 52.271 M208.879 52.292 C 209.341 52.802,209.519 53.457,209.227 53.569 C 208.690 53.775,206.992 53.673,206.899 53.430 C 206.552 52.527,208.223 51.567,208.879 52.292 M216.633 52.381 C 217.450 53.250,217.229 53.583,215.836 53.583 C 214.383 53.583,214.205 53.376,214.924 52.522 C 215.459 51.886,216.117 51.832,216.633 52.381 M241.821 52.235 C 242.518 53.075,242.017 54.389,241.000 54.389 C 240.012 54.389,239.491 53.230,240.093 52.370 C 240.397 51.936,241.501 51.850,241.821 52.235 M87.000 55.141 C 87.000 55.856,86.698 56.224,85.876 56.510 C 84.470 57.000,84.122 55.364,85.505 54.764 C 86.585 54.296,87.000 54.400,87.000 55.141 M115.833 55.141 C 115.833 55.856,115.531 56.224,114.709 56.510 C 113.303 57.000,112.956 55.364,114.339 54.764 C 115.418 54.296,115.833 54.400,115.833 55.141 M160.904 57.673 C 162.607 57.920,163.059 58.530,161.933 59.064 C 160.274 59.852,158.125 58.893,159.109 57.805 C 159.428 57.452,159.392 57.455,160.904 57.673 M189.333 57.899 C 190.712 58.338,189.538 59.402,187.798 59.291 C 186.364 59.199,185.903 58.714,186.512 57.939 C 186.886 57.464,187.921 57.449,189.333 57.899 M242.217 57.855 C 243.514 58.187,243.036 59.118,241.485 59.278 C 239.797 59.452,238.821 58.676,239.619 57.794 C 239.921 57.460,240.748 57.480,242.217 57.855 " stroke="none" fill="#0f2646" fill-rule="evenodd"></path></g></svg>